<?xml version="1.0" encoding="utf-8"?>
<!-- Generator: Adobe Illustrator 19.0.0, SVG Export Plug-In . SVG Version: 6.00 Build 0)  -->
<svg version="1.1" xmlns="http://www.w3.org/2000/svg" xmlns:xlink="http://www.w3.org/1999/xlink" x="0px" y="0px"
	 viewBox="0 0 369.6 405.2" style="enable-background:new 0 0 369.6 405.2;" xml:space="preserve">
<style type="text/css">
	.st0{fill:none;}
	.st1{fill:#9E5C2F;}
	.st2{display:none;fill:#9E5C2F;stroke:#000000;stroke-miterlimit:10;}
	.st3{fill:#321E10;}
	.st4{fill:#5E3F2A;}
	.st5{fill:#77CCF3;}
	.st6{fill:#FFFFFF;}
</style>
<g id="Layer_1">
	<g id="Layer_2">
	</g>
	<g id="XMLID_5_">
		<path id="XMLID_88_" class="st0" d="M161.5,307.5"/>
	</g>
	<g id="XMLID_22_">
		<path id="XMLID_87_" class="st1" d="M258.1,156.5c-4.9,0-7.5-3.8-5.8-8.4L305.9,9.4c1.8-4.6,7.3-8.4,12.2-8.4h43.5
			c4.9,0,8.5,4,7.9,8.9L368,22c-0.6,4.9-5.2,8.9-10.1,8.9h-19.4c-4.9,0-10.4,3.8-12.2,8.4l-4.7,12.3c-1.8,4.6-3.6,9.7-4.1,11.2
			c-0.5,1.5,3.1,2.8,8.1,2.8h28c4.9,0,8.5,4,7.9,8.9l-1.5,12c-0.6,4.9-5.2,8.9-10.1,8.9h-35.2c-5,0-9.3,0-9.7,0s-2.1,3.8-3.9,8.4
			l-5.5,14.3c-1.8,4.6,0.8,8.4,5.8,8.4h44.5c4.9,0,8.5,4,7.9,8.9l-1.5,12.1c-0.6,4.9-5.2,8.9-10.1,8.9H258.1z"/>
	</g>
	<polygon id="XMLID_6_" class="st2" points="228.2,155 200.4,0.5 293.4,0.5 294.6,0.5 295.2,0.5 286.1,23.5 280,39.2 278.5,43 
		234.7,43 234.3,42.9 234,42.9 240,75.5 240.5,78.5 265.8,78.5 266.2,78.5 266.5,78.5 261.1,92.2 257.9,100.3 257.4,101.5 
		240.3,101.5 	"/>
	<g id="XMLID_14_">
		<path id="XMLID_85_" class="st1" d="M124,156.5c-4.9,0-7.9-3.9-6.6-8.7L155.8,8.7c1.3-4.8,6.4-8.6,11.4-8.5l15.4,0.2
			c4.9,0.1,10,4.1,11.2,8.9l34.4,137.5c1.2,4.8-1.9,8.7-6.8,8.7h-10.9c-4.9,0-10.1-3.9-11.5-8.6l-14.5-50.3
			c-1.4-4.8-6.1-8.6-10.5-8.6s-9.3,3.9-10.7,8.6l-16.3,51.4c-1.5,4.7-6.8,8.6-11.7,8.6H124z"/>
	</g>
	<g id="XMLID_18_">
		<path id="XMLID_83_" class="st1" d="M109.7,146.3c-1.2,4.8-6.2,8.7-11.2,8.7H79.8c-4.9,0-9.6-4-10.3-8.9L49.8,8.9
			C49.1,4,52.5,0,57.5,0h83c4.9,0,8,3.9,6.7,8.7l-3.6,13.5c-1.3,4.8-6.3,8.7-11.3,8.7l-36.5,0c-4.9,0-9.7,0-10.5,0
			c-0.8,0-0.9,4-0.1,8.9l12.3,76.4c0.8,4.9,5,8.9,9.4,8.9s7,3.9,5.8,8.7L109.7,146.3z"/>
	</g>
	<g id="XMLID_21_">
		<path id="XMLID_81_" class="st3" d="M115.7,405.2c-4.9,0-9.6-4-10.3-8.9L95,322.8c-0.7-4.9,2.8-8.9,7.7-8.9H322c5,0,8.5,4,7.9,8.9
			l-9.3,73.5c-0.6,4.9-5.2,8.9-10.1,8.9h-21c-5,0-9-4-9-9v-31.7c0-4.9-4.1-9-9-9h-28.3c-4.9,0-9,4.1-9,9v31.3c0,5-4,9-9,9.1
			l-21.1,0.2c-4.9,0.1-9-4-9-8.9v-31.3c0-4.9-4-9-9-9.1l-31.6-0.2c-4.9,0-9,4-9,8.9v31.7c0,5-4.1,9-9,9H115.7z"/>
	</g>
	<g id="XMLID_15_">
		<path id="XMLID_56_" class="st4" d="M101.8,308.5c-5,0-9.6-4-10.3-8.9L73.2,171.8c-0.7-4.9,2.8-8.9,7.7-8.9H91c5,0,9.6,4,10.3,8.9
			l14,100.1c0.7,4.9,4.3,8.9,8,8.9s6.2-4,5.6-8.9l-13.8-99.9c-0.7-4.9,2.8-8.9,7.8-8.9h9.7c4.9,0,9.1,0,9.3,0c0.2,0,0.9,4,1.5,8.9
			l17,127.7c0.7,4.9-2.9,8.9-7.8,8.9H101.8z"/>
	</g>
	<g id="XMLID_7_">
		<path id="XMLID_53_" class="st4" d="M174.6,308.5c-4.9,0-9.5-4-10.2-8.9l-17.3-127.8c-0.7-4.9,2.8-8.9,7.8-8.9h10
			c4.9,0,9.5,4,10.1,8.9l13,101c0.6,4.9,5.2,8.9,10.1,8.9h34.4c4.9,0,9.6,4,10.4,8.9l1.4,9.1c0.8,4.9-2.7,8.9-7.6,8.9L174.6,308.5z"
			/>
	</g>
	<g id="XMLID_17_">
		<path id="XMLID_50_" class="st4" d="M257.5,308.5c-4.9,0-9.5-4-10.2-8.9l-17.1-127.7c-0.7-4.9,2.9-8.9,7.8-8.9h103
			c5,0,8.5,4,7.9,8.9l-1.5,12.7c-0.6,4.9-5.1,8.9-10.1,8.9l-66-0.3c-4.9,0-9.5,0-10.1,0c-0.6,0-0.6,4,0.1,8.9l9.8,70.8
			c0.7,4.9,5.3,8.9,10.2,8.9h44.6c4.9,0,8.5,4,7.8,8.9l-1.2,8.9c-0.6,4.9-5.2,8.9-10.2,8.9L257.5,308.5z"/>
	</g>
	<g id="XMLID_3_">
		<path id="XMLID_47_" class="st1" d="M238.6,145c-1.2,4.8-3.1,4.8-4.2,0L201.7,9.3c-1.2-4.8,1.9-8.8,6.9-8.8h83.9
			c4.9,0,7.7,3.8,6,8.5l-8.9,25.5c-1.6,4.7-7,8.5-12,8.5h-25.9c-4.9,0-8.1,4-7.1,8.8l3.9,17.9c1.1,4.8,6,8.8,10.9,8.8h4.5
			c5,0,7.5,3.8,5.7,8.4l-2.5,6.3c-1.8,4.6-6.6,8.4-10.7,8.4c-4,0-8.3,3.9-9.5,8.7L238.6,145z"/>
	</g>
	<g id="XMLID_9_">
		<path id="XMLID_45_" class="st5" d="M88.1,299.7c0.7,4.9-2.8,8.9-7.7,8.9h-34c-4.9,0-10.9-3.6-13.3-7.9l-31-57.1
			c-2.4-4.4-2.9-11.7-1.1-16.3l21-55.9c1.7-4.6,7.2-8.4,12.2-8.4l25.2,0c4.9,0,9.6,4,10.3,8.9L88.1,299.7z"/>
	</g>
	<g id="XMLID_10_">
		<path id="XMLID_43_" class="st6" d="M67.1,269.5c0.7,4.9-2.8,8.9-7.7,8.9h-9.8c-5,0-10.9-3.6-13.3-7.9l-13.2-24.6
			c-2.3-4.4-2.8-11.7-1.1-16.3l8.9-23.6c1.7-4.6,7.2-8.4,12.2-8.4h4.7c4.9,0,9.6,4,10.3,8.9L67.1,269.5z"/>
	</g>
</g>
<g id="Layer_4">
</g>
<g id="Layer_3">
</g>
</svg>
