<?xml version="1.0" encoding="utf-8"?>
<!-- Generator: Adobe Illustrator 19.0.0, SVG Export Plug-In . SVG Version: 6.00 Build 0)  -->
<svg version="1.1" xmlns="http://www.w3.org/2000/svg" xmlns:xlink="http://www.w3.org/1999/xlink" x="0px" y="0px"
	 viewBox="0 0 372.8 405.2" style="enable-background:new 0 0 372.8 405.2;" xml:space="preserve">
<style type="text/css">
	.st0{fill:none;}
	.st1{fill:#9E5C2F;}
	.st2{display:none;fill:#9E5C2F;stroke:#000000;stroke-miterlimit:10;}
	.st3{fill:#FFFFFF;}
	.st4{fill:#321E10;}
	.st5{fill:#5E3F2A;}
	.st6{fill:#77CCF3;}
</style>
<g id="Layer_1">
	<g id="Layer_2">
	</g>
	<path id="XMLID_5_" class="st0" d="M163.6,307.5"/>
	<polygon id="XMLID_22_" class="st1" points="251.3,156.5 311.3,1 372.8,1 369,30.9 331.6,30.9 320.4,60 318.6,65.6 364.6,65.6 
		360.8,95.4 307.7,95.4 306.4,95.4 294.4,126.6 356.9,126.6 353.1,156.5 	"/>
	<polygon id="XMLID_6_" class="st2" points="238.5,155 210.6,0.5 303.6,0.5 304.9,0.5 305.4,0.5 296.3,23.5 290.2,39.2 288.7,43 
		244.9,43 244.6,42.9 244.2,42.9 250.2,75.5 250.8,78.5 276.1,78.5 276.4,78.5 276.7,78.5 271.3,92.2 268.2,100.3 267.6,101.5 
		250.6,101.5 	"/>
	<polygon id="XMLID_14_" class="st1" points="117.1,156.5 160.3,0 193.7,0.5 232.5,155.5 203.7,155.5 184.1,88 168.1,88 
		146.3,156.5 	"/>
	<polygon id="XMLID_30_" class="st3" points="171.4,55.8 175.7,35.2 180.6,55.8 	"/>
	<polygon id="XMLID_18_" class="st1" points="109.6,155 72.9,155 50.6,0 151.6,0 143.5,30.9 89,30.9 86,30.9 101.1,125.1 
		117.1,125.1 	"/>
	<polygon id="XMLID_21_" class="st4" points="108.8,405.2 95.8,313.8 333.1,313.8 321.6,405.2 282.6,405.2 282.6,355.5 236.3,355.5 
		236.3,404.8 197.1,405.2 197.1,355.8 147.6,355.5 147.6,405.2 	"/>
	<polygon id="XMLID_15_" class="st5" points="94.9,308.5 74,162.9 102.1,162.9 118.7,280.7 132.2,280.7 116,163 143.6,163 
		144.3,163 163.6,308.5 	"/>
	<polygon id="XMLID_7_" class="st5" points="167.7,308.5 148,162.9 176,162.9 191.3,281.7 243.7,281.7 247.9,308.6 	"/>
	<polygon id="XMLID_17_" class="st5" points="250.6,308.6 231.1,163 352.2,163 348.4,193.5 264.4,193.1 262.1,193.1 274.5,281.7 
		337,281.7 333.5,308.4 	"/>
	<polygon id="XMLID_3_" class="st1" points="238.6,153.7 201.7,0.5 303.6,0.5 288.7,43 244.9,43 252.7,78.5 275.2,78.5 266,101.5 
		251.3,101.5 	"/>
	<polygon id="XMLID_9_" class="st6" points="91.5,308.6 39.6,308.6 0,235.7 27.3,162.9 70.5,163 	"/>
	<polygon id="XMLID_10_" class="st3" points="70.6,278.4 42.7,278.4 21,237.9 36.3,197.5 58.9,197.5 	"/>
</g>
<g id="Layer_4">
</g>
<g id="Layer_3">
</g>
</svg>
