<?xml version="1.0" encoding="utf-8"?>
<!-- Generator: Adobe Illustrator 19.0.0, SVG Export Plug-In . SVG Version: 6.00 Build 0)  -->
<svg version="1.1" id="Layer_1" xmlns="http://www.w3.org/2000/svg" xmlns:xlink="http://www.w3.org/1999/xlink" x="0px" y="0px"
	 viewBox="22.1 201.3 153.7 75.2" style="enable-background:new 22.1 201.3 153.7 75.2;" xml:space="preserve">
<path id="XMLID_2_" d="M165.3,248c-3.8,11-13.4,17.7-24.7,17.7c-7.1,0-13.6-3.1-18.3-8s-7.7-11.5-7.7-18.9c0-7.7,3-14.2,7.7-19.1
	c4.7-4.9,11.2-7.7,18.3-7.7c10.9,0,20.1,5,24,17h10.6c-4.3-17-17.6-27.7-34.6-27.7c-10.1,0-19.5,4.2-25.9,10.9
	c-1.2,1.3-2.6,2.7-3.6,4.2V202h-10v31h-32v-31h-5.9l0,0H32.4v10h19.7v31.6c0,14.8-13,21.5-30,21.5v10.7c16,0,29-4.7,36-14.7V276h11
	v-33h32v33h10v-14.8c1,1.5,2.4,2.9,3.6,4.2c6.5,6.8,15.7,11.1,25.8,11.1c17.3,0,31-11.4,35.3-28.4L165.3,248L165.3,248z"/>
</svg>
