<?xml version="1.0" encoding="utf-8"?>
<!-- Generator: Adobe Illustrator 19.0.0, SVG Export Plug-In . SVG Version: 6.00 Build 0)  -->
<svg version="1.1" xmlns="http://www.w3.org/2000/svg" xmlns:xlink="http://www.w3.org/1999/xlink" x="0px" y="0px"
	 viewBox="0 0 192.5 417.4" style="enable-background:new 0 0 192.5 417.4;" xml:space="preserve">
<style type="text/css">
	.st0{fill:#FFFFFF;stroke:#000000;stroke-miterlimit:10;}
	.st1{display:none;}
	.st2{display:inline;fill:none;stroke:#A7A9AC;stroke-miterlimit:10;}
	.st3{fill:none;stroke:#000000;stroke-miterlimit:10;}
	.st4{stroke:#F4F4F4;stroke-miterlimit:10;}
	.st5{fill:#020202;stroke:#F9F9FA;stroke-miterlimit:10;}
	.st6{fill:#080707;}
	.st7{fill:none;stroke:#F9F9FA;stroke-miterlimit:10;}
	.st8{fill:#FFFFFF;}
	.st9{fill:none;stroke:#000000;stroke-width:0.6541;stroke-miterlimit:10;}
</style>
<g id="Layer_1">
</g>
<g id="Layer_6">
	<circle class="st0" cx="34.4" cy="296.1" r="9.8"/>
	<polygon class="st0" points="21.1,299.4 30.9,316.8 40,312.5 48.8,323.8 53.2,323.8 61.5,307.1 53.2,314.5 48.8,314.8 41.3,301.2 
		32.4,305.7 	"/>
	<polygon class="st0" points="32.4,305.7 40,312.5 30.9,316.8 	"/>
	<polyline class="st0" points="41.3,301.2 40,312.5 48.8,314.8 53.2,323.8 	"/>
	<line class="st0" x1="48.8" y1="323.8" x2="48.8" y2="314.8"/>
	<polygon class="st0" points="53.2,291 48.8,296.4 53.2,301.2 74.7,296.1 	"/>
	<polyline class="st0" points="53.2,291 56.5,296.1 53.2,301.2 	"/>
	<line class="st0" x1="56.5" y1="296.1" x2="74.7" y2="296.1"/>
	<circle class="st0" cx="134" cy="285.9" r="9.8"/>
	<path class="st0" d="M149.8,291"/>
	<polyline class="st0" points="149.8,280.9 146.2,285.9 149.8,291 	"/>
	<path class="st0" d="M149.8,280.9"/>
	<polyline class="st0" points="149.8,280.9 151.7,285.9 149.8,291 	"/>
	<path class="st0" d="M118.7,291"/>
	<polyline class="st0" points="118.1,280.9 121.7,286 118.1,291 	"/>
	<path class="st0" d="M118.1,280.9"/>
	<polyline class="st0" points="118.1,280.9 116.2,286 118.1,291 	"/>
	<polygon class="st0" points="133.8,289.2 133.8,305.9 141.4,295.8 	"/>
	<polyline class="st0" points="135.7,302.3 137,304.7 133.8,313.6 133.8,305.9 	"/>
	<polygon class="st0" points="133.8,289.4 133.8,306.1 127.2,295.5 	"/>
	<polyline class="st0" points="131.9,302.5 130.7,304.9 133.8,313.8 133.8,306.1 	"/>
	<polygon class="st0" points="20.9,292.2 30.7,274.7 39.8,279.1 48.5,267.7 53,267.7 61.2,284.4 53,277 48.5,276.7 41,290.4 
		32.2,285.8 	"/>
	<polygon class="st0" points="32.2,285.8 39.8,279.1 30.7,274.7 	"/>
	<polyline class="st0" points="41,290.4 39.8,279.1 48.5,276.7 53,267.7 	"/>
	<line class="st0" x1="48.5" y1="267.7" x2="48.5" y2="276.7"/>
	<polygon class="st0" points="133.8,282.4 133.8,265.7 141.4,276.1 	"/>
	<polyline class="st0" points="135.7,269.3 136.9,266.9 133.7,258 133.8,265.7 	"/>
	<polygon class="st0" points="133.7,282.2 133.7,265.5 127.2,276.1 	"/>
	<polyline class="st0" points="131.8,269.1 130.6,266.7 133.8,257.8 133.7,265.5 	"/>
</g>
<g id="Layer_2" class="st1">
	<line class="st2" x1="2" y1="0.2" x2="-85.2" y2="210.5"/>
	<line class="st2" x1="-27.6" y1="155.2" x2="-66.5" y2="88.7"/>
	<line class="st0" x1="136.8" y1="120.9" x2="166.8" y2="120.9"/>
	<line class="st2" x1="-57" y1="120.8" x2="192.5" y2="120.8"/>
</g>
<g id="Layer_3">
	<circle class="st0" cx="135.5" cy="81.8" r="9.8"/>
	<path class="st0" d="M151.3,86.9"/>
	<polyline class="st0" points="151.3,76.7 147.7,81.8 151.3,86.9 	"/>
	<path class="st0" d="M151.3,76.7"/>
	<polyline class="st0" points="151.3,76.7 153.2,81.8 151.3,86.9 	"/>
	<polygon class="st0" points="135.3,22.2 135.3,74.9 140.7,52.6 141.7,43.5 	"/>
	<polyline class="st0" points="135.4,74.8 129.9,52.5 129,43.4 135.4,22.1 	"/>
	<line class="st0" x1="135.4" y1="22.1" x2="135.4" y2="74.8"/>
	<polyline class="st0" points="129.9,52.5 135.4,44.4 129,43.4 	"/>
	<polyline class="st0" points="140.7,52.6 135.3,44.6 141.7,43.5 	"/>
	<polyline class="st0" points="148.2,56.9 149.2,50.3 156.9,42.6 152.2,56.6 148.2,56.9 149.7,63.1 152.2,56.6 	"/>
	<line class="st0" x1="149.7" y1="63.1" x2="139.1" y2="77.9"/>
	<polyline class="st0" points="145.6,63 147.5,66.2 139.1,77.9 144.6,61.2 	"/>
	<polyline class="st0" points="148.2,56.9 144.6,61.2 145.6,63 	"/>
	<polyline class="st0" points="122.4,56.9 121.5,50.3 113.8,42.6 118.4,56.6 122.4,56.9 120.9,63.1 118.4,56.6 	"/>
	<line class="st0" x1="120.9" y1="63.1" x2="131.5" y2="77.9"/>
	<polyline class="st0" points="125,63 123.2,66.2 131.5,77.9 126,61.2 	"/>
	<polyline class="st0" points="122.4,56.9 126,61.2 125,63 	"/>
	<path class="st0" d="M120.2,86.9"/>
	<polyline class="st0" points="119.6,76.8 123.2,81.8 119.6,86.9 	"/>
	<path class="st0" d="M119.6,76.8"/>
	<polyline class="st0" points="119.6,76.8 117.7,81.8 119.6,86.9 	"/>
	<polygon class="st0" points="135.4,85.1 135.4,101.8 143.2,91.4 	"/>
	<polyline class="st3" points="137.6,98.8 138.5,100.5 135.3,109.5 135.4,101.8 	"/>
	<polygon class="st0" points="135.3,85.3 135.3,102 126.7,91.6 	"/>
	<polyline class="st3" points="133,99.2 132.2,100.7 135.4,109.7 135.3,102 	"/>
	<circle class="st0" cx="35.1" cy="81.8" r="9.8"/>
	<polygon class="st0" points="33.1,47.9 21.8,76.8 35.5,62.3 	"/>
	<polygon class="st0" points="45.9,50.9 43.2,24.7 33.1,47.9 	"/>
	<line class="st0" x1="35.5" y1="62.3" x2="45.9" y2="50.9"/>
	<polygon class="st0" points="30.2,77.7 40.8,80.6 65.3,69 	"/>
	<polygon class="st0" points="22.7,79.6 41,64.7 47.5,73.3 	"/>
	<polyline class="st0" points="41,64.7 52.2,69.3 51.4,72.4 	"/>
	<polygon class="st0" points="56.7,71.1 52.2,69.3 58.2,64.6 76.6,65.8 	"/>
	<polygon class="st0" points="21.8,85.1 31.6,102.5 40.7,98.2 49.5,109.5 53.9,109.5 62.2,92.8 53.9,100.2 49.5,100.5 42,86.9 
		33.1,91.4 	"/>
	<polygon class="st0" points="33.1,91.4 40.7,98.2 31.6,102.5 	"/>
	<polyline class="st0" points="42,86.9 40.7,98.2 49.5,100.5 53.9,109.5 	"/>
	<line class="st0" x1="49.5" y1="109.5" x2="49.5" y2="100.5"/>
	<polygon class="st0" points="53.9,76.7 49.5,82.1 53.9,86.9 75.4,81.8 	"/>
	<polyline class="st0" points="53.9,76.7 57.2,81.8 53.9,86.9 	"/>
	<line class="st0" x1="57.2" y1="81.8" x2="75.4" y2="81.8"/>
</g>
<g id="Layer_4">
	<circle class="st4" cx="43.2" cy="156.6" r="13"/>
	<polygon class="st5" points="26.1,152.2 16.7,169.6 38.3,169.6 51.3,156.6 52.2,147.5 60,149.9 81.3,121.7 59.2,139.4 45.9,134.8 
		40.7,150.5 	"/>
	<line class="st5" x1="59.2" y1="139.4" x2="60" y2="149.9"/>
	<polyline class="st5" points="26.1,152.2 37.4,160.4 38.3,169.6 	"/>
	<line class="st5" x1="37.4" y1="160.4" x2="51.3" y2="156.6"/>
	<circle class="st0" cx="135.7" cy="157.2" r="13"/>
	<polygon class="st0" points="111,120.5 117.6,149.1 120.7,146.9 120.7,156.6 127.1,170.2 135.7,170.2 135.7,154.5 124.5,150.5 
		123.3,134.8 119,139.4 	"/>
	<line class="st0" x1="119" y1="139.4" x2="117.6" y2="149.1"/>
	<line class="st0" x1="123.3" y1="134.8" x2="120.7" y2="146.9"/>
	<polygon class="st0" points="124.5,150.5 120.7,156.6 125.5,160.4 	"/>
	<polyline class="st0" points="127.1,170.2 125.5,160.4 135.7,154.5 	"/>
	<line class="st0" x1="125.5" y1="160.4" x2="135.7" y2="170.2"/>
	<polygon class="st0" points="160.3,120.5 153.7,149.1 150.7,146.9 150.7,156.6 144.2,170.2 135.7,170.2 135.7,154.5 146.8,150.5 
		148,134.8 152.3,139.4 	"/>
	<line class="st0" x1="152.3" y1="139.4" x2="153.7" y2="149.1"/>
	<line class="st0" x1="148" y1="134.8" x2="150.7" y2="146.9"/>
	<polyline class="st0" points="144.2,170.2 145.8,160.4 135.7,154.5 	"/>
	<polyline class="st0" points="135.7,170.2 145.8,160.4 150.7,156.6 146.8,150.5 145.8,160.4 	"/>
	<g id="XMLID_1_">
		<g>
			<polygon class="st6" points="49.8,142.6 52.2,147.5 51.3,156.6 40.7,150.5 37.4,160.4 16.7,169.6 45.9,134.8 			"/>
		</g>
		<g>
			<polygon class="st7" points="49.8,142.6 45.9,134.8 16.7,169.6 37.4,160.4 40.7,150.5 51.3,156.6 52.2,147.5 			"/>
		</g>
	</g>
</g>
<g id="Layer_5">
	<path class="st3" d="M41.9,239.4"/>
	<path class="st3" d="M28.5,228.2"/>
	<path class="st3" d="M32.9,239.9"/>
	<path class="st3" d="M28.5,228.2"/>
	<path class="st3" d="M32.9,239.9"/>
	<path class="st3" d="M40.7,239.9"/>
	<path class="st3" d="M48.9,195.8"/>
	<path class="st0" d="M30.5,223.7c-0.8-1.6-1.3-3.5-1.3-5.4c0-2.3,0.6-4.4,1.7-6.2"/>
	<path class="st0" d="M44.4,206.7c5,1.4,8.7,6,8.7,11.5c0,5.3-3.5,9.9-8.3,11.4"/>
	<path class="st0" d="M128.5,199.9"/>
	<path class="st0" d="M112.8,216.3"/>
	<path class="st0" d="M112.9,225.3"/>
	<path class="st0" d="M128.9,241.4"/>
	<path class="st0" d="M154.7,216.7"/>
	<polyline class="st0" points="161.7,243.9 153.4,239.7 154.6,225 	"/>
	<polyline class="st0" points="137.8,241.9 142.3,230.2 154.7,225 	"/>
	<line class="st0" x1="142.3" y1="230.2" x2="153.4" y2="239.7"/>
	<polyline class="st0" points="154.7,225 158.5,231.7 153.4,239.7 158.5,236.7 161.7,243.9 153.4,243.9 153.4,239.7 146.5,243.9 
		137.8,241.9 153.4,239.7 	"/>
	<polyline class="st0" points="106.2,243.9 114.5,239.7 113.3,225 	"/>
	<polyline class="st0" points="130.1,241.9 125.6,230.2 113.2,225 	"/>
	<line class="st0" x1="125.6" y1="230.2" x2="114.5" y2="239.7"/>
	<polyline class="st0" points="113.2,225 109.4,231.7 114.5,239.7 109.4,236.7 106.2,243.9 114.5,243.9 114.5,239.7 121.4,243.9 
		130.1,241.9 114.5,239.7 	"/>
	<polyline class="st0" points="162.3,197.7 154,201.9 155.2,216.6 	"/>
	<polyline class="st0" points="138.4,199.7 142.8,211.4 155.3,216.6 	"/>
	<line class="st0" x1="142.8" y1="211.4" x2="154" y2="201.9"/>
	<polyline class="st0" points="155.3,216.6 159.1,209.9 154,201.9 159.1,204.9 162.3,197.7 154,197.7 154,201.9 147.1,197.7 
		138.4,199.7 154,201.9 	"/>
	<polyline class="st0" points="105.8,197.7 114.1,201.9 112.9,216.6 	"/>
	<polyline class="st0" points="129.6,199.7 125.2,211.4 112.8,216.6 	"/>
	<line class="st0" x1="125.2" y1="211.4" x2="114.1" y2="201.9"/>
	<polyline class="st0" points="112.8,216.6 109,209.9 114.1,201.9 109,204.9 105.8,197.7 114.1,197.7 114.1,201.9 121,197.7 
		129.6,199.7 114.1,201.9 	"/>
	<circle class="st0" cx="133.9" cy="220.2" r="11.9"/>
	<polyline class="st0" points="44.8,207.5 40.4,205.3 34.9,202.4 36.4,196.8 40.4,195.1 44.8,198.6 44.8,207.5 34.9,215.3 28,209.7 
		29.3,201 34.9,202.4 32.9,207.9 	"/>
	<path class="st3" d="M34.9,214.3"/>
	<polyline class="st0" points="28,209.7 34.9,202.4 34.9,215.3 	"/>
	<polyline class="st3" points="40.4,195.1 34.9,202.4 44.8,198.6 	"/>
	<path class="st3" d="M29.3,201"/>
	<polygon class="st0" points="40.4,205.3 36.4,196.8 29.3,201 32.9,207.9 	"/>
	<polyline class="st0" points="29.3,201 31.4,196.8 36.4,196.8 	"/>
	<polygon class="st0" points="40.4,205.3 31.4,196.8 32.9,207.9 	"/>
	<path class="st3" d="M48.9,239.6"/>
	<path class="st3" d="M48.9,239.6"/>
	<polyline class="st0" points="44.8,227.9 40.4,230.1 34.9,233 36.4,238.6 40.4,240.3 44.8,236.8 44.8,227.9 34.9,220.1 28,225.7 
		29.3,234.4 34.9,233 32.9,227.5 	"/>
	<path class="st3" d="M34.9,220.1"/>
	<polyline class="st0" points="28,225.7 34.9,233 34.9,220.1 	"/>
	<polyline class="st0" points="40.4,240.3 34.9,233 44.8,236.8 	"/>
	<path class="st3" d="M29.3,234.4"/>
	<polygon class="st0" points="40.4,230.1 36.4,238.6 29.3,234.4 32.9,227.5 	"/>
	<polyline class="st0" points="29.3,234.4 31.4,238.6 36.4,238.6 	"/>
	<polygon class="st0" points="40.4,230.1 31.4,238.6 32.9,227.5 	"/>
	<g id="XMLID_2_">
		<g>
			<path class="st8" d="M68,380.5l-7.9-0.8l-2.1-2.4c1.2-1.7,1.2-3.7,1.2-3.7L68,380.5z"/>
			<path class="st8" d="M60.9,364.1l-2.1,1.7c-0.6-1.5-1.7-2.8-1.7-2.8l1.4-2.1l0.1,0.1l8.6-2.1L60.9,364.1z"/>
			<path class="st8" d="M66.2,369.6l-8.2,2.9l-5.8,2.1c0,0-3.9,0.5-4.5-4.1c-0.7-4.7,3.2-5,3.2-5l8.4,2.2v0h0L66.2,369.6z"/>
			<path class="st8" d="M65.5,350.2l-7,10.7l-1.4,2.1c0,0-1.2,1.5-3.5-0.8s-1.2-3.9-1.2-3.9l5-3.1L65.5,350.2z"/>
			<path class="st8" d="M60.3,385.4l1.5,4.2l-8.6-5.5c0.8-0.7,1.4-1.3,1.4-1.3L60.3,385.4z"/>
			<path class="st8" d="M58.8,365.8l2.1-1.7h3.3l-3.5,2.5l-1.5,1.1h0v0C59.2,367.1,59,366.4,58.8,365.8z"/>
			<path class="st8" d="M59.2,350.7l-1.8,4.6l-5,3.1c-1.1-1.1-1.1-1.5-1.1-1.5L59.2,350.7z"/>
			<path class="st8" d="M60.8,366.6l13.7,2.3l-15.3,4.7c0,0-1.2-1.1-1.2-1.1v0l8.2-2.9l-7-1.9L60.8,366.6z"/>
			<path class="st8" d="M57.4,376.6l0.7,0.7l2.1,2.4l8.6,9.6l-8.4-3.8l-5.7-2.6l-1.1-0.5c0,0-1.6-1.3,0-3.9
				C55.2,375.8,57.4,376.6,57.4,376.6z"/>
			<path class="st8" d="M48.1,385c3.5-0.8,3.2,0.5,3.2,0.5l1.5,14.6l-5.7-9.6L48.1,385z"/>
			<path class="st8" d="M50.3,356c0,0,0.2,0.3-0.8,0.4L48.9,344l0.7-1.1L50.3,356z"/>
			<path class="st8" d="M49.4,356.4l0.2,4.1c0,0-0.3,3.2-4.5,2.4c-4.2-0.8-3.5-3.8-3.5-3.8l2-4.6l5.2-12.2l0.1,1.6L49.4,356.4z"/>
			<path class="st8" d="M48.9,380.6l-0.8,4.4l-1,5.6l-1.5,8.3l-3.5-12.4l-1.5-5.5c0,0,0.3-2.7,3.8-2.8
				C47.9,378,48.9,380.6,48.9,380.6z"/>
			<path class="st8" d="M43.3,371.1c0.8,4.8-4.6,4.8-4.6,4.8l-10.3-3l3.4-2.1l6.2-3.9C38,366.9,42.5,366.3,43.3,371.1z"/>
			<path class="st8" d="M42,386.4c0.4,1-0.4,2-0.4,2l-6.8,10.9l1-14c0,0,0.5-1.9,4.1-0.7C41.2,385.2,41.8,385.8,42,386.4z"/>
			<path class="st8" d="M41,355.2c0,0,0.5,0.9-2.2,1.8c-2.7,0.9-2.8,0-2.8,0l-0.3-2l-1.6-11l5.6,9.2L41,355.2z"/>
			<path class="st8" d="M37.8,359.5c0,0,0.7,2.1-0.9,4.3c-1.5,2.2-4.5,1.2-4.5,1.2l-1.5-2.6l-7.8-13.5l8.5,6.2L37.8,359.5z"/>
			<path class="st8" d="M34.9,378.1c1.4,2,0.7,3.7,0.7,3.7l-2.1,1.1l-0.5,0.3l-6.6,3.2l-6.7,3.3l7.4-8.6l2.5-2.9l1.4-1.6
				C30.8,376.5,33.5,376.1,34.9,378.1z"/>
			<path class="st8" d="M34.1,384.3l-9.2,5.3l1.3-3.3l6.6-3.2C34,383.7,34.1,384.3,34.1,384.3z"/>
			<path class="st8" d="M31.7,369.3v1.5l-3.4,2.1l-3.6-0.9L14,369.3l8.7-1.3l5.1-0.8l2.2-0.3C30,366.9,31.2,366.6,31.7,369.3z"/>
			<polygon class="st8" points="27,378.3 29.4,378.1 26.9,381 24.3,381 			"/>
			<path class="st8" d="M27.6,372.9c0,0,1.8,0.6,1.8,5.2l-2.4,0.2l-9.3,0.6l7.9-4.8L27.6,372.9z"/>
			<path class="st8" d="M36,357c0,0,0.1,0.9,2.8,0c2.7-0.9,2.2-1.8,2.2-1.8l-1.2-2l0.1,0l1.2-5.9l2.6,7.3l-2,4.6
				c0,0-0.7,3.1,3.5,3.8c4.1,0.8,4.5-2.4,4.5-2.4l-0.2-4.1c1-0.1,0.8-0.4,0.8-0.4l1.1,0.9c0,0,0,0.4,1.1,1.5c0,0-1.1,1.6,1.2,3.9
				s3.5,0.8,3.5,0.8s1.1,1.2,1.7,2.8c0.2,0.6,0.4,1.2,0.4,1.9l-8.4-2.2c0,0-3.8,0.3-3.2,5c0.7,4.7,4.5,4.1,4.5,4.1l5.8-2.1v0
				c0,0,1.2,1.1,1.2,1.1s0,2-1.2,3.7l-0.7-0.7c0,0-2.2-0.8-3.8,1.9c-1.6,2.6,0,3.9,0,3.9l1.1,0.5c0,0-0.6,0.7-1.4,1.3
				c-0.6,0.5-1.3,1.1-1.9,1.3c0,0,0.3-1.4-3.2-0.5l0.8-4.4c0,0-1.1-2.6-4.5-2.5c-3.5,0.1-3.8,2.8-3.8,2.8l1.5,5.5l-0.2,0
				c-0.2-0.6-0.8-1.2-2.1-1.7c-3.6-1.2-4.1,0.7-4.1,0.7s-1.5-1.1-2.3-2.6l2.1-1.1c0,0,0.8-1.7-0.7-3.7c-1.4-2-4.1-1.6-4.1-1.6
				l-1.4,1.6c0-4.6-1.8-5.2-1.8-5.2l-2,1.2l-2.8-0.4l1.9-1.7l3.6,0.9l10.3,3c0,0,5.4,0,4.6-4.8c-0.8-4.8-5.3-4.2-5.3-4.2l-6.2,3.9
				v-1.5c-0.5-2.7-1.8-2.4-1.8-2.4l-2.2,0.3l0-0.2c0,0,0-0.7,0.3-1.5c0.2-0.8,0.5-1.7,1.1-2.4l0.5,0.7c0,0,0.1,0.1,1.2-1.3l0.2-0.1
				l1.5,2.6c0,0,2.9,1,4.5-1.2c1.5-2.2,0.9-4.3,0.9-4.3l-6.1-4.5l-0.9-3.7l4.7,3.7l0.1,0L36,357z"/>
			<path class="st8" d="M28,365.5c-0.2,0.9-0.3,1.5-0.3,1.5l0,0.2l-5.1,0.8l-4.4-2.5H28z"/>
		</g>
		<g>
			<path class="st9" d="M31,362.3l-7.8-13.5l8.5,6.2l6.1,4.5c0,0,0.7,2.1-0.9,4.3c-1.5,2.2-4.5,1.2-4.5,1.2L31,362.3z"/>
			<path class="st9" d="M43.6,354.5l-2,4.6c0,0-0.7,3.1,3.5,3.8c4.1,0.8,4.5-2.4,4.5-2.4l-0.2-4.1L48.9,344l-0.1-1.6L43.6,354.5z"/>
			<path class="st9" d="M58.5,360.9l7-10.7l-8.1,5.1l-5,3.1c0,0-1.1,1.6,1.2,3.9s3.5,0.8,3.5,0.8L58.5,360.9z"/>
			<path class="st9" d="M39.8,353.2l-5.6-9.2l1.6,11l0.3,2c0,0,0.1,0.9,2.8,0c2.7-0.9,2.2-1.8,2.2-1.8L39.8,353.2z"/>
			<path class="st9" d="M31.7,370.8l6.2-3.9c0,0,4.6-0.6,5.3,4.2c0.8,4.8-4.6,4.8-4.6,4.8l-10.3-3L31.7,370.8z"/>
			<path class="st9" d="M59.2,367.7l-8.4-2.2c0,0-3.8,0.3-3.2,5c0.7,4.7,4.5,4.1,4.5,4.1l5.8-2.1l8.2-2.9L59.2,367.7"/>
			<path class="st9" d="M28.4,372.9l-3.6-0.9L14,369.3l8.7-1.3l5.1-0.8l2.2-0.3c0,0,1.2-0.3,1.8,2.4v1.5"/>
			<path class="st9" d="M26.6,356l-4.9-2l7.4,9l0.5,0.7c0,0,0.1,0.1,1.2-1.3"/>
			<polyline class="st9" points="31.7,355 30.8,351.3 35.6,355 			"/>
			<polyline class="st9" points="39.8,353.1 41.1,347.3 43.6,354.5 			"/>
			<path class="st9" d="M48.9,344l0.7-1.1l0.7,13.1c0,0,0.2,0.3-0.8,0.4"/>
			<path class="st9" d="M57.4,355.3l1.8-4.6l-7.8,6.2c0,0,0,0.4,1.1,1.5"/>
			<polyline class="st9" points="58.7,361 67.3,358.9 60.9,364.1 58.8,365.8 58.7,365.9 			"/>
			<polyline class="st9" points="60.9,364.1 60.9,364.1 64.2,364.1 60.8,366.6 59.2,367.7 59.2,367.7 			"/>
			<path class="st9" d="M60.8,366.6l13.7,2.3l-15.3,4.7c0,0-1.2-1.1-1.2-1.1"/>
			<path class="st9" d="M60.3,385.4l8.4,3.8l-8.6-9.6l-2.1-2.4l-0.7-0.7c0,0-2.2-0.8-3.8,1.9c-1.6,2.6,0,3.9,0,3.9l1.1,0.5
				L60.3,385.4z"/>
			<path class="st9" d="M42.1,386.4l3.5,12.4l1.5-8.3l1-5.6l0.8-4.4c0,0-1.1-2.6-4.5-2.5c-3.5,0.1-3.8,2.8-3.8,2.8L42.1,386.4z"/>
			<path class="st9" d="M26.9,381l-7.4,8.6l6.7-3.3l6.6-3.2l0.5-0.3l2.1-1.1c0,0,0.8-1.7-0.7-3.7c-1.4-2-4.1-1.6-4.1-1.6l-1.4,1.6
				L26.9,381z"/>
			<polyline class="st9" points="22.7,368 18.3,365.5 28,365.5 28.3,365.5 			"/>
			<path class="st9" d="M29.4,378.1l-2.4,0.2l-9.3,0.6l7.9-4.8l2-1.2C27.6,372.9,29.4,373.5,29.4,378.1z"/>
			<polyline class="st9" points="24.7,372 22.9,373.6 25.7,374.1 			"/>
			<polyline class="st9" points="27,378.3 24.3,381 26.9,381 			"/>
			<path class="st9" d="M32.9,383.1c1.2,0.6,1.2,1.2,1.2,1.2l-9.2,5.3l1.3-3.3"/>
			<path class="st9" d="M42,386.4c0.4,1-0.4,2-0.4,2l-6.8,10.9l1-14c0,0,0.5-1.9,4.1-0.7C41.2,385.2,41.8,385.8,42,386.4z"/>
			<path class="st9" d="M47.1,390.6l5.7,9.6l-1.5-14.6c0,0,0.3-1.4-3.2-0.5"/>
			<path class="st9" d="M35.8,385.4c0,0-1.5-1.1-2.3-2.6"/>
			<path class="st9" d="M27.7,367c0,0,0-0.7,0.3-1.5c0.2-0.8,0.5-1.7,1.1-2.4"/>
			<path class="st9" d="M41,355.2c0,0,2.1-0.5,2-0.2"/>
			<line class="st9" x1="50.3" y1="356" x2="51.4" y2="356.9"/>
			<path class="st9" d="M57.1,363.1c0,0,1.1,1.2,1.7,2.8c0.2,0.6,0.4,1.2,0.4,1.9v0"/>
			<path class="st9" d="M54.6,382.8c0,0-0.6,0.7-1.4,1.3c-0.6,0.5-1.3,1.1-1.9,1.3l3.9,2.9l-0.5-3"/>
			<path class="st9" d="M60.1,379.7l7.9,0.8l-8.8-6.9c0,0,0,2-1.2,3.7"/>
			<polyline class="st9" points="53.3,384.2 61.8,389.7 60.3,385.4 			"/>
		</g>
	</g>
</g>
</svg>
