<?xml version="1.0" encoding="utf-8"?>
<!-- Generator: Adobe Illustrator 19.0.0, SVG Export Plug-In . SVG Version: 6.00 Build 0)  -->
<svg version="1.1" id="Layer_1" xmlns="http://www.w3.org/2000/svg" xmlns:xlink="http://www.w3.org/1999/xlink" x="0px" y="0px"
	 viewBox="-79 123.2 339.5 255.8" style="enable-background:new -79 123.2 339.5 255.8;" xml:space="preserve">
<style type="text/css">
	.st0{stroke:#F4F4F4;stroke-width:4.9026;stroke-miterlimit:10;}
	.st1{fill:#020202;stroke:#F9F9F9;stroke-width:4.9026;stroke-miterlimit:10;}
	.st2{fill:none;stroke:#F9F9F9;stroke-width:4.9026;stroke-miterlimit:10;}
	.st3{fill:#070707;}
</style>
<circle id="XMLID_9_" class="st0" cx="59.6" cy="308.6" r="63.9"/>
<polygon id="XMLID_8_" class="st1" points="-24.3,287 -70.3,372.4 35.9,372.4 99.8,308.6 103.8,263.8 142,275.6 246.7,137.4 
	138.1,224.3 73.1,201.6 47.6,278.6 "/>
<line id="XMLID_7_" class="st2" x1="138.1" y1="224.3" x2="142" y2="275.6"/>
<polyline id="XMLID_6_" class="st1" points="-24.3,287 31.3,327.2 35.9,372.4 "/>
<line id="XMLID_5_" class="st2" x1="31.3" y1="327.2" x2="99.8" y2="308.6"/>
<g id="XMLID_1_">
	<g id="XMLID_18_">
		<polygon id="XMLID_2_" class="st3" points="92.2,240.2 103.8,263.8 99.8,308.6 47.6,278.6 31.3,327.2 -70.3,372.4 73.1,201.6 		
			"/>
	</g>
	<g id="XMLID_16_">
		<polygon id="XMLID_3_" class="st2" points="92.2,240.2 73.1,201.6 -70.3,372.4 31.3,327.2 47.6,278.6 99.8,308.6 103.8,263.8 		
			"/>
	</g>
</g>
</svg>
