<?xml version="1.0" encoding="utf-8"?>
<!-- Generator: Adobe Illustrator 19.0.0, SVG Export Plug-In . SVG Version: 6.00 Build 0)  -->
<svg version="1.1" id="Layer_1" xmlns="http://www.w3.org/2000/svg" xmlns:xlink="http://www.w3.org/1999/xlink" x="0px" y="0px"
	 viewBox="0 0 287.2 282.9" style="enable-background:new 0 0 287.2 282.9;" xml:space="preserve">
<style type="text/css">
	.st0{fill:#527520;stroke:#F49937;stroke-miterlimit:10;}
	.st1{fill:#74A03C;stroke:#F49937;stroke-miterlimit:10;}
	.st2{fill:#B9F96E;stroke:#F49937;stroke-miterlimit:10;}
	.st3{fill:#435E2E;stroke:#F7931E;stroke-miterlimit:10;}
</style>
<path id="XMLID_121_" class="st0" d="M161.1,164.1c10.3-8,39.5-42.6,37.9-55.4c-1.5-12.8-14.9-32.8-11.1-38.3
	c3.8-5.5-3.1-17.7-5.7-20c-2.7-2.3-20.7-7.7-21.1-13.4s-6.1-2.3-13.4,0c-7.3,2.3-12.6,25.7-16.5,26c-3.8,0.4-2.7,12.3-2.7,12.3
	s-5-23-11.1-21.1s0.6,31.4-12,31c-12.6-0.4-6.4,39.1-7.2,40.6s5,4.5,5.7,9.9c0.8,5.4,4.4,24.4,26.5,26.2
	C152.7,163.8,161.1,164.1,161.1,164.1z"/>
<path id="XMLID_118_" class="st1" d="M172.5,169.1c12.3-8.8,22.3-4.2,21.9-19.1c-0.4-14.9-18-18-16.5-25.7
	c1.5-7.7,0.7-19.9,5.5-21.5s13.2-8.8,5.6-16.9s-12.7-38.3-16.5-37.5c-3.8,0.8-10.7,3.4-17.2,3.8c-6.5,0.4-7.7,0.8-14.2,10
	c-6.5,9.2-8,11.5-11.1,19.9c-3.1,8.4-10.3,24.5-10,31c0.4,6.5-6.1,34.1-8.4,34.1s-14.2-2.7,2.7,8
	C131.2,166.1,172.5,169.1,172.5,169.1z"/>
<path id="XMLID_119_" class="st2" d="M143.7,201.1v-8v-14.5c0,0-32.4,16-41.7-15.1s-11.7-22-11.7-22l1.9-5.7c0,0,7.3-5.3,10.7,0
	c3.4,5.3,9.2,3.4,9.2,3.4s-12.1-7.8-10.7-13.1s-2.4-18,6.3-31.1s11.7-18.5,11.2-23.8c-0.5-5.3,10.7,19.9,14.6,20.4s6.8-1,7.3-4.9
	c0.5-3.9,0-7.3,5.3-1.5c5.3,5.8,5.8,14.6,5.8,14.6s-2.9,7.8,3.4,0s0-13.1,0-13.1l6.8,1.9c0,0,3.4,1.9,4.9,8.3
	c1.5,6.3,8.7,17,4.9,27.7s-3.9,10.7-3.9,10.7s5.3,2.4,9.7-3.9c4.4-6.3,3.4-10.7,2.9-12.1s4.9-1,4.9-1s6.8,1.9,6.3,11.2
	c-0.5,9.2-14.1,37.9-22.8,42.3s-15.5,6.6-17,6.6s-1.5,22.8-1.5,22.8H143.7z"/>
<path id="XMLID_122_" class="st0" d="M130.5,162c-13.8-5.3-15.2-11.4-12.9-13.3s2.3-5.6,1.9-7.2c-0.4-1.6,4.2-3,6.9,0
	c2.7,3,4.2,11.9,8.5,9.4c4.2-2.5,5.4-4.1,3.8,2.9c-1.5,6.9-2.5,12.6-5.4,10.4C130.5,162,130.5,162,130.5,162z"/>
<path id="XMLID_123_" class="st0" d="M163.1,162.4c5-4.8-0.7-8.3,0-12.2c0.7-3.8,14.2-11.5,4.5-10.6c-9.6,0.9,6.2-15.2-2.3-10.2
	c-8.5,5-11.2,9.8-11.9,12C152.7,143.7,163.1,162.4,163.1,162.4z"/>
<path id="XMLID_3_" class="st3" d="M116.1,135.8c0,0-2.3,5.9-14.5-7.3S88.7,104,90.3,99s3.5-13.5,4.1-23.9s5.8,16.2,11,15.9
	c5.2-0.3,7.3-0.6,10.6,2.4s13.7,10.4,9.4,24.4C121.3,131.8,116.1,135.8,116.1,135.8z"/>
</svg>
