<?xml version="1.0" encoding="utf-8"?>
<!-- Generator: Adobe Illustrator 19.0.0, SVG Export Plug-In . SVG Version: 6.00 Build 0)  -->
<svg version="1.1" id="Layer_1" xmlns="http://www.w3.org/2000/svg" xmlns:xlink="http://www.w3.org/1999/xlink" x="0px" y="0px"
	 viewBox="0 0 702.4 243.3" style="enable-background:new 0 0 702.4 243.3;" xml:space="preserve">
<style type="text/css">
	.st0{fill:#FFFFFF;}
</style>
<g>
	<path class="st0" d="M540.9,43.1c3.1-6.2,6.7-12.1,9.1-18.6c2.8-7.3,7-9.7,14.9-9.5c20,0.5,40,0.1,60-0.2c4-0.1,6.3,0.9,8.1,4.8
		c3.5,7.8,7.6,15.4,11.8,23.5c11.3-7.6,23.2-8,35.5-5.4c9.7,2.1,19,11.1,20.2,19.3c1.8,12.4-3.3,24-13.1,29.6c-1,0.6-2,1.2-3.1,1.6
		c-3.9,1.4-4.9,3.8-3.1,7.7c5,10.9,10,21.7,14.8,32.7c5.5,12.7,8.6,25.6,4.9,39.5c-4.9,18.4-15.5,31.9-33.5,38.7
		c-5,1.9-10.7,2-15.8,3.5c-2.4,0.7-5.3,2.2-6.4,4.3c-4.5,7.7-8.5,15.8-12.4,23.8c-1.7,3.4-3.7,4.9-7.7,4.9c-22.5-0.2-45-0.2-67.5,0
		c-3.2,0-4.8-1.1-6.1-3.9c-3.9-8.4-8.1-16.7-12-25.2c-1.4-3-3.3-3.9-6.5-4.2c-26.4-1.7-45-19.7-49.1-41.5
		c-2.2-11.8-1.5-24.1,4.3-35.6c5.6-11.1,10.2-22.7,15-34.2c3.1-7.4,2.8-7.8-4.1-11.3c-11.3-5.7-16.3-15-14.8-27.3
		c1.2-10,10.8-20.3,21.5-22.3C516.9,35.8,526.9,35.3,540.9,43.1z M619.1,193.9c1-0.1,1.3-0.2,1.6-0.1c1.5,0.6,3,1.3,4.6,1.9
		c12.6,5.4,25.8,6.2,38.4,1.6c19.8-7.3,35.6-34.4,23-58.6c-6.6-12.6-11.6-26-16.5-39.4c-4.5-12.1-2.8-15,9-20.3
		c5.4-2.4,11-10,10.8-14.6c-0.2-5.8-5.4-12.6-11.2-14.6c-19.4-6.6-41,8.9-41.4,29.3c-0.2,12.4,2.2,24.1,7,35.3
		c4.3,10,5.6,20.4,5.1,31.2c-0.4,6.9-6.1,12.9-12.9,13.6c-10.8,1-18.4-6.6-18.5-18.5c0-24.2-0.2-48.3,0.2-72.5
		c0.1-3.9,2.1-8.4,4.6-11.6c2.8-3.5,7.1-5.8,11-8.8c-2.8-5.5-5.8-11.2-8.4-17.1c-1.3-2.9-3.1-3.7-6.1-3.7c-14.5,0.1-29,0.8-43.5-0.2
		c-10.8-0.8-17.9,1.8-20.7,12.8c-0.4,1.4-1.2,2.8-2,4c-2.5,3.7-2,6,2.4,7.9c6,2.6,9.9,7.4,10,14.3c0.3,26.5,0.6,53,0.5,79.4
		c0,7.6-6.8,13.3-13.7,14c-10.2,1-17.5-8.4-16.6-16.3c1-9.5,2.8-19,5.1-28.2c2.8-11.5,7.6-22.5,7.4-34.8
		c-0.5-21.1-20.4-36.4-40.6-30.4c-5.7,1.7-10,5.4-11,11.6c-1.2,7.5,1.3,13,7.4,16.5c1.7,1,3.6,1.7,5.4,2.6c7.4,3.4,10.1,9.8,7,17.2
		c-5.8,13.9-11.8,27.8-17.8,41.7c-5,11.7-6,23.5-0.4,35.2c10.4,21.9,27,28,49.1,24.9c6.1-0.8,11.9-3.2,18.4-5
		c-1.3,8.8-7.4,13.1-14.8,17c3.5,6.8,6.7,13.4,10.3,19.9c0.5,0.9,2.5,1.5,3.8,1.5c18.5,0.1,37,0.1,55.5,0c1.3,0,3.3-0.5,3.8-1.5
		c3.5-6.5,6.7-13.1,10.1-19.8C627.1,207,620.2,203.2,619.1,193.9z M554.1,116.4c-0.4-0.2-0.8-0.4-1.2-0.6c-0.9,1-2.3,1.9-2.6,3.1
		c-1.2,3.9-2.5,7.9-2.8,12c-0.3,4.6,0.2,9.4,0.7,14c0.1,0.8,2.4,2,3.4,1.8c1-0.2,2.4-1.9,2.4-3C554.2,134.5,554.1,125.4,554.1,116.4
		z M632.3,116.9c-0.6,0.1-1.2,0.2-1.8,0.3c0,7.1-0.1,14.2,0,21.3c0,1.9,0.4,4,1.1,5.8c0.4,1,2,2.1,2.9,2c0.9-0.1,2.4-1.5,2.6-2.4
		C638.7,134.2,635.6,125.5,632.3,116.9z"/>
	<path class="st0" d="M0,199.8c4.5-2,8.5-3.8,12.6-5.5c4.4-1.8,6.6-5,6.6-9.6c0-36.7,0-73.3,0-110c0-5.1-2.4-8.9-7.3-10.8
		c-3.6-1.4-7.1-2.8-11.2-4.4c1.1-2.6,2.1-5.2,3.4-7.8c5-10.7,10.2-21.2,15.1-32c1.4-3,3-4.2,6.3-4.2c59.7,0.1,119.3,0.1,179,0
		c2.9,0,4.9,0.4,6.3,3.5c5.4,11.9,11,23.8,16.8,35.6c1.4,2.9,1.1,4.6-2,5.7c-1.9,0.7-3.7,1.6-5.5,2.3c-9.1,3.8-10.4,5.8-10.4,15.9
		c0,21.5,0,43,0.1,64.5c0,12.5,0,25,0,37.5c0,7.1,2.7,12.1,9.7,14.5c3.3,1.1,6.4,2.7,9.5,4c-6.3,13.3-12.5,26.3-18.6,39.4
		c-1.4,3.1-3.3,4.6-6.8,4.6c-22.2,0-44.3,0.2-66.5,0.2c-1.2,0-2.9-1.7-3.6-3.1c-5.4-10.9-10.5-21.9-15.7-32.8
		c-0.6-1.2-1.2-2.3-2.4-4.4c-1.6,2.4-2.9,4-3.8,5.8c-5,10-10,19.9-14.8,30c-1.6,3.4-3.8,4.5-7.4,4.5c-21.5-0.2-43-0.1-64.5-0.3
		c-1.7,0-4.4-0.8-5-2C13,227.5,6.7,213.8,0,199.8z M213.8,52.6c-3.4-7-7.1-13.9-10.2-21.1c-1.5-3.5-3.5-4.5-7.2-4.5
		c-26.5,0.2-53,0.2-79.5,0.2c-27.8,0-55.7,0-83.5-0.2c-3.4,0-5.5,0.9-6.9,4.3c-2.5,6.3-5.6,12.4-8.1,18.7c-0.5,1.3,0,4,1.1,4.7
		c9,6.3,12.8,15,12.9,25.6c0,32.8,0.1,65.7,0,98.5c0,10.9-3.7,20.1-13.3,26.5c-0.9,0.6-1.4,2.9-0.9,4c2.9,6.9,5.9,13.8,9.3,20.4
		c0.7,1.5,3.2,2.9,4.9,2.9c17,0.2,34,0.2,51,0c1.8,0,4.5-1.5,5.3-3.1c3.4-6.3,6.2-12.9,9.4-19.3c1.1-2.3,1.3-3.6-1.3-5.2
		c-7.8-4.8-11.9-11.8-11.9-21.1c0.1-29.7-0.1-59.3,0.2-89c0.1-12.9,9-21.7,22-22.5c4.7-0.3,9.3,0,14-0.3c17-1.3,25.6,13.1,25.5,25.6
		c-0.1,27.5,0.1,55-0.2,82.5c-0.1,4.6-1.2,9.8-3.5,13.8c-3,5.1-7.6,9.2-12,14.3c3.1,6.3,6.7,13.4,10,20.6c1.4,3,3.1,4.1,6.4,4
		c13.5-0.2,27.1-0.9,40.5,0.2c10.7,0.9,16.7-2.5,19.8-12.7c1.4-4.8,4.2-9.1,6.4-13.7c-11.8-6.5-16.1-15.9-16-28.4
		c0.4-33.8,0.2-67.6,0.1-101.5c0-6.1,2.2-11.4,6.3-15.8C207.1,58.1,210.3,55.7,213.8,52.6z M133.1,139
		C133.1,139,133.1,139,133.1,139c0-14.3,0-28.6,0-42.9c0-7.8-3.7-12.3-11.3-13c-4.9-0.5-9.9-0.4-14.8,0.1
		c-7.1,0.7-11.4,5.7-11.5,12.7c-0.1,28.1-0.1,56.2,0.2,84.4c0.1,4.8,0.9,10.2,6.1,12.9c6.9,3.7,13.6,6.7,21.9,2.3
		c7-3.7,9.5-6,9.5-13.9C133.2,167.3,133.1,153.1,133.1,139z"/>
	<path class="st0" d="M365.8,0c43,81.4,85.3,161.5,128.3,243c-86.1,0-170.9,0-256.6,0C279.9,162.7,322.5,82,365.8,0z M365.9,26.7
		c-36.4,69.2-72.2,137.2-108.3,205.8c72.7,0,144.1,0,216.6,0C438.1,163.8,402.3,95.9,365.9,26.7z"/>
	<path class="st0" d="M359.6,117.2c11.9,21.9,23.1,42.4,34.6,63.7c-23,0-45.1,0-68.3,0C337.2,159.7,348.1,139.1,359.6,117.2z
		 M358.9,141.8c-3.3,6.3-5.7,11.2-8.2,16c-6,11.6-6.9,11.8,6.9,11.7c5-0.1,10.1,0,16.2,0C368.5,159.8,364.1,151.5,358.9,141.8z"/>
</g>
</svg>
