<?xml version="1.0" encoding="utf-8"?>
<!-- Generator: Adobe Illustrator 19.0.0, SVG Export Plug-In . SVG Version: 6.00 Build 0)  -->
<svg version="1.1" id="Layer_1" xmlns:amcharts="http://amcharts.com/ammap"
	 xmlns="http://www.w3.org/2000/svg" xmlns:xlink="http://www.w3.org/1999/xlink" x="0px" y="0px"
	 viewBox="-138.7 -221.9 929.1 584.8" style="enable-background:new -138.7 -221.9 929.1 584.8;" xml:space="preserve">
<style type="text/css">
	.st0{fill:#320000;stroke:#D84E4E;stroke-width:0.5;}
	.st1{fill:#FFFFFF;}
	.st2{fill:#FFFFFF;stroke:#000000;stroke-width:0.25;stroke-miterlimit:10;}
	.st3{fill:#FFFFFF;stroke:#000000;stroke-width:0.25;}
</style>
<g>
	<path id="US-AL" class="st0" d="M525.9,139.5l0.8,2.8l0.8,2.8l0.8,2.8l0.8,2.8l0.8,2.8l0.8,2.8l0.8,2.8l0.8,2.8l0.8,2.8l0.8,2.8
		l0.8,2.8l0.8,2.8l0.8,2.8l0.8,2.8l0.8,2.8l0.8,2.8l0.6,1.2l0.6,2l3.4,5.9l1.1,2.5l-0.1,1.1l0.4,0.9l1,0.6l0,0.9l-1.1,1.1l-0.6,1.3
		l-0.3,2.2v0l-0.7,3.9l0.3,2.3l1.5,3l0,0l0.4,1.4l0,6.2l1,3.9l1.5,2.4l-6.2,0.8l-6.2,0.7l-6.2,0.7l-6.2,0.7l-6.2,0.7l-6.2,0.6
		l-6.2,0.6l-6.2,0.6l-0.1,1.6l0.3,1.5l0.8,1.4l3,2.5l0.3,0.6l-0.3,2.2l0.2,1.5l-0.2,0.8l-0.6,0.8l-0.1,0.8l-0.4,0.3l-1.9,2.5
		l-7.4,1.4l0.4-0.6l1.6-0.2l2.1-0.9l-0.6-1.2l-1-1.3l-0.8-0.1l-0.6-0.8l-0.2-2.5l-0.6-1.4l-1.3-1.4l-0.4,0.3l-0.7,2.6l-0.4,3.4
		l-0.3,1.1l-2.2,0.3l-2-0.1l-1,0.1l-0.6-4.6l-0.5-4.2l-0.5-4.2l-0.5-4.2l-0.5-4.2l-0.5-4.2L480,218l-0.5-4.2l0.1-4.2l0.1-4.1
		l0.1-4.1l0.1-4.1l0.1-4.1l0.1-4.1l0.1-4.1l0.1-4.1l0.1-4.1l0.1-4.1l0.1-4.1l0.1-4.1l0.1-4.1l0.1-4.1l0.1-4.1l0.1-4.1l0-1l0-0.4
		l0-0.5l-1.7-1.3l-0.3-0.3l-0.2-0.2l0.2,0l2.9-0.2l2.9-0.2l2.9-0.2l2.9-0.2l2.9-0.2l2.9-0.2l2.9-0.2l2.9-0.3l2.9-0.3l2.9-0.3
		l2.9-0.3l2.9-0.3l2.9-0.3l2.9-0.3l2.9-0.3L525.9,139.5z M490.6,249.7l-1.7,0.6l-2.5,0.2l-0.5-0.1l1-0.4l3-0.7L490.6,249.7z"/>
	<path id="US-AR" class="st0" d="M450,124.2l0,0.4l0.4,0.9l0,0.5l-0.2,0.3l-0.6,0.2l-0.4,0.2l-0.1,0.4l0,0.2l0.1,0.4l0.1,0.4
		l-0.3,0.5l-2,1.4l-0.8,1.6l0.4,1.9l-0.6,2l-1.7,2.1l-0.6,2.3l0.4,2.4l-0.8,2l-2,1.6l-0.6,1l0,0.1l0,0.7l0.2,0.5l-0.6,1.1l-1.7,1.2
		l-0.9,1.1l-0.1,1l-0.4,0.5l-0.8,0.3l-0.4,1.5l-0.2,3.5l-0.8,2l-1.5,0.6l-0.8,0.8l0,1.1l-0.8,1.3l-1.6,1.5l-0.5,1.4l0.7,1.2
		l-0.1,0.5l-0.5,0.5l-1.8,0.7l-0.3,0.3l-0.2,0.3l0.4,0.6l0.3,1l-0.2,1.7l-0.4,0.7l-0.4,0.7l-1.5,1.2l-0.4,0.9l0.7,0.6l0,0.7
		l-0.7,0.8l0.3,0.8l0.2,0.5l0.7,0.5l0.3,1.4l-0.4,1.8l0.2,1.4l0.9,1.1l0.2,0.5l-0.7,4l0.1,0.6l-3.7,0.2l-3.4,0.2l-3.4,0.2l-3.4,0.2
		l-3.4,0.1l-3.4,0.1l-3.4,0.1l-3.4,0.1l-3.4,0.1l-3.4,0.1l-3.4,0.1l-3.4,0.1l-3.4,0.1l-3.4,0.1l-3.4,0.1l-3.4,0.1l-0.1-3l-0.1-3
		l-0.1-3l-0.1-3l-1-0.5l-1.7-0.2l-0.9,0.2l-1.1-0.1l-0.7,0.5l-0.5,0.1l-0.4-0.1l-0.2-0.4l-0.8-0.3l-1-1.1l0-2.4l0-2.4l0-2.4l0-2.4
		l0-2.4l0-2.4l0-2.4l0-2.4l0-2.4l0-2.4l0-2.4l0-2.4l0-2.4l0-2.4l0-2.4l0-2.4l-0.5-3.1l-0.5-3.1l-0.5-3.1l-0.5-3.1l-0.5-3.1L362,123
		l-0.4-3.1l-0.5-3.1l5-0.1l5-0.1l5-0.1l5-0.1l5-0.1l5-0.2l5-0.2l5-0.2l5-0.2l5-0.2l5-0.2l5-0.2l5-0.3l5-0.3l5-0.3l5-0.3l0.9,1.7
		l0.8,1.1l0.2,0.8l-0.1,0.9l-1.2,1.9l-1.2,0.9l-0.6,0.9l-0.9,0.9l-1.3,2.5l3-0.2l3-0.2l3-0.2L450,124.2z"/>
	<path id="US-AZ" class="st0" d="M104.5,89.2l-1.1,7.8l-1.1,7.8l-1.1,7.8l-1.1,7.8l-1.1,7.8l-1.1,7.8l-1.1,7.8l-1.1,7.8l-1.1,7.8
		l-1.1,7.8l-1.1,7.8l-1.1,7.8l-1.1,7.8l-1.1,7.8l-1.1,7.9l-1.1,7.9l-4.3-0.6l-6.7-1l-6.7-1l-6.7-1l-6.7-1.1l-6.7-1.1l-8.4-4.8
		l-8.4-4.8l-8.3-4.9l-8.3-4.9l-8.3-5l-8.2-5l-8.2-5l-8.1-5.1l1.1-1.1l1.9-3l0.1-0.2l0,0l2.6,0.3l1.4-0.6l1-1.4l0.5-1.5l-0.1-1.6
		l-0.9-1.4l-1.6-1.1l-0.6-2.4l0.5-3.6l0.7-1.8l1-0.1l1.1-0.7l1.2-1.3l0.9-1.4l0.8-1.6l0.5-2.1l0.3-2.6l2.3-2.9l2-1.6l3.5-1.8
		l0.8-0.6l0.1-0.6l0-0.1l-0.5-1l-2.4-2.2l-0.9-1.5l0.1-1.1l0,0l-0.1-1.1l-1.9-5.1l-0.5-2.7l0.4-1.8l0-0.1l1.9-7.7l-0.5-2.9l0.1-1.6
		l0.7-1.8l0.1-1.2l-0.3-1.1l0.3-1.9l0.4-2.3L0,93.7L0,93l0.8-1.5l1-0.6l1.5-0.3l1.6,0.1l1.7,0.5l1.2,1l0.6,1.4l0.7,0.8l0.9,0.2
		l1.3-0.8l1.5-1.9l0.4-0.1l1.9-9.4l1.7-8.5l5.5,1.1l5.5,1.1l5.5,1l5.5,1l5.5,1l5.5,1l5.5,1l5.5,1l5.5,0.9l5.5,0.9L77,85l5.5,0.9
		l5.5,0.9l5.5,0.9l5.5,0.8L104.5,89.2z"/>
	<path id="US-CA" class="st0" d="M-57.7-57.6l-1.1,4l-1.1,4l-1.1,4l-1.1,4l-1.1,4l-1.1,4l-1.1,4l-1.1,4l-1.1,4l-1.1,4l-1.1,4l-1.1,4
		l-1.1,4l-1.1,4l-1.1,4l-1.1,4l3,4.6l3,4.6l3,4.6l3,4.5l3.1,4.5l3.1,4.5l3.1,4.5l3.1,4.5l2.4,3.8l2.4,3.8l2.4,3.8l2.5,3.7l2.5,3.7
		l2.5,3.7l2.5,3.7l2.5,3.7l3.5,5.3l3.5,5.3l3.5,5.3l3.5,5.3l3.6,5.3l3.6,5.3l3.6,5.3l3.9,5.6l-0.4,1.8l0.5,2.7l2,5.1l0.1,1.1l0,0
		l-0.1,1.1l0.9,1.5l2.4,2.2l0.4,1l0,0.1L3.2,133l-0.8,0.6l-3.5,1.8l-2,1.6l-2.3,2.9l-0.3,2.7l-0.5,2.1l-0.8,1.6l-1,1.4l-1.1,1.3
		l-1.1,0.7l-1,0.1l-0.7,1.8l-0.5,3.6l0.6,2.4l1.6,1.1l0.9,1.4l0.1,1.6l-0.5,1.5l-1,1.4l-1.4,0.6l-2.6-0.3l0,0l-0.1,0.2l-2.2-0.2
		l-5.4-0.6l-5.4-0.7l-5.4-0.7l-5.4-0.7l-5.4-0.7l-5.4-0.7l-5.4-0.8l-5.4-0.8l0-0.1l0.4-2.4l-0.6-1l-1.2,0.3l0.2-3.2l0.6-1.4l0.2-1.5
		l-0.2-3.7l-1.7-4.9l-4.6-6.7l-2.5-2.5l-1.8-2.8l-1.3-1l-1.8-0.6l-0.8,0.9l-1.9-1.2l0.9-2.4l-1.2-4l-1.6-0.8l-4.2-0.8l-5.1-3.3
		l-1.4-1.5l0-2.2l-2.1-2.4l-3-2.6l-2-0.1l-2.4-0.9l-3.2-2.2l-2-0.7l-4.1-0.7l-1.4-0.7l-1-1.9l-1.3-1.2l0.9-1.8l0.3-1.8l0.6-1.3
		l0.1-3.1l1.3-2.6l-0.2-1.1l-0.6-1l-2.3-1.9l-0.1-1.5l1-1.8l-0.3-1.5l-1.8-1.8l-1.2-3.3l-2.1-2.2l-0.3-2.8l-1.1-2l-0.1-1.5l-2.1-5.8
		L-123,55l0.1-2.3l0.7-3l2-1.4l1.2-1.4l0.4-1.5l0.1-1.1l-0.7-2.2l-4.5-2.5l-2.6-5.9l0.8-3.6l-0.5-4.1l0.7-2.4l0.5-2.6l1.3-0.2l1,0.5
		l-0.4,1l-0.2,1.9l0.8,1.7l1,0.9l0.7,1.6l0.7,0.6l0.8,0.3l-0.2-1l-0.3-0.7l0-1.9l-0.4-2.6l-0.9-1.6l0-2.4l-0.4-0.7l-0.1-0.9l1.5-0.6
		l1.9-0.2l2.2,0.5l6.1,2.2l1.5-0.2l1,0.5l0.8,0.2l-1.5-1.1l-1-0.1l-1.1-0.4l-2.3-0.5l-0.8-0.5l-0.8-1l-0.6-0.3l-2.4,0.6l-0.9-0.4
		l-1.8-2l-0.9-0.5l-1.8,0.3l-1.2,3.2l-0.3,2.6l-1,0l-0.8-1.3l-1.5-1.1l-1.1-1.3l-1.4-2.3l-0.8-0.9l-1.6,1.1l0.2-0.7l1.1-1.5l0.7-2.8
		l1,2.7l0-1.7l-0.8-2.1l-0.8-0.9l-0.3-3.4l-2.2-2.7l-1.3-3.7l-3-6.4l1-4.4l0.1-6l1.7-2.9l0.6-2.2l0.2-3.6l-0.3-2.1l-2.1-6.1
		l-2.4-4.5l0.3-2.7l0.6-2.6l1.5-2l1.4-2.2l0.7-0.5l0.1,0.3l-0.3,0.5l0.4,0.3l0.5-1l0.5-0.4l-0.5-0.2l0.2-0.3l0.5-0.6l2.1-2.8l1.1-4
		l2.7-4.5l0.5-1.6l0.4-3.7l-0.1-2.3l-0.8-1.9l1.2-1.9l0.6-2.1l-0.1-0.4l4.3,1.4l4.2,1.3l4.2,1.3l4.2,1.3l4.2,1.3l4.2,1.3l4.2,1.3
		l4.2,1.2l4.2,1.2l4.2,1.2l4.2,1.2l4.2,1.2l4.2,1.2l4.2,1.2l4.2,1.2L-57.7-57.6z M-101.6,113l3.4,2.1h2.1l0.2,0.6l-0.4,0.4l-4.7-0.4
		l-1.2-1l0.1-0.8l-0.2-0.9L-101.6,113z M-109.5,112.2l-1-0.2l-1.4-0.6l0.6-0.4l0.9-0.1l0.2,0.3L-109.5,112.2z M-105.4,115.7l-1.3,0
		l-0.9-0.5l-1-2.5l3.3,0.6l1.1,1.3l0.1,0.3L-105.4,115.7z M-77.8,135.2l0.5,1.8l-1.3-0.5l-1.4-0.3l-0.2-1l-0.1-1.3l-0.2-0.4
		l-0.9-0.4l0-0.1l0-0.6l0.3-0.2l2.6,2.1L-77.8,135.2z M-98.5,133.8l-0.8-0.2l-1.1-0.5l-0.3-1.3l0.9,0.2l0.8,0.4l0.4,1.1L-98.5,133.8
		z M-80.9,147.3l-1.1-0.1l-1.1-0.7l-0.5-2.4l-0.7-1.9l0.7-0.3l0.5,1.8l1.7,3L-80.9,147.3z"/>
	<path id="US-CO" class="st0" d="M233.4,35.8l-0.3,4.2l-0.3,4.2l-0.3,4.2l-0.3,4.2l-0.3,4.2l-0.3,4.2l-0.3,4.2l-0.3,4.2l-0.3,4.2
		l-0.3,4.2l-0.3,4.2l-0.3,4.2l-0.3,4.2l-0.3,4.2l-0.3,4.2l-0.3,4.2l-4.4-0.3l-4.4-0.3l-4.4-0.3l-4.4-0.3l-6.7-0.5l-6.7-0.6l-6.7-0.6
		l-6.7-0.6l-6.7-0.7l-6.7-0.7l-6.7-0.7l-6.7-0.7l-6.7-0.8l-6.7-0.8l-6.7-0.8l-6.7-0.8l-6.7-0.9l-6.7-0.9l-6.7-0.9l-6.7-0.9l0.8-5.5
		l0.8-5.5l0.8-5.5l0.8-5.5l0.8-5.5l0.8-5.5l0.8-5.5l0.8-5.5l0.8-5.5l0.8-5.5l0.8-5.5l0.8-5.5l0.8-5.5l0.8-5.5l0.8-5.5l0.8-5.5
		l5.2,0.8l5.2,0.7l5.2,0.7l5.2,0.7l5.2,0.7l5.2,0.7l5.2,0.6l5.3,0.6l5.3,0.6l5.3,0.6l5.3,0.6l5.3,0.5l5.3,0.5l5.3,0.5l5.3,0.5
		l5.3,0.5l4.2,0.4l4.2,0.4l4.2,0.4l4.2,0.3l4.2,0.3l4.2,0.3l4.2,0.3l4.2,0.3l-0.2,2.8l-0.2,2.8l-0.2,2.8l-0.2,2.8l-0.2,2.8l-0.2,2.8
		l-0.2,2.8L233.4,35.8z"/>
	<path id="US-CT" class="st0" d="M733.3-58.7l0.3,1.2l0.5,1.6l0.3,1.2l0.5,1.6l0.5,1.8l0.5,1.7l0.4,1.5l0.2,0.9l0.3,1.4l-0.3,0.6
		l0.1,1.3l-1.5,0.3l-2.2,1l-2.9,1.6l-1.8,0l-1.6,1.2l-5.9,1.8l-1.4-0.1l-1.2,1.9l-2.3,1.5l-5.7,5l-0.6,0.8l-1.2-1.1l-0.9-0.9
		l1.1-1.2l0.8-0.9l0.8-0.8l0.5-0.5l-0.7-0.7l-0.7-0.7l-0.4-2.1l-0.4-2.1l-0.4-2.1l-0.4-2.1l-0.4-2.1l-0.4-2.1l-0.4-2.1l-0.4-2.1
		l1.4-0.3l1.4-0.3l1.4-0.3l1.4-0.3L713-54l1.4-0.3l1.4-0.3l1.4-0.3l0.2,0.6l0.7-0.2l0-0.5l1.9-0.5l1.9-0.5l1.9-0.5l1.9-0.5l1.9-0.5
		l1.9-0.5l1.9-0.5l1.9-0.5L733.3-58.7z"/>
	<path id="US-DC" class="st0" d="M663.3,29.7l-0.5-0.5l-0.9-0.3l-0.4-0.1l1.1-1.8l1.2,1.1l1.3,1.2l-1.1,2.1L663.3,29.7z"/>
	<path id="US-DE" class="st0" d="M686,3.6l-0.5,0.9L685.1,6l-1,2l0.4,1.1l0.4,0.7l0.3,1.7l1.3,1.4l2.4,2.2l1.3,4l2,2.4l2.9,2.7
		l1.8,0.5l0.4,1.2l-0.3,2.1l-0.8,1.1l1.3-0.5l0.8,0.3l1,1.5l0.2,1l-1.8,0.4l-3.8,0.9l-3.8,0.9l-1.7,0.4l0,0l0,0l0,0h0l0,0l0,0l0,0
		l0,0l-0.9-3.4l-0.9-3.4l-0.9-3.4l-0.9-3.4l-0.9-3.4l-0.9-3.4l-0.9-3.4L680.4,7l0.9-2l0.4-0.7l0.6-0.4l2.1-0.6L686,3.6z"/>
	<path id="US-FL" class="st0" d="M615.8,223.4l1.2,1.9l2.7,8l1.4,2.7l2.9,7.4l4,7l5.5,8.4l8.4,9.9l1.1,1.4l-0.6,1.5l0,1.4l0.3,2.1
		l0.6,2l1.2,2.3l2.2,3.5l-1-0.6l-3.1-5l-0.8-3.1l-0.5-4.6l-0.5,0.2l-0.2,1.5l0.1,1.8l-0.4,0.8l-1.2-2.5L639,270l0.6-1.5l-0.3-0.5
		l-1.4-0.5l-0.5-1.1l0-1.1l-0.8-0.5l-0.6,0.1l0.8,2.6l0.9,1.6l1.4,3.9l1.6,2.2l1.1,1.9l12.2,20.2l2.5,2.4l1.1,1.9l1.5,4l1.1,5.3
		l0.3,10l0.9,6.7l-0.2-0.2l-0.3-0.7l-0.3,0l-0.7,3.3l-1.2,3l0.2,4.4l-0.4,2.3l-2,2.7l-1.5,0.2l-3.4,2.3l-2.7,0l-2.9,1.5l-2,0.2
		l-1.5-1.8l0-0.9l0.3-1l0.8-0.3l3.1,1.7l0.4-1l-1-0.9l-1.7-0.3l-1.3-0.5l-3.1-4.5l-2.9-2.9l-0.8-2.2l-4.3-0.7l-3.3-1.6l-2.5-3.3
		l-2.1-6.3l-1.4-0.5l-0.6-0.4l0.9-2.6l1-2.2l-1,0.7l-0.7,0.9l-0.7,1.9l-0.7,0.4l-0.7-0.2l-1.3-3.3l-0.4-4.2l0.8-1.7l-1.7,0.2
		l-1.6,0.9l0.5,1.4l-0.1,0.8l-1.3,0l-1-0.3l-1.5-1.3l-2.2-2.5l-4.7-7.1l-0.9-1l-1.3-1l0.5-0.4l1-0.4l1.8-3.8l1.5-2.3l0.4-1.5
		l-0.2-0.6l-0.9-0.8l-0.9,0.9l-0.5-0.2l-1.4-1.6l-1.2-0.3l-0.7,0.5l1,1.3l0.8,0.4l0,2.2l-0.2,0.7l-0.6,0.7l-1.1-0.2l-0.5,0.6
		l-0.7-0.5l-0.8-0.8l-0.9-1.5l0.6-9l0.9-5.8l-0.7-6.4l0-1l-0.4-1.7l-2.8-3.3l-11.5-7.5l-9.3-9.5l-7.3-3l-5,1.5l-0.8,0.9l-0.2,1.1
		l0.5,1.1l-0.4,0.5l-1.4,0.1l-1.8,0.5l-4.5,3.4l-1.7,0.1l-1.5,0.9l-1.1,0.7l-3,0.7l-2.5,0.9l-1.2-0.2l-0.9-1.5l-0.2-1.7l0.7,1.2
		l1,0.9l0.4-0.5l0-0.9l-1.1-1.6l-3.2-1.9l-3.7-2.9l1,0l0.2-0.7l-1.1-0.8l0.3-1.1l0.6-1.2l-1.4,0.3l-1.2,0.9l0.1,1l-0.2,0.8l-0.7,0
		l-1.4-0.8l-6.5-2l-5.6-0.9l4.1-1.1l2.3,0.3l-0.4-0.8l-0.6-0.5l-1.8-0.5l-2.2,0.5l-1.5-0.1l-1.4,0.8l-1.5,1.1l-1.4,0.6l-5.5,1.2
		l-4.5,1.2l0.7-0.9l0.7-0.6l2.6-1l0.2-1.6l-0.8-1.5l-0.7,0.4l-0.6,1.3l-1-0.8l-1,0.1l-0.1,1.9l-1.2,1.4l-0.5,1.3l-3.7,1.4l-0.5-0.3
		l1-1.3l-0.2-0.7l-0.8,0.4l0.1-0.8l0.6-0.8l0.2-0.8l-0.2-1.5l0.3-2.2l-0.3-0.6l-3-2.5l-0.8-1.4l-0.3-1.5l0.1-1.6l6.2-0.6l6.2-0.6
		l6.2-0.6l6.2-0.7l6.2-0.7l6.2-0.7l6.2-0.7l6.2-0.8l1,1.7l2,3.5l0.2,0.8l1.8-0.1l3.1-0.2l3.1-0.2l3.1-0.2l3.1-0.2l3.1-0.2l3.1-0.2
		l3.1-0.2l3.1-0.2l3.1-0.2l3.1-0.2l3.1-0.2l3.1-0.2l3.1-0.2l3.1-0.2l3.1-0.2l3.1-0.3l0.1,0.7l0.7,1.1l0.3,1.3l0.3,0.6l0.7,0.3l1,0
		l0.9-0.9l0.4-1.7l-0.1-1.8l-0.7-2l-0.2-1.8l0.3-1.1l0.5-0.3l0.4-0.6l0.4-0.2l1.1,0.1l4.2,0.8L615.8,223.4z M553.6,256.9l-1.9,1
		l-2.2-0.3l1.3-0.3l1,0.1l2.3-1.4l1.2-1l1.4-0.5L553.6,256.9z M654.5,295.7l0.6,1.6l-2.5-3.5l-3.3-5.6l-2-4.4l1,1.1l1.2,2.4
		L654.5,295.7z M619.1,318.2l0.2,1.3l-1.4-2l-1.1-2.3l1.1,0.6L619.1,318.2z M620.4,320.3l-0.6,0.7l-1.5-0.2l-0.9-0.7l-0.6-1.5
		l1.5,1.4l0.5,0.3L620.4,320.3z M658.9,344.2l-3.3,4.9l0.3-1.1l1.2-2.5l0.3-1.2l0.9-0.9l0.8-1.4l-0.2-1.4l1.3-1.2l0.4-0.2
		L658.9,344.2z M654.6,350.5l-0.5,0.2l0.7-1.1l0.2,0L654.6,350.5z M651,353.4l-0.4,0.1l0.1-0.3l0.7-0.8l0.3,0.2l0,0.3L651,353.4z
		 M646.9,356.1l-0.8,0.7l-1-0.2l1-0.7l3.1-1.1l-1.1,0.9L646.9,356.1z M641.2,358.6l-0.5,0.6l-0.3-0.1l-0.1-0.7l-1.1-1.3l0-0.4
		l2.2,1.1l0.1,0.4L641.2,358.6z M636.6,360.5l-1.3,0.4l0.9-1.1l0.1-1.4l0.8,1l0.1,0.6L636.6,360.5z M632.3,362.5l-0.5,0.1l-0.1-0.3
		l0.8-0.6l0.6-0.1l0.1,0.5L632.3,362.5z"/>
	<path id="US-GA" class="st0" d="M623.1,192.7l-0.7,2l-2.1,1.5l-0.7,0.1l-0.5,0.4l0.5,0.8l0.7,0.5l0.1,0.6l-0.5,0.9l-1.2,0.4l-0.5,1
		l0.3,0.8l0.5,0.4l0.1,0.8l-1.2,1l-0.2,0.8l0.7,0.1l0.5-0.3l0.4,0.1l-0.6,1.4L618,207l-0.5,1.5l-1.6,0.7l0.1,0.5l1,0.3l0.9,1
		l-1.1,2.3l-0.9,0l-0.6-0.4l-0.1,1.7l0.3,0.8l-0.1,1.8l-0.2,2.2l-0.2,0.9l0.3,1.6l0.5,1.5l-3.3,0.3l-4.2-0.8l-1.1-0.1l-0.4,0.2
		l-0.4,0.6l-0.5,0.3l-0.3,1.1l0.2,1.8l0.7,2l0.1,1.8l-0.4,1.7l-0.9,0.9l-1,0l-0.7-0.3l-0.3-0.6l-0.3-1.3l-0.7-1.1l-0.1-0.7l-3.1,0.3
		l-3.1,0.2l-3.1,0.2l-3.1,0.2l-3.1,0.2l-3.1,0.2l-3.1,0.2l-3.1,0.2l-3.1,0.2l-3.1,0.2l-3.1,0.2l-3.1,0.2l-3.1,0.2l-3.1,0.2l-3.1,0.2
		l-3.1,0.2l-1.8,0.1l-0.2-0.8l-2-3.5l-1-1.7l-1.5-2.4l-1-3.9l0-6.2l-0.4-1.4l0,0l-1.5-3l-0.3-2.3l0.7-3.9v0l0.3-2.2l0.6-1.3l1.1-1.1
		l0-0.9l-1-0.6l-0.4-0.9l0.1-1.1l-1.1-2.5l-3.4-5.9l-0.6-2l-0.6-1.2l-0.8-2.8l-0.8-2.8l-0.8-2.8l-0.8-2.8l-0.8-2.8l-0.8-2.8
		l-0.8-2.8l-0.8-2.8l-0.8-2.8l-0.8-2.8l-0.8-2.8l-0.8-2.8l-0.8-2.8l-0.8-2.8l-0.8-2.8l-0.8-2.8l5.9-0.6l5.9-0.6l5.9-0.7l5.9-0.7
		l5.5-0.8l5.5-0.8l5.5-0.8l5.5-0.9l-0.1,0l-0.7,1.6l-2.3,3.2l-0.4,2.2l3.8,1.9l0,0l2.3,1.6l1.5,0.6l1.5,0l1,0.5l0.8,1.5l0,0l5.3,7.1
		l0,0l5,3.3l2,1.7l1.2,1.8l4.2,2.5l1.5,1.5l0.3,1.2l0.6,0.8l0.9,0.4l1,1l1,1.6l1.7,1.3l2.4,0.9l2.1,2.7l1.8,4.4l1.5,2.5l1.8,0.8
		l2.9,3.5l1.1,2.2l0.3,2l1.4,1.4L623.1,192.7z M616.6,217.8l0,5.5l-0.7-1.9l-0.3-1.9l0.5-1.2L616.6,217.8z"/>
	<path id="US-IA" class="st0" d="M424.4-19.3l1.1,1.5l1.8,1.3l1.1,1.2l0.3,1.2l1.1,1.2l2,1.2l1.2,1.1l0.4,1l0.1,1.6l-0.3,2.2
		l-0.6,1.6l-0.9,1L431-1.7L430.6,0l-1.4,1.7l-2.4,1.6L424,4.5L421,5.2l-1.8,1.3l-0.5,2l0.3,1.6l1.2,1.3l0.7,1.4l0.2,1.5l-0.6,2.5
		l-1.5,3.5l-1.8,2.3l-2,1.1l-0.9,1.5l0.3,2l-0.1,1.1l-0.9,0.4l-1.5-1.1l-0.3-0.8l-1.2-0.8l-0.2-0.5l-1-0.4l-0.9-1.6l-4.3,0.2
		l-4.3,0.2l-4.3,0.2l-4.3,0.2l-4.3,0.2l-4.3,0.2l-4.3,0.2l-4.3,0.1l-4.3,0.1l-4.3,0.1l-4.3,0.1l-4.3,0.1l-4.3,0.1l-4.3,0.1l-4.3,0.1
		l-4.2,0l-1-1.6l-0.6-1.5l0.3-0.7l0.1-2.5l-0.2-4.2l-0.4-2.4l-0.6-0.5l-0.1-0.7l0.5-0.9l-0.1-0.6l-0.7-0.3l-0.2-0.8l0.3-1.3
		l-0.2-0.8l-0.6-0.3L336.3,6l0.1-0.6L336.1,5l-0.8-0.2L335,3.4l0.2-2.7l-0.3-1.9l-0.7-1.1l-0.4-1.1l0-1l-0.8-1.6l-1.5-2.1l-1-2.8
		l-0.4-3.5l-1.1-2l-0.5-0.1l-0.4-1.8l-0.5-0.8l-0.1-0.6l-1.4-1.6l-0.1-0.6l0.2-0.8l0.9-1.5l0.8-2.5l0.2-1.6l0.7-1.2l0-0.7l-0.1-0.9
		l-0.4-0.8l-1.1-0.6l-0.1-0.2l-0.1-0.9l0.5-0.6l0.1-0.6l-0.1-0.8l-0.6-1.4l-0.3-1.4l2.4-0.1l5.3,0h5.3l5.3,0l5.3,0l5.3-0.1l5.3-0.1
		l5.3-0.1l5.3-0.1l5.3-0.1l5.3-0.1l5.3-0.2l5.3-0.2l5.3-0.2l5.3-0.2l5.3-0.2l5.4-0.3l0.2,1.4l0.4,1l0.7,0.8l1,0.6l0.2,1.2l-0.6,1.8
		l-0.1,2.2l0.4,2.6l0.6,2.3l0.9,2l1.9,1.4l2.9,0.8l1.8,1.4l0.6,2L424.4-19.3z"/>
	<path id="US-ID" class="st0" d="M96.6-80.9l-0.6,3.4L95.5-74l-0.6,3.4l-0.6,3.4l-0.6,3.4l-0.6,3.4l-0.6,3.4l-0.6,3.4l-0.6,3.4
		l-0.6,3.4l-0.6,3.4l-0.6,3.4l-0.6,3.4l-0.6,3.4l-0.6,3.4l-0.6,3.4l-3.1-0.5L81.4-27l-3.1-0.5L75.2-28l-3.1-0.6l-3.1-0.5l-3-0.6
		L63-30.2l-3-0.6l-3.1-0.6l-3-0.6l-3.1-0.6l-3-0.6l-3-0.6l-3.1-0.6l-3-0.6l-6-1.2l-6-1.2l-6-1.3l-6-1.3l-6-1.3l-6-1.3l-6-1.4l-6-1.4
		l1.1-4.8l1.1-4.8l1.1-4.8l1.1-4.8l1.1-4.9l1.1-4.8l1.1-4.9l1.2-5.3l0-0.1l1.8-3.1l0.6-1.5l0-1l0.4-0.8L3-91.9l0.2-0.9l-0.4-1.1
		l-1-0.9l-1.7-0.7L-0.5-97l0.4-2l2-2.8l3.6-3.6l2.1-2.6l0.6-1.7l2.5-3.6l4.4-5.6l2-3.8l-0.3-1.9l-1.1-2l-1.9-2.1l-1.2-2.2l-0.2-1.1
		l-0.2-1.3l0.1-1.6l0.6-0.8l0-1.6l-0.5-2.4l-0.1-1.6l0.2-0.5l0.2-0.2l0.8-3.5l0.8-3.5l0.8-3.5l0.8-3.5l0.8-3.5l0.8-3.5l0.8-3.5
		l0.8-3.5l0.8-3.5l0.8-3.5l0.8-3.5l0.8-3.5l0.8-3.5l0.8-3.5l0.8-3.5l0.8-3.5l4.7,1.1l6.2,1.4l3.5,0.8l-1.2,5.4l-1.2,5.4l-1.2,5.4
		l-1.2,5.4l1.1,2.6l0.9,1.6l0.4,1.6l0.8,1.8l0.1,0.6l0,1.7l-0.6,1.1l0.4,1.3l-0.2,0.6l-0.5,0.2l-0.1,0.1l0,0.1l0.1,0.2l1.4,1.5
		l1.3,2l1.8,1.6l0.5,0.8l2,3.8l1,2.3l1.2,1.8l0.4,1.9l1.2,1.8l0.2,0.8l0.1,0.2l0.2,0.1l1-0.2l0.2,0.1l0.3,0.7l-0.1,0.9l0.3,0.4
		l0.5,0.3l0.6,0.2l2.2,0l0.5,0.1l0.2,0.2v0.5l-0.2,0.8l-0.4,1.1l-0.9,1l-0.1,1.1l-1,2.3l-0.8,1.5l-0.4,1.6l-0.8,0.8l0.1,1.1
		l-0.6,1.6l0.1,0.5l0.6,0.9l-0.1,2.1l-0.2,0.3l-1.5,0.5l-0.6,0.4l-0.3,0.7l0.1,2.2l-0.8,1l-0.3,1l0.1,0.3l1.1,0.8l1.3,1.5l0.4,0.3
		l0.3,0l0.7-0.3l0.9-0.7l1.6-0.5l2-1.4l0.2-0.5l0.2-0.2l0.2,0.1l0.5,0.3l0.9,1.3l0.8,0.8l0.1,0.2l0,0.3l-0.2,1l0.4,0.9l-0.1,1.4
		l0.3,1.5l0.1,1.7l1,2.4l0.5,1.7l0.7,0.8l0.4,0.9l0.2,1l0,0.8l-0.8,1.3l0,0.6l0.3,0.7l1.2,1.7l0.3,0.2l1.4,0.1l0.7,0.4l0.6,0.9
		l0.5,1.2l0.3,1.2l-0.1,1.3l0.5,1.6l-0.1,1.3l0.4,0.7l0.8,0.9l0.8,0.6l0.4,0.1l0.3-0.1l0.2-0.7l0.5-0.5l1.3-0.6l1.1,0.2l3.9,1.4
		l0.3,0l0.2-0.2l0.9-1.1l0.6-0.4l0.9,0l2.4,0.7l2.9,0.3l1.4,0.6l2.2-0.1l2.5,0.8l0.4-0.1l0.1-0.2l-0.1-0.5l0.1-0.9l0.7-1l0.3-0.8
		l0.6-0.4l0.7-0.2l0.5,0.1l0.5,0.6l0.5,0.9l0.7,2.3l0.4,0.9l0.6,0.8L96.6-80.9z"/>
	<path id="US-IL" class="st0" d="M471.1-22.4l0.3,3.5l0.5,2.8l0.6,1.2l0.7,0.9l0.7,0.5l0.9,1.8l1.1,3.1l0.9,2l0.7,0.8l0.5,5.9
		l0.6,6.6l0.6,6.6l0.6,6.6l0.6,6.6l0.6,6.6l0.6,6.6l0.6,6.3v0.1l-0.7,0.8l-0.4,1.2l0.3,1.2l-0.1,0.9l-0.5,0.6l0.4,1.3l1.3,2.1
		l0.9,2.1l0.4,2.1l-0.1,1.6l-0.8,1.5l-0.6,3.1l-0.7,1.3l-0.9,0.5l-0.7,1.2l-0.6,1.9l-0.7,1l-0.8,0l-0.6,0.4l-0.3,0.8l0.1,0.8
		l0.6,0.8l-0.1,0.8l-0.8,0.8l0,0.3l0.3,0.2l-0.1,0.3l-0.5,0.4l-0.2,1.1l0.2,1.7l-0.2,0.9l-0.6,0.1l0,0.5l1.1,1.8l-0.5,0.5l-0.8,1.7
		l-0.1,1.8l0.8,1.9l-1.3,1.7l-3.4,1.5l-1.8,1.2l-0.1,0.9l0.4,1.4l0.9,1.8l0.2,1.3l-0.4,0.8l-2.6-0.3l-4.7-1.3l-3.1,0.3l-1.4,1.9
		l-0.4,1.4l0.3,1.1l-1.4-1.2l-0.9-0.5l-0.2,0.1l-0.2,0.2l0,0.4l0.1,0.3l0.2,0.3l-0.1,0.2l-0.2,0l-0.9-0.5l-1.2-1.4L452,97l-0.4-1.9
		l0.6-1.5l-0.1-1.5l-0.8-1.5l-0.5-1.5l-0.1-1.5l-1.9-2.1l-3.7-2.8l-2.7-1.7l-1.7-0.6l-2-1.4l-2.3-2.2l-1.3-1.7l-0.2-1.2l0.8-3.4
		l2.4-7.3l0.3-0.9l0.1-0.3l-0.1-0.3l-0.3-0.3l-1.3-0.8l-2.4-0.6l-2.2-0.3l-1.7,1l-1.6-1.6l-1.5-4.2l-3.4-4.4l-5.3-4.5l-3.1-3.1
		l-0.9-1.7l-0.8-2.5l-0.8-3.4l-0.1-2.9l0.8-3.5l0.9-0.4l0.1-1.1l-0.3-2l0.9-1.5l2-1.1l1.8-2.3l1.5-3.5l0.6-2.5l-0.2-1.5l-0.7-1.4
		l-1.2-1.3l-0.3-1.6l0.5-2l1.8-1.3l3.1-0.7l2.7-1.2l2.4-1.6l1.4-1.7l0.4-1.8l0.6-1.4l0.9-1l0.6-1.6l0.3-2.2l-0.1-1.6l-0.4-1
		l-1.2-1.1l-2-1.2l-1.1-1.2l-0.3-1.2l-1.1-1.2l-1.8-1.3l-1.1-1.5l7.6-0.4l7.4-0.4l7.4-0.5l7.4-0.5l7.4-0.6l7.4-0.6L471.1-22.4z"/>
	<path id="US-IN" class="st0" d="M522.7-10.1l0.8,7.2l0.8,7.2l0.8,7.2l0.8,7.2l0.8,7.2l0.8,7.2l0.8,7.2l0.9,7.3l-0.2,0.2l-0.3,1
		l0.5,0.9l0.1,0.8l-0.4,0.7l0.2,0.4l0.9,0.2l0.4,0.6l-0.1,1.1l-1.6,1.3l-3.2,1.6l-0.7,0.4l-0.6,0.2l-0.3,0l0,0l-0.5-0.2l-0.7-0.4
		l-1.1-0.1l-1.7,0.4l-0.6,1.1l0.6,1.9l-0.4,1.5l-1.4,1.2l-0.9,1.5l-0.5,1.7l-0.9,1.1l-1.4,0.5l-1,1.7l-0.6,2.8l-0.8,1.8l-1,0.8
		l-1.5,0l-1.9-0.8l-1.2-0.9l-0.4-1l-0.6-0.7l-0.5-0.3l-0.3,0v0.2l0.2,0.3l-0.1,0.3l-1.1,0.2l-0.4,0.5l0.2,0.7l-0.2,0.6l-0.6,0.4
		l-0.3,0.8l0.1,1.1l-0.4,1.1l-0.8,1l-1.3-0.2l-1.9-1.4l-1.8-0.2l-1.7,1l-1.2,1.3L493,80l-0.8,0.4l-1.3-1l-3-1.2l-1.5-0.2l-1,0.5
		l-0.8-0.1l-0.3-0.4l-0.2-0.1l-0.2,0.2l0.1,1.3l-0.2,0.9l-0.5,0.4l-0.4-0.2l-0.4-0.9l-0.6-0.2l-0.9,0.4l-1,0l-0.9-0.5l-0.3,0.1
		l-0.2,0.3l0.2,1l-0.1,0.8l-0.4,0.6l-0.6,0.2l-0.9-0.2l-0.3,0.3l-1.1-1.8l0-0.5l0.6-0.1l0.2-0.9l-0.2-1.7l0.2-1.1l0.5-0.4l0.1-0.3
		l-0.3-0.2l0-0.3l0.8-0.8l0.1-0.8l-0.6-0.8l-0.1-0.8l0.3-0.8l0.6-0.4l0.8,0l0.7-1l0.6-1.9l0.7-1.2l0.9-0.5l0.7-1.3l0.6-3.1l0.8-1.5
		l0.1-1.6l-0.4-2.1l-0.9-2.1l-1.3-2.1l-0.4-1.3l0.5-0.6l0.1-0.9l-0.3-1.2l0.4-1.2l0.7-0.8v-0.1l-0.6-6.3l-0.6-6.6l-0.6-6.6l-0.6-6.6
		l-0.6-6.6l-0.6-6.6L478,0.1l-0.5-5.9l0.1,0.2l0.7,0.5l0.5,0.3l0.4,0l0.2,0.5l1,0.2l1.7,0l1.5-0.3l1.4-0.7l3.3-2.4l4.1-0.4l5-0.5
		l5-0.5l5-0.6l5-0.6l5-0.6l5-0.6L522.7-10.1z"/>
	<path id="US-KS" class="st0" d="M360.9,105.7l-4.1,0.1l-4.1,0l-4.1,0l-4.1,0l-4.1,0l-4.1,0l-4.1,0l-4.1,0l-4.1,0l-4.1,0l-4.1,0
		l-4.1-0.1l-4.1-0.1l-4.1-0.1l-4.1-0.1l-4.1-0.1l-4.1-0.1l-4.1-0.1l-4.1-0.1l-4.1-0.1l-4.1-0.1l-4.1-0.2l-4.1-0.2l-4.1-0.2l-4.1-0.2
		l-4.1-0.2l-4.1-0.2l-4.1-0.2l-4.1-0.2l-4.1-0.2l-4.1-0.3l-4.1-0.3l0.3-4.2l0.3-4.2l0.3-4.2l0.3-4.2l0.3-4.2l0.3-4.2l0.3-4.2
		l0.3-4.2l0.3-4.2l0.3-4.2l0.3-4.2l0.3-4.2l0.3-4.2l0.3-4.2l0.3-4.2l0.3-4.2l3.6,0.2l3.6,0.2l3.6,0.2l3.6,0.2l3.6,0.2l3.6,0.2
		l3.6,0.2l3.6,0.2l3.6,0.2l3.6,0.2l3.6,0.1l3.6,0.1l3.6,0.1l3.6,0.1l3.6,0.1l3.6,0.1l3.6,0.1l3.6,0.1l3.6,0.1l3.6,0.1l3.6,0.1
		l3.6,0.1l3.6,0.1l3.6,0l3.6,0l3.6,0l3.6,0l3.6,0l3.6,0l3.6,0l3.6,0l3.1,0l4,2.8l1,0l1.2-0.5l0.9,0.6l0.6,1.8l-0.1,0.9l-0.8,0
		l-1,1.1l-1.2,2.1l0.3,2l1.8,1.8l1.2,1.8l0.6,1.9l1.2,1.4l2.7,1.5l0,0.8l0,2.9l0,2.9l0,2.9l0,2.9l0.1,2.9l0,2.9l0,2.9l0,2.9l0,2.9
		l0.1,2.9l0.1,2.9l0,2.9l0,2.9l0,2.9l0,2.9L360.9,105.7z"/>
	<path id="US-KY" class="st0" d="M569.4,56.5l0.5,0.5l0.7,3.2l0,0.7l-0.4,1.4l0.1,0.7l0.7,1l2.2,2.3l0.3,1l0.9,0.9l0.8,1.4l2.5,2.8
		l3.5,2.1l2.5,0.3l-5.8,6.4l-2.8,2.4l-2.7,2l-0.2,0.3l-0.4,1.8l-1.5,1.8l-0.9,1.8l-2.5,1.7l-1.6,2.1l-4.5,2.5l-2.6,1l-1.7,1.3
		l-0.1,0.1l-0.1,0.1l-0.1,0.1l-0.1,0.1L556,100l-0.1,0.1l-0.1,0.1l-0.1,0.1l-6.2,0.6l-6.2,0.6L537,102l-6.2,0.5l-6.2,0.5l-6.2,0.5
		l-6.2,0.5l-6.2,0.4l-5.9,0.7l-5.9,0.7l-5.9,0.7l-5.9,0.7l-0.6-0.6l-1.6,0l-2.4,0h-0.1l0.9,2.2l0.2,2l0,0l-2.8,0.2l-3.1,0.3
		l-3.1,0.3l-3.1,0.2l-3.1,0.2l-3.1,0.2l-3.1,0.2l-3.5,0.3l0.8-2l0.8-0.6l0.4-0.1l0.9,0.3l0.4,0.1l0.9-0.8l0.7-2.1l0.3-2.1l0-2.2
		l-0.7-1.7l-0.3-1.1l0.4-1.4l1.4-1.9l3.1-0.3l4.7,1.3l2.6,0.3l0.4-0.8l-0.2-1.3l-0.8-1.8l-0.4-1.4l0.1-0.9l1.8-1.2l3.4-1.5l1.3-1.7
		l-0.8-1.9l0-1.8l0.8-1.7l0.5-0.4l0.3-0.3l0.8,0.2l0.6-0.2l0.4-0.6l0.1-0.8l-0.2-1l0.2-0.3l0.3-0.1l0.9,0.5l1,0l0.9-0.4l0.6,0.2
		l0.3,0.9l0.4,0.2l0.5-0.4l0.2-0.9l-0.1-1.3l0.2-0.2l0.2,0.2l0.3,0.4l0.8,0.1l1-0.5l1.5,0.2l3,1.2l1.3,1l0.8-0.4l0.7-1.5l1.2-1.3
		l1.7-1l1.8,0.2l1.9,1.4l1.3,0.2l0.8-1l0.4-1.1l-0.1-1.1l0.3-0.8l0.6-0.4l0.2-0.6l-0.2-0.7l0.4-0.5l1.1-0.2l0.1-0.3l-0.2-0.3v-0.1
		l0.3,0l0.5,0.3l0.6,0.7l0.4,1l1.2,0.9l1.9,0.8l1.5,0l1-0.8l0.8-1.8l0.6-2.8l1-1.7l1.4-0.5l0.9-1.1l0.5-1.8l0.9-1.5l1.4-1.2l0.4-1.5
		l-0.6-1.9l0.6-1.1l1.7-0.4l1.1,0.1l0.7,0.4l0.5,0.2l0,0l0.3,0l0.6-0.2l0.7-0.5l3.2-1.6l1.6-1.3l0.1-1.1l-0.4-0.6l-0.8-0.2l-0.2-0.4
		l0.4-0.7l-0.1-0.8l-0.5-0.9l0.3-1l0.2-0.2l0.9-0.9l1-0.2l0.9,0.7l1.2,0l1.4-0.6l1.4,0.1l1.3,0.7l1.4,1.5l1.4,2.3l2.2,1.2l2.9,0.2
		l2.2,0.7l1.5,1.2l1.1,0.3l1.2-0.9l1.3-0.6l1.4,0.3l2,0.9l2.6-0.6l3.3-2.1l2.1-0.2l0.9,1.7l1.8,1.7l2.7,1.6L569.4,56.5z
		 M453.1,112.8l-1.2,0.1l-0.1-0.3l0-0.6l0.1-0.3l0.2-0.1l0.3,0l0.5,0.5L453.1,112.8z"/>
	<path id="US-LA" class="st0" d="M462.5,253.3l-1.3,0.7l-7.3-1.8l-1.9-1.7l-1.6-0.3l-1.9-0.1l-1.9,2.4l-1.4,3.2l2.6,1.5l2.2,0.7
		l3.5-0.9l1.8-1.6l1.6-0.1l0.7-0.4l0.6-0.8l1.4,0.5l0.1,0.6l-0.9,0.9l-1.2,0.8l-0.7,0.9l1.5,1.6l2.2,0.4l0.8-0.3l0.4-2l1.2-1.4
		l1.8,0.1l-0.2,0.8l0.3,0.7l0.9,1.2l0,1.8l0.2,0.4l-1.9,1l-1.5,0.4l-1.1,1.1l0.7,0.6l-1.2,0.6l-0.8-0.2l-0.4,0.2l-0.1,0.6l-0.6,0.6
		l1,1.8l1.9,1l1.4,1.4l5.4,1.6l1.3-0.1l1.4,1.9l1.1,0.6l1,0.3l0,1.4l-1.7,1.1l-0.4,1.2l-0.4,0.7l-0.8-0.8l-0.8-0.5l-1.7,2l-0.9,0.5
		l0.3-2l-0.8-0.7l-1.2-1.9l-1.6-1.1l-1.1-0.3l-0.9-0.7l-1-0.2l-0.9,0.1l-1.5-0.4l-0.2-1.1l-0.5-0.8l-1.2-0.9l-5.7-1.4l0,0.7l0.4,0.5
		l0.8,0.3l1,0.6l0.1,2.1l-0.3,0.9l-0.1,1.3l-0.3,1.3l-0.6,1.1l-1.5,0.8l-0.7-0.5l-1.3-2.7l-1.6-0.8l-2.4,0l-1.6,0.7l-1.6,2.8
		l-1.4,0.5l-5-1.1l-5.8-1.8l0.1-0.7l0.9-0.3l1.7,0.2l-0.1-0.7l-1.9-2.3l-0.4-1.1l0.2-1.3l-0.6,0.1l-1,1.2l-3.7-0.8l-1-1.1l-2.3-3.1
		l-3,0l-1.4-1.9l-2.4,0.9l-1.2,0.9l-1,1.4l0.5,0.7l1.1,1.1l-0.5,0.6l-3.4,1l-8.1-0.6l-2.4-0.8l-3.2-1.7l-4.4-1.3l-2.1-0.2l-2,0.4
		l-6,0.3l-1.4,0.4l-1.2,0.6l-0.8-0.7l-0.4-1.2l0.7-0.2l0.8-0.7l0.7-1.4l0.1-0.9l-0.5-0.5l1.2-2.3l0.3-0.8l-0.3-3.8l-0.6-1.4l0-0.8
		l0.6-2.1l-0.1-1.9l1-2.3l0.8-1.2l0.8-2.5l0.2-1.6l0.3-1.2l-0.3-1.3l0.6-0.9l-0.4-1.3l-0.2-1.7l-0.8-0.6l-1.4-2.5l0-1.1l-1.5-2.3
		l0-0.8l-1.4-1.2l-0.3-0.8l-0.2-3.3l-0.4-1l-1.2-1.9l-2.7-2.7l-0.1-2.8l-0.1-2.8l-0.1-2.8l-0.1-2.8l-0.1-2.8l-0.1-2.8l-0.1-2.8
		l-0.1-2.8l3.4-0.1l3.4-0.1l3.4-0.1l3.4-0.1l3.4-0.1l3.4-0.1l3.4-0.1l3.4-0.1l3.4-0.1l3.4-0.1l3.4-0.1l3.4-0.1l3.4-0.2l3.4-0.2
		l3.4-0.2l3.7-0.2l0.2,1.1l0.9,0.6l0.1,1.2l-0.7,1.7l0.1,1.2l0.9,0.6v0.7l-0.9,0.8l-0.1,0.8l0.7,0.8l0.3,1v1.1l0.9,1.4l1.4,0.9
		l0.9,1.1l0.1,0.6l0.1,0.6l-0.2,0.8l-1,1.3l-0.8,0.9l-0.5,0.4l-0.2,0.6v1.3l-1.1,1.7l-2.4,2.1l-1.5,2.5l-0.7,3l-0.8,1.9l-0.8,0.9
		l-0.4,1.6l0.1,2.3l-0.5,1.3l-1.1,0.3l-0.2,1.3l0.8,2.4l-0.2,1l-0.8,0.8l0,0.6l4.6-0.2l4.6-0.2l4.6-0.2l4.6-0.3l4.6-0.3l4.6-0.3
		l4.6-0.3l4.6-0.3l-0.4,2.6l-1.1,3.6l0,0.9l0.4,1.1l0,0.6l0.6,0.9l1.2,0.9l1.1,1.4l1,2.5l0.3,1.2l0.8,1.6l0.4,0.3l0.5,0.1
		L462.5,253.3z M468.5,255.3l0.2,1l-1-0.5l-1.4,0.1l0.6-0.4l0.4-0.4l0.2-0.4l1.7-1.4l-0.4,1L468.5,255.3z M476.7,260.9l-0.5,0.8
		l0.3-3.5l-1-2.8l0.9,1.2l0.4,1.5L476.7,260.9z M475.6,263.1l-1,1.3l0-0.5l0.7-1.2l0.5-0.5L475.6,263.1z M419,271.4l-0.7,0.4
		l-3.3-1.8l-0.2-0.8l1.6-0.8l1,0l1.6,0.9l0.6,0.2l0.3,0.4l-0.1,0.6L419,271.4z"/>
	<path id="US-MA" class="st0" d="M744-81.7l-0.1,1.2l0.8,1l0.6,1.1l1,0.9l0.6-0.1l0.6-0.4l0.5-0.1l0.4,0.4l0,0.6l-0.7,0.4l-1.2,1.4
		l-1.2,0.7l-0.3,1.4l-0.6,1.6l-1.2,2.7l1,0.4l3.1-0.1l1.5,0.4l3.1,3.5l-0.3,0.5l0,0.8l2,0.5l1.4,2.7l1.7,0.6h2.3l2.3-1.6l1.8-1.8
		l-0.4-1l-2-1.9l-0.6-1l-1.2-0.4l-0.2,0.7L758-67l-0.2-0.4l0.5-0.4l0.7-0.1l0.9,0.2l2.8,1.9l1.5,3.1l0.7,2l0,0.8l-0.7,0l-1.1,0.5
		l-5.2,2.7l-1,1.3l-2.5,1.8l-0.3-0.5l-0.1-1.1l-0.8-2.1l-0.6,0.1l-3.4,4.8l-1.6,0.7l-1.1,1.4l-0.5-0.5l-1-2.6l0.3-2.5l-0.5,0.2
		l-0.7,1.1l-0.8-0.8l-0.7-0.4l-0.7-0.3l-0.2-0.8l-0.3-1.2l-0.7-0.1l-0.5-1.5l-0.3-0.9l-1.2,0.4l-1,0.3l-1.6,0.5l-1.6,0.5l-1.2,0.4
		l-0.1-0.2l-1.9,0.5l-1.9,0.5l-1.9,0.5l-1.9,0.5l-1.9,0.5l-1.9,0.5l-1.9,0.5l-1.9,0.5l0,0.5l-0.7,0.2l-0.2-0.6l-1.4,0.3l-1.4,0.3
		L713-54l-1.4,0.3l-1.4,0.3l-1.4,0.3l-1.4,0.3l-1.4,0.3l-0.6-0.4l0.1-1.9l0.1-1.9l0.1-1.9l0.1-1.9l0.1-1.9l0-1.9l0-1.9l0-1.9
		l1.6-0.3l1.6-0.3l1.6-0.3l1.6-0.4l1.6-0.4l1.6-0.4l1.6-0.4l1.6-0.4l2.3-0.5l2.3-0.5l2.3-0.5l2.3-0.5l2.3-0.5l2.3-0.5l2.3-0.6
		l2.3-0.6l1.2-1l1.2-2.1l0.9-0.6l1.3-1.4l0.7-0.4L744-81.7z M757.9-50.9l-4.1,2.3l-0.9-0.5l1-0.6l0.9-2l0.9-0.4l1.7,0.5L757.9-50.9z
		 M767.1-51l-1.1,0.7l-3.1,0.1l2.2-1.4l0.3-0.4l0-1.1l-0.1-0.5l1.5,1.9L767.1-51z"/>
	<path id="US-MD" class="st0" d="M680.4,7l0.9,3.4l0.9,3.4l0.9,3.4l0.9,3.4l0.9,3.4l0.9,3.4l0.9,3.4l0.9,3.4l0,0l0,0l0,0l0,0l0,0
		l0,0l0,0l0,0l1.7-0.4l3.8-0.9l3.8-0.9l1.8-0.4l0.1,0.6l0,1l-0.3,0.5l-0.2-1l-0.4-0.3l-0.4,0.5l-0.2,0.5l0.3,1.9l-0.1,1l-1.1,0.5
		l-0.6,2.7l-0.7,1.6l-0.2,1l-1.6,0.6l-2.5,0.9l-0.4,1.1l-1.4-0.1l-2,0.5l0.1-1.4l0.3-1.3l-1.3-0.9l-0.7,0l-0.7-0.3l0.5-1.1l0.1-1.1
		l-0.5-1.2l0.1-1l-0.5,0.3l-0.6,1.2l-0.4,0.5l-0.5-0.8l-0.3,0.3l-0.1,0.7l-0.4,0.5l-1.3-0.6l-1.8-0.6l-1.3-1.4l-0.8-1.1l0-2.4l1-0.6
		l1.5,0l1.9-0.4l-0.4-0.5l-0.7,0.2l-2.4-1.4l-0.9-1l-1.2-0.1l-0.3,1.2l-0.5,0.4l0.2-2.5l0.9-0.3l1.2-1l-0.7-1.3l-1-0.4l-1.4,1.1
		l-0.2-1l0-1.3l1.2-0.2l1.1,0.2l0.4-2.2l-0.2-0.9l-1.1,1.6l-0.9-2.7l0.8-3l1.1-1.5l1.7-0.3l1.6-0.6l-1.2-0.2l-1.1,0l0.6-1.2l0.7-0.3
		l0.5-1.1l-1.6,0.5l-0.2-1.8l-0.7,0.5l-0.9,0.4l-0.2,0.8l0.3,1.2l-0.1,0.9l-0.6,0.8l-1.1,0.8l-0.3-0.9l-0.5-0.3l0.3,1.9l-0.2,0.7
		l-1.3-1.6l-0.2,0.4l0.1,0.5l0,0.9l-0.7,0.6l0.3,1.1l-0.2,0.7l-2.7-0.4l0,0.3l1.9,1.8l1.2,0.5l0.4,1.1l-0.7,1.1l-1.4-0.5l-0.2,0.1
		l1,1.2l0.7,1.1l-0.2,1.1l0.3,1.2l0.2,1.2l-0.1,1l1.6,4.4l1,1.1l1,1l0.6,1l-0.7,0.3l-1.4-0.6l-1.2-0.5l-1.8-2l-0.4-0.8l-0.5-0.6
		l0.5,1.6l0.8,1.7l4.9,3.2l1.1,1.4l0.8,1.1l0.1,1.2l-1.2-0.6l-1.1-0.9l-2.6-0.7l-3.2-0.1l-2.3-2.4l0.2,1.1l-0.2,1.1l-1.3-1l-0.9-0.9
		l-0.5-1.1l-1.3,0.4l-1.2,1.3l-1.4,0l-0.6-1.9l0.1-1.1l1-2.7l1.1-1.5l0.3-1.7l-0.7-2.4l0.6,1.8l1.1-2.1l-1.3-1.2l-1.2-1.1l-1,1.8
		l-1.3-0.3L658,27l-3.3-0.7l-0.6-0.6l-0.1-0.7l0.2-1.1l-1.1-0.8l-2.5-0.5l-1.1-0.6l-0.2-0.1l-0.3-1l-0.4-0.6l-0.6-0.2l-0.2-0.4
		l0.2-0.6l-0.4-0.6l-1.1-0.5l-0.4-0.5l0.2-0.6l-0.5-0.1l-1.2,0.3l-1.3-0.2l-1.4-0.8l-1.4,0.1l-2.2,1.5l-1.3,0.5l-0.5,0.7l-0.1,1.1
		l-0.5,0.6l-1.3,0.3l-0.2,0l-1.6,0l-1.2-0.4l-0.2-0.2l0-0.6l-0.2-0.2l-0.3,0l-0.2,0.4l-0.1,1l-2.2,3.1l-1.4-0.3l-0.5,0.1l-3,4.3
		l-1,0.8l-1.9,2l-0.5-2.8l-0.5-2.8l-0.5-2.8l-0.5-2.8l3.9-0.7l3.9-0.7l3.9-0.7l3.9-0.8l3.9-0.8l3.9-0.8l3.9-0.8l3.9-0.8l3.9-0.8
		l3.9-0.8l3.9-0.8l3.9-0.8l3.9-0.8l3.9-0.9l3.9-0.9L680.4,7z M698.2,41.2l-0.4,0.2l0.3-0.9l0.7-4l0.4-1.4l-0.1,2.7l-0.6,2.6
		L698.2,41.2z"/>
	<path id="US-ME" class="st0" d="M742.6-184.3l0.2,0.4l0.9,0.6l1.1,0.2l0.8,0l0.9-0.3l2-1.8l2.5-1.5l1.3-1.1l0.1-0.7l0.6-0.4
		l1.2-0.2l2.5,0.9l3.1,1.6l2.4,1.2l1.1,3.1l1.1,3.3l1.2,3.5l0.8,2.5l1.2,3.4l0.9,2.7l1.2,3.6l0.6,1.9l0.4,0.5l0.1,0.8l0.1,0.4
		l0.1,0.3l0.2,0.3l0.2,0.5l-0.1,0.6l0.1,0.6l0.2,0.9l0.4,0.5l0.5,0.2l0.4-0.1l0.6,0.2l0.8,0.4l1.1,0.2l1-0.1l0.6-0.3l0.9,0.1
		l0.5,0.7l0.1,0.8l-0.3,0.5l-0.4,0.4l0.1,0.6l0.4,0.5l0.5,0.4l0.7,0.8l0.1,0.9l-0.1,0.8l0.1,0.8l0.5,0.5l1.1,0.5l0.8,0.6l0.9,0.2
		l0.3-0.4l0.2-0.5l0.2-0.4h0.6l0.7,0l0.8,0l0.1,0.7l0.8,0.9l1,2l-0.2,1.1l0.5,1.2l1.5-0.1l0.5,0.3l0.2,0.4l-2,4.2l-2.8,0.4l-1.1,1.3
		l-1.4,0.7l-0.2,1.7l-0.7,0.6l-1.2,0.3l-1.1-0.1l-0.7,0.4l-0.2,2.9l-0.9,0l0,1.1l-0.3,0.6l-0.5,0.6l-0.9-1l-0.7-1l-0.6-0.1l-0.8-0.1
		l-0.7,0.2l-0.4,0.3l-0.4,0.9l-0.7,0.9l-0.8-0.3l-0.8-0.7l0,1.5l-0.2,1.6l0.6,1.6l0,1.1l-0.7-0.1l-0.9-0.7l-1.9-0.2l-1.3,0.5v-1
		l0.9-1.7l-0.5-0.1l-0.6,0.4l-0.3-0.1l0.1-1.3l-0.4-1.3l-0.4,0.6l-0.3,1.6l-1.4,1.6l0.6,1.8l-0.5,4.3l0.4,1.6l-0.7,1.6l-1,1.5
		l-1.9,0.2l-1.1,1.4l-0.4,1.3l-0.6,0.3l-0.7-1.3l-0.4-0.4l0.1,2.2l-0.5,0.3l-0.6-1.4l-0.5-0.9l-0.5,1l0.2,2.3l-0.6,0l-0.4-0.8
		l-0.4-0.1l0.2,1l0.6,1.3l-0.1,0.8l-0.6-0.2l-0.7-0.5l-0.7,0.7l-0.7,0.4l-0.2-0.7l-0.1-0.8l-1.4,0.9l-1.4,2l-0.8,2.4l0.6,0.2
		l0.7,0.5l-1.5,3.8l-1.7,3.5l-0.6,5.1l-0.6,0.8l-0.4,1l-1.8-1.6l-0.7-1.6l-2-1.5l-0.9-1.2l-0.6-1.4l-0.4-1.6l-0.8-2.4l-0.8-2.4
		l-0.8-2.4l-0.8-2.3l-0.8-2.3l-0.8-2.3l-0.8-2.3l-0.8-2.3l-0.8-2.3l-0.8-2.3l-0.8-2.3l-0.8-2.3l-0.8-2.3l-0.8-2.3l-0.8-2.3l-0.7-2.1
		l0.3-0.4l0.8-0.9l0.6-0.1l0.8,0.8l0.6,0.5l0.4-0.3l0.2-1l-0.3-1.2l0.3-1l0.7-0.3l0.7-0.2l0.2-0.5l-0.2-0.6l-0.5-0.9l-0.2-1.1l1-2.4
		l1.6-1.9l0.5-0.9l-0.2-1.4l0.7-1.8l0.3-1l-0.1-0.8l-0.5-0.8l-0.5-1.7l-0.2-2.1l-0.2-2.3l0.4-2.3l1.1-2.6l-0.4-2.9l-0.4-3.1l1.2-3.5
		l1.3-3.9l0.7-2.2l1.3-4.1l0.9-2.9l0.5-1.4l0.5-1.6l1.5,0l1.5,0l0.4,2L742.6-184.3z M775.3-125l-0.8,0.7l-1,0.1l0.4,1.1l0,0.4
		l-1.3-0.2l-0.5-0.2l-0.4-1.5l0.5-1.7l0.6-0.8l1.1,0.1l1.2,1.3L775.3-125z M769.5-120l-0.4,0.6l-0.7,0.1l-0.3-1.1l0.1-0.4l0.2-0.2
		l0.4,0.2L769.5-120z"/>
	<path id="US-MI" class="st0" d="M442.9-142l0,0.4l0.6,0.1l-0.1,0.2l-0.6,0.4l-1.6,0.8l-1.1,0.3l-0.6-0.2l-0.1-0.5l0.4-0.7l0-0.3
		l-0.5,0l0.1-0.3l0.7-0.6l5.6-3.8l2.4-1.4l1.3-0.5l0.2,0.2l-1.3,1.4l-0.2,0.5l0.1,0.3l-0.4,0.7l-4.1,2.7L442.9-142z M455.3-126.9
		l-0.2,0.8l0.1,0.4l-1.7,2.1l-0.6,1.3l-0.5,0.2l-0.5-0.8l0-0.7l0.4-0.5l0.4-0.8l0-1l-0.2-0.3l-0.5,0.9l0.3,0.2l0.1,0.1l-0.1,0.3
		l-2.2-0.3l-0.7-0.6l0-1l0.6-1.3l2.3-2.8l1.1-0.8l3.1-1.4l1.7-0.4l1.8-0.2l1.3,0.3l0.9,0.7l-0.7,0.6l-3.5,0.7l-0.1,0.2l0.7,0.3
		l0.2,0.3l-0.5,0.8L455.3-126.9z M516.2-117.4l0.5,0.2l0.4,0.5l1,1.3l0.5,0.9l0.4,1.3l0.2,0.4l0.1,0.8l-0.5,0.6l-0.1,0.4l0.4,0.4
		l1.8-0.1l0.9,0.3l0.4,0.4l-0.1,0.6l0.2,0.6l0.5,0.5l1.6,0.7l0.4,0.4l0,0.5l-0.4,0.3l-0.8,0.2l-5.7-0.1l-1.7,0.1l-0.2,0.3l-0.2,0.1
		l-0.3-0.1l-0.5,0l-0.3-0.2l-0.3-0.5l-0.5-0.3l-0.8-0.1l-0.6,0.5l-0.6,1.8l0.2,0.3l0,1.1l0.2,0.3l0,0.2l-0.2,0.2l-0.5,0l-0.7-0.2
		l-3-2.2l-2.2-1l-2.6-0.6l-2-0.2l-1.4,0.2l-1.1,0.8l-0.8,1.4l-1.4,0.9l-1.9,0.4l-1,0.5l-0.1,0.5l-0.7,0.1l-1.3-0.4h-1.3l-1.3,0.4
		l-0.9,0.6l-0.9,1.7l-0.1,0.8l-0.7,0.8l-1.9,1.3l-0.1,0.4l-0.9,1.3l-0.3,0.7l0.1,0.6h-0.4l-0.8-0.7l-0.1-1l0.5-1.3l0.5-0.7l0.5,0
		l0.3-0.6V-99l-0.2-0.6l-1,0.3l-0.5,0.5l-0.7,0.2l-0.8-0.2l-0.6,0.7l-0.5,1.6l-0.6,1.1l-0.8,0.6l-0.6-0.4l-0.4-1.4l-0.1-1.2l0.2-1.4
		l-0.2-0.3l-0.3,0.5l-0.4,1.2l-0.5,2.6l-0.4,0.9l-0.6,0.4l-0.8,1.6l-1.1,2.9l-1.3,2.8l-1.5,2.7l-0.9,1.5l-0.3,0.2l-0.1,0.5l0,1.1
		l-0.8-0.2l-0.7-0.8l-0.5-0.9l-0.1-0.9l0.7-2.4l0-0.4l-0.1-0.2l-0.5-0.2l-1.1,0.5l-1.1,0.2l-0.4-0.1l-0.2-0.4l0-0.6l0.2-0.8l0.6-1.4
		l-0.1-1.3l0.2-0.8l-0.4-1.3l0-0.6l-0.5-0.7l-1.4-0.8l-3.1-1l0.2-1.4l-0.2-0.6l-0.8-0.8l-3.2-0.8l-2.2-0.3l-2.1,0.2l-1.5-0.3l-1.7,0
		l-1.2-0.5l-1.1-0.5l-1.1-0.6l-1.1-0.6l-2-0.4l-2-0.4l-2-0.4l-2-0.4l-2-0.4l-2-0.4l-2-0.4l-2-0.4l-0.5-0.9l-0.5-0.9l-0.5-0.9
		l-0.5-0.9l-0.9-0.3l-0.5-0.2l-0.4-0.5l-0.8,0.3l-0.4-0.8l0.1-0.2l1-0.3l2.8-1.3l2.4-1.6l1.9-1.8l2.5-1.2l3-0.6l2.1-0.8l1.2-0.9
		l1.6-1.7l1-0.5l1.2-0.2l0.9-0.7l0.5-1.1l1.1-1.3l1.6-1.5l1-0.6l0.3,0.2l0.1,0.5l0,0.7l0.5,0.5l1,0.4l0.5,0.6l0,0.7l0.3,0.6l0.6,0.5
		l0.2,1.1l-0.1,1.7l0.1,1.1l0.2,0.5l0.2,0.3l0.3-0.3l0.4-0.6l0.1-0.4l0.1-0.4l2.4-1.9l0.5-0.1l0.9,0.4l3.9,0.3l1.6,0.3l1.7,0.8
		l0.6,0.3l2.3,3l1,1.2l0.6,0.3l0.4,0.5l0.4,1.1l0.3,0.3l2.9,0l1.3-0.3l0.8-0.5l0.9,0.2l1.1,0.9l1,0.2l0.9-0.6l0.9-0.1l0.9,0.4
		l0.4,0.3l0.2,0l1.5-1.8l1.8-1.6l2.5-1.8l1.5-0.8l0.4,0.1l2.4-0.8l2.2-0.3l2.9,0l2.6-0.7l2.3-1.3l2.1-0.8l1.9-0.3l0.8,0.2l-0.4,0.8
		l-0.1,1.2l0.2,1.7l0,1.1l-0.2,0.5l0,0.4l0.3,0.4l1.9,0l1,0.4l1.1-0.1l1.2-0.7l1,0.1l0.8,0.8l1,0l0.9-0.8l0.6-0.7l0.5-0.3
		L516.2-117.4z M520.1-114.7l0.1,0.5l-0.5-0.1l-0.4-0.3l-0.4-0.5l-0.6-1.3l-0.7-0.9l0.8-1.2l0.5-0.2l0.6,0.2l0.2,0.6l-0.3,1.1l0.2,1
		L520.1-114.7z M520.6-112.2l-0.2,0.2l-0.9-0.8l-0.2-0.5l0.1-0.5l0.3-0.1l0.5,0.3l0.3,0.4l0.1,0.5L520.6-112.2z M530.9-108.3
		l0.2,0.5l-0.3,0.8l-1,0.5l-2.2,0.3l-1.5-0.1l-0.7-0.4l-0.2-0.2l0-0.6l0.3-0.1l0.5,0.2l0.7-0.2l0.8-0.7l0.4-0.5l0-0.3l-0.4-0.5
		l0.2-0.3l1.2,0.1l0.5,0.3l1,1.2L530.9-108.3z M515.1-101.8l2,0.1l0.2-0.2l0.6,0.5l0.2,0.5l-0.2,0.4l-0.3,0.3l-0.5,0.1l-0.8-0.3
		l-1.3-1L515.1-101.8z M512-100.8l1.2,0.3l2.2,1.1l2,0.6h1.8l1.4,0.3l0.9,0.6l0.7,0.8l0.5,0.9l0.9,0.4l1.4-0.1l1.1,0.2l0.9,0.6
		l4.5,1.1l1.9,0.6l1.1,0.7l0.4,0.5l0,0.6l0.2,0.6l0.9,1.1l0.3,0.1l0.2,0.5l0.2,1l0.3,0.6l0.4,0.3l-0.2,0.2l-1.4-0.4l-0.7,0.3
		l-0.2,0.8l0,0.7l0.3,0.6l2,1.8l0.7,1.8l0.4,2.2l-0.1,0.9l0.1,2l0.3,3l0.1,1l-0.4,1.1l-1.3,1.6l-0.1-0.3l-0.4,0l-0.4,0.3l-0.4,1.3
		l-0.2,2.3l-0.4,1.3l-0.7,0.3L534-64l-0.1,0.5l-0.7,0.4l-1.3,0.3l-0.8,0.8l-0.4,2l0.2,0.9l-0.2,1.2l0.2,1l0.5,0.8l1.2,0.7l1.9,0.6
		l1.1,0l0.7-0.4l0.6-1.4l0.7-0.6l0.9-0.4l0.3-0.7l1.1-2.9l-0.1-0.6l-0.6-0.1l0.1-0.2l0.7-0.2l0.6-0.4l0.4-0.7l0.8-0.6l2.1-1l1.1-1
		l0.7-0.2l1.2,0.3l1.6,0.8l1.3,1.3l1.1,1.7l1.8,4.7l2.5,7.6l1.5,4.2l0.6,0.9l0.3,0.4l-0.2,6.3l-0.5,2.7l-1.4,1.7l-1.4,1.7l-1.7,2.7
		l-2,1.5l-1,0.9l-0.2,0.5l-0.3-0.1l-0.4,1.4l-0.3,1.9l0,1.4l0.3,0.7l-0.4,0.6l-0.7,1l-0.1,0.4l0.1,0.5l-0.1,0.3l-0.4,0.1l-0.3,0.3
		l-0.6,1.1l-1,2.7l-0.2,0.5l-0.2,0.2l-5.5,1l-5.5,0.9l-5.5,0.9l-5.5,0.9l-0.2-1.3l-5,0.6l-5,0.6l-5,0.6l-5,0.6l-5,0.5l-5,0.5
		l-4.1,0.4l1-0.7l1.6-1.6l0.8-1.4l0.8-1.8l0.7-2.2l1.5-3.3l0.7-2l0.6-2.5l0.4-2.6l0.2-2.7l-0.1-2.8l-0.3-2.8l-0.8-2.8l-1.2-2.8
		l-0.6-1.4l-0.2-0.4l-1.9-3.5l-2.3-4.9l0-0.4l1.3-3.2v-0.4l-0.4-2.4l-0.5-1.2l-1-1.6l0-0.4l1.4-2.3l0.8-1.7l0.7-2.1l0.3-2.4l0-2.6
		l-0.2-1.7l-0.4-0.8l0-0.7l0.3-0.5l1.7-0.8l0.5-1.1l-0.1-1.8l0.3-0.9l0.6-0.1l0.5-0.4l0.4-0.8l0.7-0.3l0.9,0.2l1-1.2l1.2-2.8l1-1.6
		l0.8-0.4l0.2,0.2l-0.4,0.8l-0.1,0.9l0.3,0.9l-0.1,0.9l-0.2,1.3L501-81l-0.4,2l0.1,1l0.5,0.7l0.4-0.3l0.4-1.3l0.1-0.7l-0.2-0.1
		l0-0.6l0.3-1l0.3-0.5l0.3,0l0.2,0.5l0,1l-0.6,2.5l-0.1,0.8l0.2,0.2l0.8-1.6l0.6-2.5l0.4-1.9v-1l-0.5-2.6l-0.1-1.1l0.2-0.8l0.8-0.9
		l1.4-1.1l1.4-0.7l1.5-0.2l1-0.4l0.5-0.5l-0.2-0.3l-1-0.1l-0.8-0.5l-0.6-0.8l-0.3-1l0-1.2l0.5-1.2l1-1.2l0.2-0.9l-0.5-0.5l0.4-0.2
		l1.3,0l0.9-0.3l0.5-0.5L512-100.8z M500.2-95.1l-0.5,0.2l-0.4-0.2l0-1.1l0.3-1.9l0.4-0.9l0.8,0.2l-0.1,0.2l0.4,1.9l-0.2,0.9
		L500.2-95.1z M494.8-83.2l-0.2,0.3l-0.4,0l-0.4-0.3l-0.5-0.9l0.1-0.2l0.9,0.1l0.3,0.4L494.8-83.2z"/>
	<path id="US-MN" class="st0" d="M375.5-154l1.8-0.3l1.5,0l1.5,0.1l0.8,0.1l2.4,0.9l1.6,0.8l2.3,1.4l1.3,0.6l0.7,1.5l0.8,2l1,0
		l0.7-1.2l1.9-0.3l2.5,0.7l2.3,2.2l3.3,1.9l2,0.9l2-0.1l2.5-1.2l2.6-2.1l1.9-0.4l1.2,0.1l0.7,1.5l0.8,0.6l2.1-0.3l4.3,0l3.4-0.7
		l0.8,0.9l0.8,1.4l1.4,0.4l1.9-0.6l3,0.1l-0.4,0.3l-0.4,0l-0.5,0.4l-0.7,0.8l-1.6,1.1l-2.5,1.5l-2.9,1.4l-5.9,2.6l-3.7,2.5l-1.6,1.5
		l-6.2,7.3l-3.8,3.9l-6.2,5.5l-0.6,0.7l0,0.6h-0.3l-1,1.3l-0.4,0.8l-1,0.3l0.1,3.2l0.1,3.2l0.1,3.2l0.1,3.2l-0.5,0.4l-0.6,0.8
		l-0.9,0.2l-4.1,2.8l-0.7,0.8l-0.7,1.8l-1.3,2.1l-0.3,1.1l0.1,1.4l2.2,1.1l0.8,1.1l0.4,1.3l0,1.2l-1,2.3l-0.2,0.9l0.2,2.8l-0.5,0.9
		l0.5,2.3l0.1,0.8l-0.2,2.5l-0.2,0.7l0.5,1.3l0,0.1l2.1,1.7l1.7,0.9l1.5,0.3l1.2,0.7l0.9,1.2l1.2,0.8l1.5,0.3l1.5,0.9l2.4,2.4
		l1.2,2.1l2.1,1.4l3.3,1.5l2.2,1.3l1.1,1.2l0.8,3.1l0.9,6.6l-5.3,0.3l-5.3,0.2l-5.3,0.2l-5.3,0.2l-5.3,0.2l-5.3,0.2l-5.3,0.1
		l-5.3,0.1l-5.3,0.1l-5.3,0.1l-5.3,0.1l-5.3,0.1l-5.3,0l-5.3,0h-5.3l-5.3,0l0-5l0-5l0-5l0-5l0-5l0-5l0-5l0-5l-1.2-1.7l-2.6-1.4
		l-0.7-0.8l-1.2-2l-0.5-0.9l-0.1-0.7l0.6-0.7l2.4-2.1l0.8-1l0.4-1l0.6-2.2l-0.2-1.7l0.2-2.7l-0.5-2l-0.1-1l-0.3-1.2l-1.7-3.3
		l-0.4-2.6l-0.4-1.3l-0.1-3.3l0.1-0.9l0.4-1.8l-0.7-1.2l-0.1-1l-0.3-8l-0.2-1.1l0.1-3.7l-1.3-3.9l-0.6-1.3l-0.3-1.6l0-0.8l-1-2.7
		l-0.7-2.9l0.1-2.5l-0.2-1.9l0.1-1.5l-0.2-2.2l0.2-1.3l0-2l-1.4-7.1l1.8,0l6.3,0.1l6.3,0h6.3l6.3,0h3.5l0-4.8l0-3.8l3.2,0.4l1,0.7
		l0.3,0.3l-0.1,1l0.3,3.1l0.6,2.6l1.4,3.1v0l0.1,1.2l0.5,0.8l0.8,0.7l3.1,0.8l5.4,0.9l3.1,1.1l0.8,1.3l1.5,0.5l2.1-0.3l1.5-0.6
		L375.5-154z M375.5-154L375.5-154L375.5-154L375.5-154z"/>
	<path id="US-MO" class="st0" d="M413.7,28.9l-0.8,3.5l0.1,2.9l0.8,3.4l0.8,2.5l0.9,1.7l3.1,3.1l5.3,4.5l3.4,4.4l1.5,4.2l1.6,1.6
		l1.7-1l2.2,0.3l2.4,0.6l1.3,0.8l0.3,0.3l0.1,0.3l-0.1,0.3l-0.3,0.9l-2.4,7.3l-0.8,3.4l0.2,1.2l1.3,1.7l2.3,2.2l2,1.4l1.7,0.6
		l2.7,1.7l3.7,2.8l1.9,2.1l0.1,1.5l0.5,1.5l0.8,1.5l0.1,1.5l-0.6,1.5L452,97l1.5,2.4l1.2,1.4l0.9,0.5l0.2,0l0.1-0.2l-0.2-0.3
		l-0.1-0.3l0-0.4l0.2-0.2l0.2-0.1l0.9,0.5l1.4,1.2l0.7,1.7l0,2.2l-0.3,2.1l-0.7,2.1l-0.9,0.8l-0.4-0.1l-0.9-0.3l-0.4,0.1l-0.8,0.6
		l-0.8,2l0,0l-0.3,0.2l-0.3-0.2l0-0.1l-0.2-0.6l-0.5-0.5l-0.3,0l-0.2,0.1l-0.1,0.3l0,0.6l0.1,0.3l0.4,1.6l-0.2,1.2l-0.8,0.5
		l-0.1,0.7l0.6,0.7l0,0.3l-0.2,0.3l-0.6,0.1l-0.5,0.2l-0.3,0.6l0.8,1.1l0,1.4l-0.9,1.7l-0.1,0.6l-3.3,0.3l-3,0.2l-3,0.2l-3,0.2
		l1.3-2.5l0.9-0.9l0.6-0.9l1.2-0.9l1.2-1.9l0.1-0.9l-0.2-0.8l-0.8-1.1l-0.9-1.7l-5,0.3l-5,0.3l-5,0.3l-5,0.3l-5,0.2l-5,0.2l-5,0.2
		l-5,0.2l-5,0.2l-5,0.2l-5,0.2l-5,0.1l-5,0.1l-5,0.1l-5,0.1l-5,0.1l0-2.8l0-2.8l0-2.8l0-2.8l-0.1-2.9l0-2.9l0-2.9l0-2.9l0-2.9
		l-0.1-2.9l-0.1-2.9l0-2.9l0-2.9l0-2.9l0-2.9l-0.1-2.9l0-2.9l0-2.9l0-2.9l0-2.9l0-0.8l-2.7-1.5l-1.2-1.4l-0.6-1.9l-1.2-1.8l-1.8-1.8
		l-0.3-2l1.2-2.1l1-1.1l0.8,0l0.1-0.9l-0.6-1.8l-0.9-0.6l-1.2,0.5l-1,0l-4-2.8l-0.3-0.2l-1.2-1.9l-0.5-2.3l-1-1.5l-1.5-0.7l-0.9-1.5
		l-0.4-2.3l-0.9-2.3l-0.4-0.7l4.2,0l4.3-0.1l4.3-0.1l4.3-0.1l4.3-0.1l4.3-0.1l4.3-0.1l4.3-0.1l4.3-0.1l4.3-0.2l4.3-0.2l4.3-0.2
		l4.3-0.2l4.3-0.2l4.3-0.2l4.3-0.2l0.9,1.6l1,0.4l0.2,0.5l1.2,0.8l0.3,0.8L413.7,28.9z"/>
	<path id="US-MS" class="st0" d="M479.5,144.3l1.7,1.3l0,0.5l0,0.4l0,1l-0.1,4.1l-0.1,4.1l-0.1,4.1l-0.1,4.1l-0.1,4.1l-0.1,4.1
		l-0.1,4.1l-0.1,4.1l-0.1,4.1l-0.1,4.1l-0.1,4.1l-0.1,4.1l-0.1,4.1l-0.1,4.1l-0.1,4.1l-0.1,4.2l0.5,4.2l0.5,4.2l0.5,4.2l0.5,4.2
		l0.5,4.2l0.5,4.2l0.5,4.2l0.6,4.6l-5.6,0.8l-2.6-1l-1-0.1l-0.6,0.1l-2.8,1.3l-3.2,1l-0.8-0.2l-1.1,0l-2.2,2.9l-1.5,0.8l-0.5-0.1
		l-0.5-0.1l-0.4-0.3l-0.8-1.6l-0.3-1.2l-1-2.5l-1.1-1.4l-1.2-0.9l-0.6-0.9l0-0.6l-0.4-1.1l0-0.9l1.1-3.6l0.4-2.6l-4.6,0.3l-4.6,0.3
		l-4.6,0.3l-4.6,0.3l-4.6,0.3l-4.6,0.2l-4.6,0.2l-4.6,0.2l0-0.6l0.8-0.8l0.2-1l-0.8-2.4l0.2-1.3l1.1-0.3l0.5-1.3l-0.1-2.3l0.4-1.6
		l0.8-0.9l0.8-1.9l0.7-3l1.5-2.5l2.4-2.1l1.1-1.7v-1.3l0.2-0.6l0.5-0.4l0.8-0.9l1-1.3l0.2-0.8l-0.1-0.6l-0.1-0.6l-0.9-1.1l-1.4-0.9
		l-0.9-1.4v-1.1l-0.3-1l-0.7-0.8l0.1-0.8l0.9-0.8v-0.7L428,198l-0.1-1.2l0.7-1.7l-0.1-1.2l-0.9-0.6l-0.2-1.1l-0.1-0.5l0.7-4
		l-0.2-0.5l-0.9-1.1l-0.2-1.4l0.4-1.8l-0.3-1.4l-0.8-0.5l-0.2-0.5l-0.3-0.8l0.7-0.8l0-0.7l-0.7-0.6l0.4-0.9l1.5-1.2l0.4-0.7l0.4-0.7
		l0.2-1.7l-0.3-1l-0.4-0.6l0.2-0.3l0.3-0.3l1.8-0.7l0.5-0.5l0.1-0.5l-0.7-1.2l0.5-1.4l1.6-1.5l0.8-1.3l0-1.1l0.8-0.8l1.5-0.6l0.8-2
		l0.2-3.5l0.4-1.5l0.8-0.3l0.4-0.5l0.1-1l0.9-1.1l1.7-1.2l0.6-1.1l-0.2-0.5l0-0.7l4.7-0.3l4.9-0.3l4.8-0.3l4.8-0.4l4.8-0.4l4.8-0.4
		l4.8-0.4L479.5,144.3z M481.2,251.4l-0.2,0.3l-1.8-0.3l-1.1-0.4l-0.2-0.4l3,0.5L481.2,251.4z"/>
	<path id="US-MT" class="st0" d="M211.2-98.8l-0.4,5.2l-0.4,5.2l-0.4,5.2l-0.4,5.2l0,0.1l0,0.1l0,0.1l0,0.1l-0.1,0l-0.1,0l-0.1,0
		l-0.1,0l-3.5-0.3l-3.5-0.3l-3.5-0.3l-3.5-0.3l-3.5-0.3l-3.5-0.4l-3.5-0.4l-3.5-0.4l-3.5-0.4l-3.5-0.4l-3.5-0.4l-3.5-0.4l-3.5-0.4
		l-3.4-0.4l-3.5-0.4l-3.5-0.4l-3.5-0.4l-3.4-0.5l-3.4-0.5l-3.5-0.5l-3.4-0.5l-3.5-0.5l-3.4-0.5l-3.4-0.5l-3.4-0.5l-3.4-0.5l-3.4-0.5
		l-3.4-0.5l-3.4-0.5l-3.4-0.6l-3.4-0.6l-3.4-0.6L98-89.2l-0.5,2.8l-0.5,2.8l-0.5,2.8l-0.9-0.8l-0.6-0.8l-0.4-0.9L94-85.6l-0.5-0.9
		L93.1-87l-0.5-0.1L91.8-87l-0.6,0.4l-0.3,0.8l-0.7,1l-0.1,0.9l0.1,0.5l-0.1,0.2l-0.4,0.1l-2.5-0.8L85-83.8l-1.4-0.6l-2.9-0.3
		l-2.4-0.7l-0.9,0l-0.6,0.4l-0.9,1.1l-0.2,0.2l-0.3,0l-3.9-1.4l-1.1-0.2l-1.3,0.6l-0.5,0.5l-0.2,0.7l-0.3,0.1l-0.4-0.1L67-84.3
		l-0.8-0.9l-0.4-0.7l0.1-1.3l-0.5-1.6l0.1-1.3l-0.3-1.2l-0.5-1.2l-0.6-0.9l-0.7-0.4L62.2-94L62-94.1l-1.2-1.7l-0.3-0.7l0-0.6
		l0.8-1.3l0-0.8l-0.2-1l-0.4-0.9l-0.7-0.8l-0.5-1.7l-1-2.4l-0.1-1.7l-0.3-1.5l0.1-1.4l-0.4-0.9l0.2-1l0-0.3l-0.1-0.2l-0.8-0.8
		l-0.9-1.3l-0.5-0.3l-0.2-0.1l-0.2,0.2l-0.2,0.5l-2,1.4l-1.6,0.5l-0.9,0.7L50-112l-0.3,0l-0.4-0.3l-1.3-1.5l-1.1-0.8l-0.1-0.3l0.3-1
		l0.8-1l-0.1-2.2l0.3-0.7l0.6-0.4l1.5-0.5l0.2-0.3l0.1-2.1l-0.6-0.9l-0.1-0.5l0.6-1.6l-0.1-1.1l0.8-0.8l0.4-1.6l0.8-1.5l1-2.3
		l0.1-1.1l0.9-1l0.4-1.1l0.2-0.8v-0.5l-0.2-0.2l-0.5-0.1l-2.2,0l-0.6-0.2l-0.5-0.3l-0.3-0.4l0.1-0.9l-0.3-0.7l-0.2-0.1l-1,0.2
		l-0.2-0.1l-0.1-0.2l-0.2-0.8l-1.2-1.8l-0.4-1.9l-1.2-1.8l-1-2.3l-2-3.8l-0.5-0.8l-1.8-1.6l-1.3-2l-1.4-1.5l-0.1-0.2l0-0.1l0.1-0.1
		l0.5-0.2l0.2-0.6l-0.4-1.3l0.6-1.1l0-1.7l-0.1-0.6l-0.8-1.8l-0.4-1.6l-0.9-1.6l-1.1-2.6l1.2-5.4l1.2-5.4l1.2-5.4l1.2-5.4l2.7,0.6
		l6.2,1.4l6.2,1.3l6.2,1.3l6.2,1.3l1.4,0.3l4.8,1l6.2,1.2l6.2,1.2l6.2,1.2l6.2,1.1l6.2,1.1l6.3,1.1l6.3,1l6.3,1l4.7,0.8l1.5,0.2
		l6.3,1l6.3,0.9l6.3,0.9l6.3,0.9l6.3,0.8l6.3,0.8l6.3,0.8l6.3,0.7l6.3,0.7l6.3,0.7l6.3,0.7l6.3,0.6l6.3,0.6l4.7,0.4l-0.3,4.3
		l-0.4,4.3l-0.4,4.3l-0.4,4.3l-0.4,4.3l-0.4,4.3l-0.4,4.3L214-133l-0.4,4.3l-0.4,4.3l-0.3,4.3l-0.4,4.3l-0.4,4.3l-0.4,4.3l-0.3,4.3
		L211.2-98.8z"/>
	<path id="US-NC" class="st0" d="M692.8,76.4l-0.1,1.8l0.5,0.9l1.2,0.8l1.6,2.3l1.6,3.2l-1.4-1.1l-1.3-0.5l-2-0.1l-1.8-0.6l0.4,1.4
		l0.2,1.5l-1.4-0.2l-1-0.3l1.1,1.4l-1.8-0.1l-1.1,0.3l-0.4,1.6l-0.8,1.1l-1.4,0.6l-2.4-0.9l-1-1.4l-0.7-1.7l0.3,2.1l0.8,2.1l0.2,1.7
		l2.1-0.1l1.8-0.7l2.6-0.5l1.6-0.7l0.9-0.8l2.5-0.1l0.6,2l0.2,2l0.3,2.1l0.7-0.2l0.6-0.9l-0.4-3.9l1.9-1.9l0.8-0.1l1,1l0.5,1.2
		l0.6,1.6l0.1,2.7l-2.7,3.8l-1.8,3.3l-1.1,0.9l-1.9,0.1l-2.2-0.2l-1,0.1l-0.7,0.4l-0.7-0.8l-0.6-1.5l-0.9-0.4l-0.6,0.2l-0.1,1.8
		l-1.8,0.9l-2.7-0.1l-3-0.8l1.5,1.2l7.3,1.4l0.9,0.4l0.9,0.6l-0.7,1.4l-0.4,1.5l0.1,1.1l-0.1,0.7l-2.3,2.4h-1.5l-4.4-2.5l2.3,2.5
		l1.6,0.9l2.9,0l4.9-2.2l1.9,0.8l-0.9,2.3l-1.1,1.7l-1.8,0.5l-1.5,0.7l-0.3,1.1l-1.1,0.3l-1.8,0.4l-2.7,0.7l-1.6,0.1l-1.7,2.5
		l-0.7,0.4l-1.2-0.1l-0.8-1.5l-0.7-0.7l0.6,3l0.4,0.8l0.5,0.5l-2.2,2.2l-2,2.5l-0.7,0.7l-0.8,1.2l-1.4,3.4l-0.1,2.3l-0.2,2.6
		l-0.3-1.1l-0.2-1.9l-0.9-2l0.5,3.9l-0.4,1.9l-7.2,1.3l-2.7,1.5l-3.1-2.1l-2.9-2l-2.9-2l-2.9-2l-2.9-2l-2.9-2l-2.9-2l-2.9-2.1
		l-2.6,0.4l-2.6,0.4l-2.6,0.4l-2.6,0.4l-2.6,0.4l-2.6,0.4l-2.6,0.4l-2.6,0.4l-0.4-1.7l-0.3-1.2l-1.9-1.8l-1.1-1.1l-1.8,1.4l-0.2-0.5
		l-0.1-0.9l-0.2-0.3l-0.6-0.1l-2.9,0.4l-2.9,0.3l-2.9,0.3l-2.9,0.3l-2.9,0.3l-2.9,0.3l-2.9,0.3l-2.9,0.3l-0.7-0.1l-1.2,0.9l-3.2,1.6
		l-1.5,1.2l-0.6,0l-2.8,1.4l-2.8,1.4l-0.3,0l-5.5,0.9l-5.5,0.8l-5.5,0.8l-5.5,0.8l0.1-4.8l0.3-1.1l0.5-0.3l1.9-0.3l1.1-0.7l0.7-3
		l2.1-2.5l1-0.7l1.5-0.6l3.7-1.1l3.8-2.7l2.7-2.5l2.2-0.9l0.6-0.9l0.4-1l0.1-1.4l0.2-0.3l1.3-0.1l0.8-1.3l0.9-0.8l0.9-0.5l0.6-0.1
		l0.3,0.3l0.3,1l0.3,0.3l0.4,0l0.5-0.3l0.7-0.8l1.7-2.3l1.2-1l1.9-0.7l1.6,0.8l0.8-0.5l1.9-4.4l0.9-0.9l0.7-0.4l1.3-0.3l-0.2-1.1
		l0.2-1.7l-0.1-1.1l0.5-1.8l0.4,0.3l6.4-1l6.4-1l6.4-1l6.4-1l6.4-1.1l6.4-1.1l6.4-1.1l6.4-1.1l6.4-1.2l6.4-1.2l6.4-1.2l6.4-1.2
		l6.4-1.3l6.4-1.3l6.3-1.3L692.8,76.4z M694.1,76.1l0.6-0.1l3.3,6.6l5.2,6.8l0.7,1.2l-1.1-1l-3.8-4.4l-2.3-3.3L694.1,76.1z
		 M702,90.2l-0.2,0.5l-1.7-2.1l1.4,0.5l0.4,0.6L702,90.2z M706.7,103.2l-2.2,1.1l-0.2-0.1l2.4-1.9l-0.1-4.6l-0.3-2l-1.2-3.5
		l-0.2-0.7l0.7,1l1.2,3.2l0.4,2.5l0.1,3.8L706.7,103.2z M702.7,105.2l-2.9,2.3l-0.4,0l1.9-1.6L702.7,105.2z M692.4,120l-0.4,0.4
		l1.1-3.1l2.5-4.2l0.8-0.7l-2,3.5L692.4,120z M691.6,119.9l-0.4,0.1l-0.8-0.1l-1.1-0.2l-0.3-0.3l1-0.1L691.6,119.9z"/>
	<path id="US-ND" class="st0" d="M327.6-93.3l-3.6,0l-3.6,0l-3.6,0l-3.7-0.1l-3.6-0.1l-3.6-0.1l-3.6-0.1l-3.7-0.1l-3.6-0.1l-3.6-0.1
		l-3.6-0.1l-3.6-0.1l-3.6-0.1l-3.6-0.1l-3.6-0.2l-3.6-0.2l-3.6-0.2l-3.6-0.2l-3.6-0.2l-3.6-0.2l-3.6-0.2l-3.6-0.2l-3.6-0.2l-3.6-0.2
		l-3.6-0.2l-3.6-0.3l-3.6-0.3l-3.6-0.3l-3.6-0.3l-3.6-0.3l-3.6-0.3l-3.6-0.3l0.4-4.3l0.3-4.3l0.4-4.3l0.4-4.3l0.4-4.3l0.3-4.3
		l0.4-4.3l0.4-4.3l0.4-4.3l0.4-4.3l0.4-4.3l0.4-4.3l0.4-4.3l0.4-4.3l0.4-4.3l0.3-4.3l1.6,0.1l6.3,0.5l6.3,0.5l6.3,0.5l6.3,0.4
		l6.3,0.4l6.3,0.4l6.3,0.4l6.3,0.3l6.3,0.3l6.3,0.3l6.4,0.2l6.3,0.2l6.3,0.2l6.3,0.2l6.3,0.1l4.5,0.1l1.4,7.1l0,2l-0.2,1.3l0.2,2.2
		l-0.1,1.5l0.2,1.9l-0.1,2.5l0.7,2.9l1,2.7l0,0.8l0.3,1.6l0.6,1.3l1.3,3.9l-0.1,3.7l0.2,1.1l0.3,8l0.1,1l0.7,1.2l-0.4,1.8l0,0.9
		l0.1,3.3l0.4,1.3l0.4,2.6l1.7,3.3l0.3,1.2l0.1,1l0.5,2l-0.2,2.7L327.6-93.3z"/>
	<path id="US-NE" class="st0" d="M328.3-16.7l0.5,0.1l1.1,2l0.4,3.5l1,2.8l1.5,2.1l0.8,1.6l0,1l0.4,1.1l0.7,1.1l0.3,1.9L335,3.4
		l0.3,1.4l0.8,0.2l0.3,0.4L336.3,6l0.3,0.4l0.6,0.3l0.2,0.8l-0.3,1.3l0.2,0.8l0.7,0.3l0.1,0.6l-0.5,0.9l0.1,0.7l0.6,0.5l0.4,2.4
		l0.2,4.2l-0.1,2.5l-0.3,0.7l0.6,1.5l1,1.6l0.4,0.7l0.9,2.3l0.4,2.3l0.9,1.5l1.5,0.7l1,1.5l0.5,2.3l1.2,1.9l0.3,0.2l-3.1,0l-3.6,0
		l-3.6,0l-3.6,0l-3.6,0l-3.6,0l-3.6,0l-3.6,0l-3.6,0l-3.6-0.1l-3.6-0.1l-3.6-0.1l-3.6-0.1l-3.6-0.1l-3.6-0.1l-3.6-0.1l-3.6-0.1
		l-3.6-0.1l-3.6-0.1l-3.6-0.1l-3.6-0.1l-3.6-0.1l-3.6-0.2l-3.6-0.2l-3.6-0.2l-3.6-0.2l-3.6-0.2l-3.6-0.2l-3.6-0.2l-3.6-0.2l-3.6-0.2
		l-3.6-0.2l0.2-2.8l0.2-2.8l0.2-2.8l0.2-2.8l0.2-2.8l0.2-2.8l0.2-2.8l0.2-2.8l-4.2-0.3l-4.2-0.3l-4.2-0.3l-4.2-0.3l-4.2-0.3
		l-4.2-0.4l-4.2-0.4l-4.2-0.4l0.5-5.5l0.5-5.5l0.5-5.6l0.5-5.5l0.5-5.6l0.5-5.6l0.5-5.5l0.5-5.6l5.6,0.5l5.6,0.5L222-32l5.7,0.4
		l5.6,0.4l5.7,0.4l5.6,0.4l5.7,0.3l5.7,0.3l5.7,0.3l5.7,0.3l5.7,0.3l5.6,0.2l5.7,0.2l5.7,0.2l6.5,0.2l4.8,3.4l2.9,1.1l1.4-0.9l3-0.5
		l4.6-0.1l2.9,0.5l1.2,1.1l2.4,1.2l3.5,1.3l2.1,1.4l0.7,1.5l1.2,1L328.3-16.7z"/>
	<path id="US-NH" class="st0" d="M743.9-86.1l0.1,3l0,1.5l-1.9,0.4l-0.7,0.4l-1.3,1.5l-0.9,0.6l-1.2,2.1l-1.2,1l-2.3,0.6l-2.3,0.6
		l-2.3,0.5l-2.3,0.5l-2.3,0.5l-2.3,0.5l-2.3,0.5l-2.3,0.5l-0.5-0.7l-1.2-1.1l-0.4-0.5l-0.1-0.7l0-1.8l0.2-0.6l0.1-1.1l-0.5-4.2
		l-0.1-2.4l-0.8-4.3l0-1.3l0.2-0.9l0.1-2.2l0.7-1.9l0.2-2.2l0.5-2l-0.1-1.1l0.1-2.4l-0.6-4.1l0.3-0.8l1.9-1.1l0.5-0.6l1.8-2.2
		l0.5-0.9l0.2-0.8l0-1.2l0.2-0.4l-0.1-0.6l-1.5-2.4l-0.3-0.9l0.9-3.4l-0.8-1.6l0.1-0.5l0.3-4.6l0.9-2.3l2.1,0.1l1-0.3l0.6-0.9
		l0.7,2.1l0.8,2.4l0.8,2.4l0.8,2.4l0.8,2.3l0.8,2.3l0.8,2.3l0.8,2.3l0.8,2.4l0.8,2.3l0.8,2.3l0.8,2.3l0.8,2.3l0.8,2.4l0.8,2.3
		l0.8,2.4l0.4,1.6l0.6,1.4l0.9,1.2l2,1.5l0.7,1.5L743.9-86.1z"/>
	<path id="US-NJ" class="st0" d="M704.9-27.9l0.1,1.8l-0.8,3.8l-0.5,1l-0.6,0.9l-0.5,0.4l-0.4,0.7l-0.4,1l-0.2,1.9l0.8,1.5l3.3-0.2
		l0.7-0.7l0.7,1l0.6,1.5l0.2,1.7l-0.1,1.8l0.1,2.2l0.5,3.3l0.2,3L708.2-2l-0.6-3.6l-0.4,0.5l-0.2,0.9l0.2,4.8l-0.8,2.8l-0.8,2
		l-1.3,0l0.6,1.3l-0.2,0.8l0.1,1.5l-0.5,1.1l-0.7,0.1l-0.9,0.9l-0.3,0.6l0.2,1l-0.5,1l-1.4,5.1l-1.9,1.8l-0.6-0.1l0.1-2.2l-0.1-2.2
		l-1.5-0.6l-1.4-0.2l-1.4,0.4l-2-1.3l-2.3-0.7l-3.6-2.6l-0.1-0.9l-0.4-1.5l0.3-2.6l0.4-1.9l0.9-1.1l3.1-1.6l0.5-1.5l0.2-1.2l0.7-0.9
		l1.6-1.8l2.5-2.3l-5.3-4.5l-1-0.1l-1.7-2.4l-1.4-0.4l-0.4-0.3l-0.5-2l-0.2-1.2l0-0.7l0.9-0.8l0.3-1.3l-0.1-0.6l-1.2-1.7l-0.1-0.6
		l1.2-1.5l1.4-2.7l0.6-2.7l0.3-0.8l0.4-0.6l1.1-1l1.8,0.6l1.8,0.6l1.8,0.6l1.9,0.6l1.9,0.6l1.9,0.6l1.9,0.6L704.9-27.9z M708.2,1.4
		L707,5.1l-0.2-0.6l1.4-4.7L708.2,1.4z"/>
	<path id="US-NM" class="st0" d="M210.7,112.2l-0.8-0.1l-0.5,6.2l-0.5,6.2l-0.5,6.2l-0.5,6.2l-0.5,6.2l-0.5,6.2l-0.5,6.2l-0.5,6.2
		l-0.5,6.2l-0.5,6.2l-0.5,6.2l-0.5,6.2l-0.5,6.2l-0.5,6.3l-0.5,6.3l-0.5,6.3l-4.3-0.3l-4.3-0.4L189,211l-4.3-0.4l-4.3-0.4l-4.3-0.4
		l-4.3-0.4l-4.3-0.4l-4.3-0.4l-4.3-0.4l-4.3-0.4l-4.3-0.5l-4.3-0.5l-4.2-0.5l-4.3-0.5l-4.2-0.5h-0.1l1.5,4.2l0,0l2.2,1.4l-0.1-0.1
		l-4.2-0.5l-4.2-0.5l-4.2-0.5l-4.2-0.5l-4.2-0.5l-4.2-0.6l-4.2-0.6l-4.2-0.6l-0.3,2.5l-0.3,2.5l-0.4,2.5l-0.3,2.5l-6.7-0.9l-6.7-0.9
		l-2.4-0.3l1.1-7.9l1.1-7.9l1.1-7.8l1.1-7.8l1.1-7.8l1.1-7.8l1.1-7.8l1.1-7.8l1.1-7.8l1.1-7.8l1.1-7.8l1.1-7.8l1.1-7.8l1.1-7.8
		l1.1-7.8l1.1-7.8l6.7,0.9l6.7,0.9l6.7,0.9l6.7,0.9l6.7,0.8l6.7,0.8l6.7,0.8l6.7,0.8l6.7,0.7l6.7,0.7l6.7,0.7l6.7,0.7l6.7,0.6
		l6.7,0.6l6.7,0.6l6.7,0.5l-0.2,2.8l-0.2,2.8l-0.2,2.8L210.7,112.2z"/>
	<path id="US-NV" class="st0" d="M16.7,74L15,82.5l-1.9,9.4L12.7,92l-1.5,1.9l-1.3,0.8l-0.9-0.2l-0.7-0.8l-0.6-1.4l-1.2-1l-1.7-0.5
		l-1.6-0.1L1.8,91l-1,0.6L0,93l0,0.7l0.5,1.6l-0.4,2.3l-0.3,1.9l0.3,1.1L0,101.7l-0.7,1.8l-0.1,1.6l0.5,2.9l-1.9,7.7l0,0.1l-3.9-5.6
		l-3.6-5.3l-3.6-5.3l-3.6-5.3l-3.5-5.3l-3.5-5.3l-3.5-5.3l-3.5-5.3l-2.5-3.7l-2.5-3.7l-2.5-3.7l-2.5-3.7l-2.5-3.7l-2.4-3.7l-2.4-3.8
		l-2.4-3.8l-3.1-4.5l-3.1-4.5l-3.1-4.5L-63,25l-3-4.6l-3-4.5l-3-4.6l-3-4.6l1.1-4l1.1-4l1.1-4l1.1-4l1.1-4l1.1-4l1.1-4l1.1-4l1.1-4
		l1.1-4l1.1-4l1.1-4l1.1-4l1.1-4l1.1-4l1.1-4l6,1.6l6,1.6l6,1.6l6,1.5l6,1.5l6,1.5l6,1.5l6,1.4l6,1.4l6,1.4l6,1.3l6,1.3l6,1.3l6,1.3
		l6,1.2l6,1.2l-0.7,3.4l-0.7,3.4l-0.7,3.4l-0.7,3.4l-0.7,3.4l-0.7,3.4l-0.7,3.4l-0.7,3.4l-0.7,3.4l-0.7,3.4l-0.7,3.4l-0.7,3.4
		l-0.7,3.4L29,12.8l-0.7,3.4l-0.7,3.4L27,23l-0.7,3.4l-0.7,3.4l-0.7,3.4l-0.7,3.4L23.6,40l-0.7,3.4l-0.7,3.4l-0.7,3.4l-0.7,3.4
		L20.2,57l-0.7,3.4l-0.7,3.4l-0.7,3.4l-0.7,3.4L16.7,74z"/>
	<path id="US-NY" class="st0" d="M619.7-127.4L619.7-127.4L619.7-127.4L619.7-127.4z M705.9-68.5l0,1.9l0,1.9l0,1.9l-0.1,1.9
		l-0.1,1.9l-0.1,1.9l-0.1,1.9l-0.1,1.9l0.6,0.4l0.4,2.1l0.4,2.1l0.4,2.1l0.4,2.1l0.4,2.1l0.4,2.1l0.4,2.1l0.4,2.1l0.7,0.7l0.7,0.7
		l-0.5,0.5l-0.8,0.8l-0.8,0.9l-1.1,1.2l0.9,0.9l1.2,1.1l-0.5,0.7l-1.3,2.3l-0.9,1.3l-0.9,0.6l-0.4,1l-0.5,0.7l0.2-2l0.3-1.8
		l-0.2-3.2l-0.8-2.4l-1-0.9l-0.9-0.5l1.5,2.2l0.9,3l0,0.1l-1.8-0.6l-1.9-0.6l-1.9-0.6l-1.9-0.6l-1.9-0.6l-1.8-0.6L692-32l-1.8-0.6
		l-0.5-0.7l-0.7-0.5l-3.2-0.4l-0.9-0.6l-0.9-0.8l-0.8-1.1l-0.5-1.2l-0.2-1l-0.1-1.2l-0.8-0.6l-0.2-0.7l-0.5-0.4l-2.1-0.4l-0.8-1.1
		l-1.5-0.8l-2.2,0.5l-2.2,0.5l-2.2,0.5l-2.2,0.5l-2.2,0.5l-2.2,0.5l-2.2,0.5l-2.2,0.5l-2.2,0.5l-2.2,0.5l-2.2,0.5l-2.2,0.5l-2.2,0.5
		l-2.2,0.5l-2.2,0.5l-2.2,0.5l-2.2,0.5l-2.2,0.4l-2.2,0.4l-2.2,0.4l-2.2,0.4l-2.2,0.4l-2.2,0.4l-2.2,0.4l-2.2,0.4l-2.2,0.4l-2.2,0.4
		l-2.2,0.4l-2.2,0.4l-2.2,0.4l-2.2,0.4l-2.2,0.4l-0.5-2.9l-0.5-2.9l0-0.1l0.9-0.7l2.8-2.6l1.3-1.7l1.4-1.5l1.5-1.3l1.1-1.5l0.7-1.7
		l0.9-1.3l1.1-1l0.5-0.9l-0.1-0.8l-0.4-1.1l-0.8-1.3l-0.3-1.1l0.2-0.9l0-0.6l-0.3-0.2l-2.7-0.3l-0.6-3.8l-0.1-0.1l0.1-0.1l5.5-2.8
		l3.6-1.3l4.5-1l5.5-0.3l2.2,0.3l1.5,0.7l1.6-0.1l1.6-0.8l2.4-0.6l3.1-0.5l1.7-0.1l0.3,0.2l0.2-0.1l0.1-0.5l0.7-0.7l2.1-1.3l0.3,0.1
		l0.4-0.5l0.4-1.1l0.9-1.3l1.4-1.5l1.4-0.9l1.4-0.4l0.8-0.5l0.3-0.6l0-0.5l-0.3-0.4l0-0.5l0-0.2l-0.1-0.2l-0.2-0.3l-0.6-1.9
		l-0.5-0.8l-0.5-0.6l-0.6-0.3l0-0.5l0.7-0.7l0.1,0.5l0.2,0.1l0.3-0.3l0.6-1.3v-0.4l0.5-0.6l0.3-0.8l-0.5,0l-1.1,0.5l-0.3-0.1
		l0.4-1.1l-0.2-0.5l-0.2-0.2h-0.4l-1.1,1.1l-0.4,0.2l-0.2-0.4l-0.9-0.8l1.4-2.1l5.3-6.1l0.5-0.9l0.1-0.7l-0.3-0.5l-0.2-0.1l0.1-0.2
		l4.7-7.4l2.8-3.6l2.5-2.2l2-1.2l1.5-0.2l0.8-0.3l0.7-0.2l3.6-0.9l6.4-1.6l6.4-1.6l3.8-1l0.5,1.4l0.1,1.8l0.7,1.8l0.6,3.9l1.7,2.7
		l0.3,2.1l0.6,2.1l0,0.6l-0.4,1.4l-0.1,1.3l0.1,1.3l0.2,0.8l1.6,3.4l0.5,1.5l0.2,0.9l0.2,3.1l0.2,0.8l0.2,0.2l0.2-0.1l0.4-1.1
		l0.3-0.2l0.4,0.1l1.3,1.1l0.6,2.5l0.4,1.8l0.5,2l0.7,3l0.5,2.2l0.5,2l0.4,1.5l0.1,1.2L705.9-68.5z M652.9-90.8l-0.4,0.3l-0.2-0.2
		l0-0.3l0.3-0.4l0.7-0.1l0,0.3L652.9-90.8z M651.9-84l-0.2,0.1l-0.1-0.5l0.2-0.4l0.4-0.2l0,0.2L651.9-84z M613.8-54.2l-0.3,0.8
		l-0.5,0l-0.4-0.2l-0.2-0.4l0-0.6l0.4-0.3l1.2,0l0.1,0.2L613.8-54.2z M727.8-33.6l-0.8,1.7l1.1-0.1l0.8-0.6l0.6-1.1l1.7-1.6l1.6-0.9
		l0.5-0.2l1,0.6l1.4-1.1l1.5-0.8l-6.1,5.5l-1.3,0.8l-1.8,1.6l-1.8,1.3l-1.3,0.6l-6.4,4.5l-0.6,0.2l-0.7-0.1l-5.5,2.9l-2.4,0.8
		l-2.1,1l1.3-1.5l-0.1-0.4l-0.5-0.2l-0.8,0.3l-0.6,1.4l-1.3,0.7l-0.6-1.2l0.2-1.1l0.4-1.1l1-1.8l1.8-1.4l0.8-1l0.9,0.5l-0.1-1
		l0.4-0.7l0.5-0.4l1.4-0.4l0.7-0.3l0.5-0.4l0.6-0.2l1.7,0l1.5-0.5l1.1-0.9l1.2-0.5l3.3-1l3.2-1.3l1.1-1.1l2.2-2.9l1.4-1l-1.8,3.1
		L727.8-33.6z M702.8-16.6l-0.8,0.3l0.3-2.3l1.2-1.3l0.6,0.1l0.2,0.7l-0.1,0.7l-0.7,1.2L702.8-16.6z"/>
	<path id="US-OH" class="st0" d="M597.2,2.6l-1.8,1.3l-0.2,0.9l0.8,1l0.6,1.4l0.3,1.8l-0.4,4.1l-1.2,6.4l-0.5,4l0.2,1.6l-1.2,2.3
		l-2.6,3l-1.8,1.9l-1.1,0.7l-1,0.1l-0.9-0.5l-0.8,0.6l-0.8,1.6l-0.8,0.9l-0.9,0.2l-0.6,1l-0.3,1.9l-0.4,1.1l-0.5,0.4l0.1,0.9
		l0.7,1.5l0,0.6l-0.3,0.1l-0.2,0l-0.5,0.4l-0.5,1l-0.2,0.1l-0.2-0.1l-0.4-1.1l-0.7-0.7l-0.9-0.3l-1.1,1.2l-1.2,2.8l-0.4,1.8l0.5,1.1
		l0.4,1.7l-0.3,0.8l-0.8,0.4l-0.5,1l-0.2,1.7l-1,1.2l-1.9,0.7l-2.1-0.4l-0.2,0l-2.7-1.6l-1.8-1.7l-0.9-1.7l-2.1,0.2l-3.3,2.1
		l-2.6,0.6l-2-0.9l-1.4-0.3l-1.3,0.6l-1.2,0.9l-1.1-0.3l-1.5-1.2l-2.2-0.7l-2.9-0.1l-2.2-1.2l-1.4-2.3l-1.4-1.5l-1.4-0.7l-1.4-0.1
		l-1.4,0.6l-1.2,0l-0.9-0.7l-1,0.2l-0.9,0.8l-0.9-7.3l-0.8-7.2l-0.8-7.2l-0.8-7.2l-0.8-7.2l-0.8-7.2l-0.8-7.2l-0.8-7.2l5.5-0.9
		l5.5-0.9l5.5-0.9l5.5-1l0.1-0.1l0,0.1l0.3,0.4l1.5,0l1.1,0.3l0.9,0.6l3.1,0.9l1,0.7l0.9,0.3l0.9,0l0.5-0.3l0.2-0.7l0.4-0.1l0.6,0.5
		l1.7,0.3l0.1,0.2l-4.3,1.7l-0.9,0.6l1.2,0.2l1.1-0.2l1.1-0.7l1.3-0.2l1.2,0.1l0.3-0.2l0.1-0.1l2.2,1l0.8,0.1l0.7-0.3l0.7-0.6
		l1.6-0.9l2.5-1.2l2.5-0.7l2.5-0.2l1.5-0.5l1.3-1l2.7-3.2l3.2-2.8l5.5-3.7l5.4-3.1l0.3,1.8l0.4,2.3l0.4,2.3l0.4,2.3l0.4,2.3l0.4,2.3
		l0.4,2.3l0.4,2.3l0.4,2.3l0.4,2.3l0.4,2.3l0.4,2.3L597.2,2.6z"/>
	<path id="US-OK" class="st0" d="M361.1,116.8l0.5,3.1l0.4,3.1l0.5,3.1l0.5,3.1l0.5,3.1l0.5,3.1l0.5,3.1l0.5,3.1l0,2.4l0,2.4l0,2.4
		l0,2.4l0,2.4l0,2.4l0,2.4l0,2.4l0,2.4l0,2.4l0,2.4l0,2.4l0,2.4l0,2.4l0,2.4l0,2.4l-4.2-1.1l-1.1-0.7l-1.9-0.8l-1.8-1.7l-3.4-2
		l-1.3-0.5l-0.4,0.1l-0.7,1l-1.8,0.8l-1,0l-1.8-0.3l-0.3-0.3l-0.3-0.6l-0.7-0.4l-0.5,0.3l-2.6,0.9l-0.4,0.6l-1.5,0l-1.5-0.4
		l-3.7,1.4l-1.3,1.1l-1.3,0.4l-0.7,1L330,179l-1.4-1.3l-1.4-0.4l-1.9-1.3l-0.1-1.1l-0.2-0.1l-0.3-0.1l-0.4,0.1l-0.9,1l-0.5,0.2
		l-0.5,0l-1.9-0.7l-0.8-1.1l-0.4-0.4l-0.4-0.1l-0.8,0.3l-0.5,1.3l-0.4,0.3l-0.8,0.2l0,0.6l-0.7,1.7l-0.4,0.3l-0.5-0.1l-0.5-0.4
		l-0.4-0.6l-0.2-0.5l0.3-1.4l-0.2-0.5l-0.4-0.1l-0.9,0.6l-0.8,0l-1,0.6l-0.7,0.2l-0.6-0.2l-0.9-1.1l-1.7-0.7l-0.6-1.2l-0.3-0.4
		l-0.4-0.1l-0.4,0l-0.6,0.4l-2,1.6l-0.9,0.5l-0.8,0.1l-0.7-0.2l-0.4-0.4l-0.1-1.7l-0.4-0.5l-1.8-1.1l-0.3-1l-0.1-1.4l-2.1,0.2
		l-2.6-0.2l-1.2,1.2l-0.6,0.2l-0.7-0.3l-2.1-1.7l-2.3,0.3l-1.3-0.2l-3.1-1.3l-2.5-0.2l-1-0.2l-0.5-0.3l-0.2-1.8l-0.9-1.6l-0.3-0.4
		l-1.6-1.2l-0.3,0l-0.2,0.2l-0.4,1.2l-0.5,0l-1.9-0.4l-1.8,0.3l-1-0.6l-3.2-3l-1.3-0.8l-1.1-0.3l0.1-2.7l0.1-2.7l0.1-2.7l0.1-2.7
		l0.1-2.7l0.1-2.7l0.1-2.7l0.1-2.7l0.1-2.7l0.1-2.7l0.1-2.7l0.1-2.7l0.1-2.7l0.1-2.6l0.1-2.7l0.1-2.7l-3.4-0.1l-3.4-0.2l-3.4-0.2
		l-3.4-0.2l-3.4-0.2l-3.4-0.2l-3.4-0.2l-3.4-0.2l-3.3-0.2l-3.4-0.2l-3.4-0.2l-3.3-0.2l-3.4-0.2l-3.3-0.2l-3.4-0.2l-3.4-0.2l0.2-2.8
		l0.2-2.8l0.2-2.8l0.2-2.8l4.4,0.3l4.4,0.3l4.4,0.3l4.4,0.3l4.1,0.3l4.1,0.3l4.1,0.2l4.1,0.2l4.1,0.2l4.1,0.2l4.1,0.2l4.1,0.2
		l4.1,0.2l4.1,0.2l4.1,0.2l4.1,0.1l4.1,0.1l4.1,0.1l4.1,0.1l4.1,0.1l4.1,0.1l4.1,0.1l4.1,0.1l4.1,0.1l4.1,0.1l4.1,0l4.1,0l4.1,0
		l4.1,0l4.1,0l4.1,0l4.1,0l4.1,0l4.1,0l4.1,0l4.1-0.1l0,2.8l0,2.8l0,2.8L361.1,116.8z"/>
	<path id="US-OR" class="st0" d="M-81.7-161.1l1.7-0.1l1,0.8l1.2,1.4l0.6,3.4l0,5.3l-0.2,1.7l0.8,1.3l1.3,0.4l5.2,2.3l0.8,0.2l0,0
		l1,0.1l3.6-1l3.5,0.3l3.9,1.3l2.2,1.2l0.6,1.2l2.1,0.7l5.3,0.3l5.7,0.8l3.2,0l3.8-0.7l8.2,0l3.9,0.8l2.1-0.3l0.6-0.3l0.3,0.1l4,1
		l4,1l4,1l4,1l4,1l4,1l4,1l3.8,0.9l0.2,1.1l1.2,2.2l1.9,2.1l1.1,2l0.3,1.9l-2,3.8l-4.4,5.6l-2.5,3.6l-0.6,1.7l-2.1,2.6l-3.6,3.6
		l-2,2.8l-0.4,2l0.6,1.4l1.7,0.7l1,0.9l0.4,1.1L3-91.9l-0.8,0.7l-0.4,0.8l0,1l-0.6,1.5l-1.8,3.1l0,0.1l-1.2,5.3l-1.1,4.9L-4-69.7
		l-1.1,4.9L-6.2-60l-1.1,4.8l-1.1,4.8l-1.1,4.8l-6-1.4l-6-1.5l-6-1.5l-6-1.5l-6-1.5l-6-1.6l-6-1.6l-6-1.6l-4.2-1.1l-4.2-1.2
		l-4.2-1.2l-4.2-1.2l-4.2-1.2l-4.2-1.2l-4.2-1.2l-4.2-1.2l-4.2-1.2l-4.2-1.3l-4.2-1.3l-4.2-1.3l-4.2-1.3l-4.2-1.3l-4.2-1.3l-4.3-1.4
		l-1.2-3.2l0.4-4.1l0.4-1.7l1.6-4.2v-2l-0.5-3.5l1.5-2.4l1.2-1.4l3.9-6.4l0.6-0.4l0.7,0.2l1.6-0.8l-0.5-0.4l-1,0.3l1.6-2.5l1.6-2.1
		l0.8-0.7l2.8-7.7l2.4-5.8l1.4-1.7l0.4-2.1l1.2-2.6l0.6-2.8l5.9-12.8l0.3-1.7l1.2-2l1.3-5.8l2.2-6.3l-0.2-0.9l0.1-0.9l0.4,0l0.5,1.2
		l3.5,1.1l2.5-0.1l0.7,0.5l0.6,1.5l1.1,0.6L-81.7-161.1z"/>
	<path id="US-PA" class="st0" d="M690.1-32.6l-1.1,1l-0.5,0.6l-0.3,0.8l-0.6,2.7l-1.4,2.7l-1.2,1.5l0.1,0.6l1.2,1.7l0.1,0.6
		l-0.3,1.3l-0.9,0.8l0,0.7l0.2,1.2l0.5,2l0.4,0.3l1.4,0.4l1.7,2.4l1,0.1l5.3,4.5l-2.5,2.3l-1.6,1.8L691-1.4l-1.2,2.3l-2.3,1.2
		l-1.2,1L686,3.6l-1.6-0.3l-2.1,0.6l-0.6,0.4l-0.4,0.7l-0.9,2l-3.9,0.9l-3.9,0.9l-3.9,0.8l-3.9,0.8l-3.9,0.8l-3.9,0.8l-3.9,0.8
		l-3.9,0.8l-3.9,0.8l-3.9,0.8l-3.9,0.8l-3.9,0.8l-3.9,0.8l-3.9,0.7l-3.9,0.7l-3.9,0.7l-2.2,0.4l-2.2,0.4l-2.2,0.4l-2.2,0.4l-2.2,0.4
		l-2.2,0.4l-2.2,0.4l-2.2,0.4l-0.4-2.5l-0.4-2.5l-0.4-2.5l-0.4-2.5l-0.4-2.5l-0.4-2.5l-0.4-2.5l-0.4-2.5l-0.4-2.3L596.4-2L596-4.3
		l-0.4-2.3l-0.4-2.3l-0.4-2.3l-0.4-2.3l-0.4-2.3l-0.4-2.3l-0.4-2.3l-0.4-2.3l-0.4-2.3l-0.3-1.8l2.8-1.6l1.2-1l1.2-1l0.6-0.6l0.7-0.5
		l4.6-3.8l0,0.1l0.5,3l0.5,2.9l2.2-0.4l2.3-0.4l2.2-0.4l2.2-0.4l2.2-0.4l2.2-0.4l2.2-0.4l2.2-0.4l2.2-0.4l2.2-0.4l2.2-0.4l2.2-0.4
		l2.2-0.4l2.2-0.4l2.2-0.5l2.2-0.5l2.2-0.5l2.2-0.5l2.2-0.5l2.2-0.5l2.2-0.5l2.2-0.5l2.2-0.5l2.2-0.5l2.2-0.5l2.2-0.5l2.2-0.5
		l2.2-0.5l2.2-0.5l2.2-0.5l2.2-0.5l2.2-0.5l1.5,0.8l0.8,1.1l2.1,0.4l0.5,0.4l0.2,0.7l0.8,0.6l0,1.2l0.2,1l0.5,1.2l0.8,1.1l0.9,0.8
		l0.9,0.5l3.2,0.4l0.7,0.5L690.1-32.6z"/>
	<path id="US-RI" class="st0" d="M744.2-54.7l-0.4,0.7l-0.9-0.6l-0.6-0.8l-0.6-0.4l-0.6-0.1l1,1.9l-0.6,1.8l0.8,3.9l-0.8,2l-3.7,2.1
		l-1.2,0.2l-0.1-1.3l0.3-0.6l-0.3-1.4l-0.2-0.9l-0.4-1.5l-0.5-1.7l-0.5-1.8l-0.4-1.6l-0.3-1.2l-0.4-1.6l-0.3-1.1l1.2-0.4l1.6-0.5
		l1.6-0.5l1-0.3l1.2-0.4l0.3,0.9l0.5,1.5l0.7,0.1l0.3,1.2l0.2,0.8l0.7,0.3l0.7,0.4L744.2-54.7z M745.4-50l-0.6,0.8l-0.9,0.1l0.2-0.9
		l-0.2-1.2l0.1-1.4l0.1-0.5l0.4-0.5L745.4-50z M743.4-49.3l-0.3,0.5l-0.4-1l0-1.3l0.3-0.1l0.3,0.6L743.4-49.3z"/>
	<path id="US-SC" class="st0" d="M658.5,144.4l-0.2,0.1l-4.2,4.2l-1.2,1.7l-2.9,6.3l-0.4,3.7l-1.1-1.3l0-1.2l-0.2-0.9l-0.6,2.1
		l1.5,2.7l-0.7,1.2l-2.3,2.5l-1.4,0.6l-1.5,0.9l-0.2,2.1l-1.9,2.3l-1.1,1.1l-2.5-0.1l1.1,1.7l-0.6,1.5l-1.3,1.3l-1.8,1l-1.1,0.1
		l-0.9,0.5l-0.6,1l-1.6,1.1l-1.9-0.1l-2.1,0.1l-1.1,0.7l2.1,0.5l1.2,1l0,1.6l-0.4,0.7l-1.1,1l-0.6,0l-0.4-0.7l-0.7-1.5l-0.5,0.4
		l0,0.7l-0.4,0.3l-2.2-2.1l0.4,1.9l0.9,1.3l0.7,0.6l0.7,0.3l0.3,0.6l-0.9,1.8l-0.6,0.5l-1,0.4l-0.5,1.1l0.3,0.8l-4.1-1.1l-1.4-1.4
		l-0.3-2.1l-1.1-2.2l-2.9-3.5l-1.8-0.8l-1.5-2.5l-1.8-4.4l-2.1-2.7l-2.4-0.9l-1.7-1.3l-1-1.6l-1-1l-0.9-0.4l-0.6-0.8l-0.3-1.2
		l-1.5-1.5l-4.2-2.5l-1.2-1.8l-2-1.7l-5-3.3l0,0l-5.3-7.1l0,0l-0.8-1.5l-1-0.5l-1.5,0l-1.5-0.6l-2.3-1.6l0,0l-3.8-1.9l0.4-2.2
		l2.3-3.2l0.7-1.6l0.1,0l0.3-0.1l2.8-1.4l2.8-1.4l0.6,0l1.5-1.2l3.2-1.6l1.2-0.9l0.7,0.1l2.9-0.3l2.9-0.3l2.9-0.3l2.9-0.3l2.9-0.3
		l2.9-0.3l2.9-0.3l2.9-0.3l0.6,0.1l0.2,0.3l0.1,0.9l0.2,0.5l1.8-1.4l1.1,1.1l2,1.8l0.3,1.2l0.4,1.7l2.6-0.4l2.6-0.4l2.6-0.4l2.6-0.4
		l2.6-0.4l2.6-0.4l2.6-0.4l2.6-0.4l2.9,2.1l2.9,2l2.9,2l2.9,2l2.9,2l2.9,2l2.9,2L658.5,144.4z"/>
	<path id="US-SD" class="st0" d="M327.6-93.3l-0.5,2.2l-0.4,1l-0.8,1l-2.4,2.1l-0.6,0.7l0.1,0.7l0.5,0.9l1.2,2l0.6,0.8l2.6,1.4
		l1.2,1.7l0,5l0,5l0,5l0,5l0,5l0,5l0,5l0,5l-2.4,0.1l0.3,1.4l0.6,1.4l0.1,0.8l-0.1,0.6l-0.5,0.6l0.1,0.9l0.1,0.2l1.1,0.6l0.4,0.8
		l0.1,0.9l0,0.7l-0.7,1.2l-0.2,1.6l-0.8,2.5l-0.9,1.5l-0.2,0.8l0.1,0.6l1.4,1.6l0.1,0.6l0.5,0.8l0.4,1.8l-1.3-0.3l-1.2-1l-0.7-1.5
		l-2.1-1.4l-3.5-1.3l-2.4-1.2l-1.2-1.1l-2.9-0.5l-4.6,0.1l-3,0.5l-1.4,0.9l-2.9-1.1l-4.8-3.4l-6.5-0.2l-5.7-0.2l-5.7-0.2l-5.6-0.2
		l-5.7-0.3l-5.7-0.3l-5.7-0.3l-5.7-0.3l-5.7-0.3l-5.6-0.4l-5.7-0.4l-5.6-0.4L222-32l-5.6-0.4l-5.6-0.5l-5.6-0.5l0.5-5.6l0.5-5.6
		l0.5-5.6l0.5-5.6l0.5-5.6l0.5-5.6l0.5-5.6l0.5-5.6l0.1,0l0.1,0l0.1,0l0.1,0l0-0.1l0-0.1l0-0.1l0-0.1l0.4-5.2l0.4-5.2l0.4-5.2
		l0.4-5.2l3.6,0.3l3.6,0.3l3.6,0.3l3.6,0.3l3.6,0.3l3.6,0.3l3.6,0.3l3.6,0.2l3.6,0.2l3.6,0.2l3.6,0.2l3.6,0.2l3.6,0.2l3.6,0.2
		l3.6,0.2l3.6,0.2l3.6,0.2l3.6,0.2l3.6,0.1l3.6,0.1l3.6,0.1l3.6,0.1l3.6,0.1l3.6,0.1l3.7,0.1l3.6,0.1l3.6,0.1l3.6,0.1l3.7,0.1l3.6,0
		l3.6,0L327.6-93.3z"/>
	<path id="US-TN" class="st0" d="M556.7,99.7l4-0.5l8.6-1.2l6.1-0.9l5-0.7l3-0.4l3.7-0.6l0.8-0.6l1.9-0.2l2.5-0.3l-0.5,1.8l0.1,1.1
		l-0.2,1.8l0.2,1.1l-1.3,0.3l-0.7,0.4l-0.9,0.9l-1.9,4.4l-0.8,0.5l-1.6-0.8l-1.9,0.7l-1.2,1l-1.7,2.3l-0.7,0.8l-0.5,0.3l-0.4,0
		l-0.3-0.3l-0.3-1l-0.3-0.3l-0.6,0.1l-0.9,0.5l-0.9,0.8L574,112l-1.4,0.1l-0.2,0.3l-0.1,1.4l-0.4,1.1l-0.6,0.8l-2.2,0.9l-2.7,2.5
		l-3.8,2.7l-3.7,1.1l-1.5,0.6l-1,0.7l-2.1,2.5l-0.7,3l-1.1,0.7l-1.9,0.3L550,131l-0.3,1.1l-0.1,4.8l-5.9,0.7l-5.9,0.7l-5.9,0.6
		l-5.9,0.6l-2.9,0.3l-2.9,0.3l-2.9,0.3l-2.9,0.3l-2.9,0.3l-2.9,0.3l-2.9,0.3l-2.9,0.3l-2.9,0.3l-2.9,0.2l-2.9,0.2l-2.9,0.2l-2.9,0.2
		l-2.9,0.2l-2.9,0.2l-2.9,0.2l-0.2,0l0.2,0.3l0.3,0.3l-4.9,0.4l-4.9,0.4l-4.8,0.4l-4.8,0.4l-4.9,0.3l-4.8,0.3l-4.9,0.3l-4.7,0.3
		l0-0.1l0.6-1l2-1.6l0.8-2l-0.4-2.4l0.6-2.3l1.7-2.1l0.6-2l-0.4-1.9l0.8-1.6l2-1.4l0.3-0.5l-0.1-0.4l-0.1-0.4l0-0.2l0.1-0.4l0.4-0.2
		l0.6-0.2l0.2-0.3l0-0.5l-0.4-0.9l0-0.4l0.1-0.6l0.9-1.7l0-1.4l-0.8-1.1l0.3-0.6l0.5-0.2l0.6-0.1l0.2-0.3l0-0.3l-0.6-0.7l0.1-0.7
		l0.8-0.5l0.2-1.2l-0.4-1.6l1.2-0.1l0,0.1l0.3,0.2l0.3-0.2l0,0l3.6-0.3l3.1-0.2l3.1-0.2l3.1-0.2l3.1-0.2l3.1-0.2l3.1-0.3l2.8-0.2
		l0,0l-0.2-2l-0.9-2.2h0.1l2.4,0l1.6,0l0.6,0.6l5.9-0.7l5.9-0.7l5.9-0.7l5.9-0.7l6.2-0.4l6.2-0.5l6.2-0.5l6.2-0.5l6.2-0.5l6.2-0.6
		l6.2-0.6l6.2-0.6l0.1-0.1l0.1-0.1l0.1-0.1l0.1-0.1l0.1-0.1l0.1-0.1l0.1-0.1L556.7,99.7z"/>
	<path id="US-TX" class="st0" d="M364.5,180.3l1,1.1l0.8,0.3l0.2,0.4l0.4,0.1l0.5-0.1l0.7-0.5l1,0.1l0.9-0.2l1.7,0.2l1,0.5l0.1,3
		l0.1,3l0.1,3l0.1,3l0.1,2.8l0.1,2.8l0.1,2.8l0.1,2.8l0.1,2.8l0.1,2.8l0.1,2.8l0.1,2.8l2.7,2.7l1.2,1.9l0.4,1l0.2,3.3l0.3,0.8
		l1.4,1.2l0,0.8l1.5,2.3l0,1.1l1.4,2.5l0.8,0.6l0.2,1.7l0.4,1.3l-0.6,0.9l0.3,1.3l-0.3,1.2l-0.2,1.6l-0.8,2.5l-0.8,1.2l-1,2.3
		l0.1,1.9l-0.6,2.1l0,0.8l0.6,1.4l0.3,3.8l-0.3,0.8l-1.2,2.3l-0.9,0l-2,3.8l1.2,2l-0.1,0.8l-4.1,0.5l-9.2,4.4l-3.6,2.3l0.2-0.8
		l4.4-3l-1.6-0.4l-2.5,0.8l-0.9-0.3l1-2.4l-0.4-2.1l-1.8,0l-1.1,1.7l-0.8-0.1l-1-0.7l-0.8,0.2l0.6,3.9l1.1,1.6l1,2l-2.5,2.5
		l-2.4,2.1l-0.2,2l-2.4,2.6l-2.2,1.5l-5.3,3.5l-1.5,0.8l-2.4,1.6l-3.3,1.2l-3.2,1.9l-1.1,0.3l2-1.6l2.4-1.6l-2.1,0.2l-3.2-0.8l-2,0
		l0,0.6l-1.5,0.8l-1.5-1.2l-0.7-0.8l-0.3-0.7l-0.7-0.2l-0.6,0.3l2.3,5l1,0.2l1.1,0.5l-1.4,1.2l-1.5,0.9l-2.3,0.6l-1.9-1.8l-0.4,2.3
		l-0.3,2.3l-0.7,0.6l-1,0.8l-0.6-0.6l-0.3-0.9l-0.7,0.8l-1,0.6l-1.6,0.1l-1.2,0.3l0,0.9l0.3,1l2.2-0.7l-0.8,2.4l-2,2.4l-1.6,0.5
		l-2.5-0.4l-0.6,0.2l-0.5,0.5l2.8,3.8l-1.9,5.7l-1.2,2l-0.8,0.2l-0.9,0l-3.2-1.9l-1.7-1.5l1.5,3.9l4.2,1.2l0.2,1.5l0,1.2l-0.8,1.5
		l-0.8,1.9l0.5,1.4l0.6,3.4l0.5,1.5l0.5,4.7l0.6,2l3.8,7.5l1.3,0.1l0.2,0.8l-0.1,1.5l-2.8,0.4l-1.2,0.7l-0.2,0.6l-0.2,0.3l-0.4,0
		l-1.3-0.5l-3-2.2l-4.4-1.4l-5.8-0.6l-3.9-1.2l-2.1-1.7l-2.2-1l-2.3-0.4l-1.9-0.9l-1.5-1.5l-2.2-1l-2.9-0.5l-1.8-1.2l-1.2-2.7v0
		l-1-4.5l-1.4-2.8l-2.7-3.5l-0.2-0.5l0,0v-0.6l0.4-2l-0.2-1.5l-0.9-1.2l-0.2-1.2l0.5-1.3l0.1-1.6l-0.3-1.8l-1.7-2l-3.1-2.2l-2.6-3.2
		l-2.1-4.2l-2.1-2.9l-2.1-1.7l-1.4-2l-0.7-2.3l-0.2-1.3l0.3-0.3l-1.2-2.6l-2.8-4.8l-1.5-3.5l-0.3-2.2l-1.8-2.7l-3.2-3.1l-1.7-2
		l-0.4-1.4h0l-5-4.2l-1.4-2.5l-1.1-0.8h-1.3l-0.7-0.3v-0.5l-0.4,0l-0.9,0.5l-2.8-0.1l-4.7-0.6l-3.3-0.9l-2-1.2l-1.5,0l-0.9,1.2
		l-1.8,0.7l-2.7,0.2l-2.5,2.3l-2.3,4.3l-1.1,2.8l0.1,1.3l-0.6,0.9l-1.3,0.5l-1.4,1.2l-1.5,1.9l-1.6,0.9l-1.8-0.2l-3.1-1.8l-4.5-3.5
		l-3.5-2.2l-2.6-1l-2.2-1.6l-1.9-2.3l-1.8-1.6l-1.7-0.9l-1.8-2.5l-1.9-4.2l-0.9-3.2l0.3-3.2l-2.3-7.3l-1.3-3.2l-1-1.5l-2.1-1.9
		l-3.2-2.3l-4.2-4.3l-5.1-6.4l-3.7-3.9l-2.2-1.5l-1.8-2.3l-1.4-3.2l-1.5-2.1l-0.2-0.1l-2.2-1.4l0,0l-1.5-4.3l0.1,0l4.2,0.5l4.3,0.5
		l4.3,0.5l4.3,0.5l4.3,0.5l4.3,0.4l4.3,0.4l4.3,0.4l4.3,0.4l4.3,0.4l4.3,0.4l4.3,0.4l4.3,0.4l4.3,0.4l4.3,0.4l4.3,0.3l0.5-6.3
		l0.5-6.3l0.5-6.3l0.5-6.2l0.5-6.2l0.5-6.2l0.5-6.2l0.5-6.2l0.5-6.2l0.5-6.2l0.5-6.2l0.5-6.2l0.5-6.2l0.5-6.2l0.5-6.2l0.5-6.2l0.8,0
		l3.3,0.3l3.3,0.2l3.3,0.2l3.4,0.2l3.4,0.2l3.4,0.2l3.4,0.2l3.4,0.2l3.4,0.2l3.4,0.2l3.4,0.2l3.4,0.2l3.4,0.2l3.4,0.2l3.4,0.2
		l3.4,0.1l-0.1,2.7l-0.1,2.7l-0.1,2.7l-0.1,2.7l-0.1,2.7l-0.1,2.7l-0.1,2.7l-0.1,2.7l-0.1,2.7l-0.1,2.7l-0.1,2.7l-0.1,2.7l-0.1,2.7
		l-0.1,2.7l-0.1,2.7l-0.1,2.7l1.1,0.3l1.3,0.8l3.2,3l1,0.6l1.8-0.3l1.9,0.4l0.5,0l0.4-1.2l0.2-0.2l0.3,0l1.6,1.1l0.3,0.4l0.9,1.6
		l0.2,1.9l0.5,0.3l1,0.2l2.5,0.2l3.1,1.3l1.3,0.2l2.3-0.3l2.1,1.7l0.7,0.3l0.6-0.2l1.2-1.2l2.6,0.2l2.1-0.2l0.1,1.4l0.3,1l1.8,1.1
		l0.4,0.5l0,1.6l0.5,0.4l0.7,0.2l0.8-0.1l0.9-0.5l2-1.6l0.6-0.4l0.4,0l0.3,0.1l0.3,0.4l0.6,1.2l1.7,0.7l0.9,1.1l0.6,0.2l0.7-0.2
		l1-0.6l0.8,0l0.9-0.6l0.4,0.1l0.2,0.5l-0.3,1.4l0.2,0.5l0.4,0.6l0.5,0.4l0.5,0.1l0.4-0.3l0.7-1.7l0-0.6l0.8-0.2l0.4-0.3l0.5-1.2
		l0.8-0.3l0.4,0.1l0.4,0.4l0.8,1.1l1.9,0.7l0.5,0l0.5-0.2l0.8-0.9l0.4-0.1l0.3,0.1l0.2,0.1l0.1,1.1l1.9,1.3l1.4,0.4l1.4,1.3l0.4,0.1
		l0.7-1l1.3-0.4l1.3-1.1l3.7-1.4l1.5,0.4l1.5,0l0.4-0.6l2.6-0.9l0.5-0.3l0.7,0.4l0.3,0.6l0.3,0.3l1.8,0.3l1,0l1.8-0.8l0.7-1l0.4-0.1
		l1.3,0.5l3.4,2l1.8,1.7l1.9,0.8l1.1,0.7L364.5,180.3z M355.2,281.2l-1,0.2l4.3-3.5l0.9-1.2l1.2,0l-1.9,2L355.2,281.2z M321,303.7
		l-0.7,0.1l0.9-1.2l1.5-0.6l3.3-2.3l1.3-0.2l0.7-0.8l0.3-0.1l-0.2,1l-2.6,1.4L321,303.7z M315.9,309.3l-0.4,0l1-1.8l0.2-0.7l1.6-2.3
		l0.8-0.3l0.3,1l-1.7,1.6L315.9,309.3z M308.9,322.8l-0.7,1.3l0.2-1.9l1.7-4.4l3.4-5.7l1.4-1l-3.9,6.3L308.9,322.8z M312.3,348.7
		l-0.3,1l-1.6-5l-2.6-11.2l0-6.3l0.5-2.2l0.6,9l2.9,11.4L312.3,348.7z"/>
	<path id="US-UT" class="st0" d="M87.5-25.9L87-23.2l-0.5,2.7l-0.5,2.8l-0.5,2.7l-0.5,2.7l-0.5,2.8l-0.5,2.7L83.8-4L88-3.3l4.2,0.7
		l4.2,0.7l4.2,0.7l4.2,0.6l4.2,0.6l4.2,0.6l4.2,0.6l-0.8,5.5l-0.8,5.5l-0.8,5.5l-0.8,5.5l-0.8,5.5l-0.8,5.5l-0.8,5.5l-0.8,5.5
		l-0.8,5.5l-0.8,5.5l-0.8,5.5l-0.8,5.5l-0.8,5.5l-0.8,5.5l-0.8,5.5l-0.8,5.5l-5.5-0.8l-5.5-0.8l-5.5-0.9l-5.5-0.9L77,85l-5.5-0.9
		L66,83.2l-5.5-0.9l-5.5-1l-5.5-1l-5.5-1l-5.5-1l-5.5-1l-5.5-1l-5.5-1.1L16.7,74l0.7-3.4l0.7-3.4l0.7-3.4l0.7-3.4l0.7-3.4l0.7-3.4
		l0.7-3.4l0.7-3.4l0.7-3.4l0.7-3.4l0.7-3.4l0.7-3.4l0.7-3.4l0.7-3.4L27,23l0.7-3.4l0.7-3.4l0.7-3.4l0.7-3.4l0.7-3.4l0.7-3.4l0.7-3.4
		l0.7-3.4l0.7-3.4l0.7-3.4l0.7-3.4l0.7-3.4l0.7-3.4l0.7-3.4l0.7-3.4l0.7-3.4l0.7-3.4l3,0.6l3.1,0.6l3,0.6l3,0.6l3.1,0.6l3,0.6
		l3.1,0.6l3,0.6l3.1,0.6l3,0.6l3.1,0.5l3.1,0.6l3.1,0.5l3.1,0.5l3.1,0.5L87.5-25.9z"/>
	<path id="US-VA" class="st0" d="M649.5,22.2l1.1,0.6l2.5,0.5l1.1,0.8l-0.2,1.1l0.1,0.7l0.6,0.6l3.3,0.7l2.3,1.4l1.3,0.3l0.4,0.1
		l0.9,0.3l0.5,0.5l0.3,2.5l-0.5,1.4l-1,1.2l-1.3,2l-0.1,1.6l0.1,3l0.9,0.8l0.8,0.1l1.9-1.1l1.1,0.1l3.1,3l4.8,0.4l1.8,0.5l1.7,1.5
		l2.2,0.6l1.9,1.2l0.3,1l-0.3,1.3l0.1,1.6l-0.4,1.1l-1.6,0.5l-1,0l-6.4-4.4l-0.7-0.4l-2.5-2.5l-2.6-1.1l-0.7,0.2l3.8,2.2l1.7,1.7
		l2.9,2.3l1.9,0.8l1.6,1.6l1.3,0.6l3.4,0.6l-0.9,1.1l1.9,0.4l0.6,1.4l0.2,1.6l-2.5-0.1l0.2,1.2l0.4,0.6l-0.9,0.8l-1.6-0.5l-4.7-3.4
		l0.2,0.6l0.4,0.6l2.8,2.3l2.3,1.2l1.8,0.4l1.6,1.1l0.6,0.7l0.6,1.2l-0.8,1.1l-1,0.7l-1.2-0.6l-1-0.7l-2-1.2l-0.9-1.6l-1.2,0.4
		l-5.7-1l-4.3,0.6l0.5,0.4l0.6,0.2l3.5-0.2l1.6,0.7l3,0.3l1.7-0.1l1.2,2.6l2.7,1.4l0.6,1.3l1.6-0.2l2.4-2l1.8,0.1l2.6-0.2l0.8,1
		l0.9,2l1.4,2.1l1.1,2.2l-0.6,0.1l-1.4,0.3l-4.4,0.9l-6.3,1.3l-6.4,1.3l-6.4,1.3l-6.4,1.2l-6.4,1.2l-6.4,1.2l-6.4,1.2l-6.4,1.1
		l-6.4,1.1l-6.4,1.1l-6.4,1.1l-6.4,1l-6.4,1l-6.4,1l-6.4,1l-0.4-0.3l-2.5,0.3l-1.9,0.2l-0.8,0.6l-3.7,0.6l-3,0.4l-5,0.7l-6.1,0.9
		l-8.6,1.2l-4,0.5l1.7-1.3l2.6-1l4.5-2.5l1.6-2.1l2.5-1.7l0.9-1.8l1.5-1.8l0.4-1.8l0.2-0.3l2.7-2l2.8-2.4l5.8-6.4l0.2,0.7l-0.1,0.8
		l0.7,0.8l0.7,1.3l0.8,0.8l0.9,0.5l1.5,0.4l1.8,0.8l1.3,0.1l0.4-0.1l1.2-1.3l1.1-0.7l1-1.3l2.4,1.2l0.9-0.1l2-1l2-0.5l0.5-0.3
		l0.6-0.8l-0.2-1.3l0.1-0.4l0.3-0.2l0.4-0.1l1,0.3l0.9-0.1l3.5-2.1l0.3,0.1l0.6,0.6l1.5-1.2l0.8-1l0.2-1.3l0.6-1.3l-0.3-0.5
		l-0.6-0.6l0.4-1.7l0.7-1.8l2.9-5.5l0.7-3.2l1.2-2.2l0.2-1.6l0.9-1.7l0.2-3.2l0.4-0.7l0.7-0.2l0.8,0.2l0.6,0.5l0.5,0.9l2,0.5
		l1.6-0.2l1-0.8l0.4-1.2l0.5-2.2l0.6-1.4l0.2-1.6l0.3-1.1l0.7-0.8l2.1-0.4l0.9-1.1l0.6-1.2l0.4-0.4l0.6-0.1l1.6-2l1.8-4l0.1-2.3
		l0.3-1.7l-0.1-1.7l0.3-1l2.5,1.3l1.5,0.8l3.3,1.8l2.2,1.2l0.4-1.9L649.5,22.2z M697.8,41.4l0.4-0.2l0,0l-1.1,3.7l-0.7,0.5
		L697.8,41.4z M691.2,44.8l0.4-1.1l2.5-0.9l1.6-0.6l-1.8,9.4l0.5,1.5l-0.7,0.7l-1.1,0.7l-1,1.2l-0.6,1.2l-0.1,3l-0.7,3.5l-1.2-1.1
		l-0.5-1.1l-0.3-3l0.4-5.1l1-3.4l0.9-1.7L691.2,44.8z"/>
	<path id="US-VT" class="st0" d="M718.6-71.3l-1.6,0.3l-1.6,0.4l-1.6,0.4l-1.6,0.3l-1.6,0.4l-1.6,0.3l-1.6,0.3l-1.6,0.3l-0.8-1.2
		l-0.1-1.2l-0.4-1.5l-0.5-2l-0.5-2.2l-0.7-3l-0.5-2l-0.4-1.8l-0.6-2.5l-1.3-1.1l-0.4-0.1l-0.3,0.2l-0.4,1.1l-0.2,0.1l-0.2-0.2
		l-0.2-0.8l-0.2-3.1l-0.2-0.9l-0.5-1.5l-1.6-3.4l-0.2-0.8l0-1.3L696-99l0.5-1.4l0-0.6l-0.6-2.1l-0.3-2l-1.7-2.7l-0.6-4l-0.7-1.8
		l-0.1-1.8l-0.5-1.4l2.6-0.7l6.4-1.7l6.4-1.7l6.4-1.7l6.4-1.8l-0.1,0.5l0.8,1.6l-0.9,3.4l0.3,0.9l1.5,2.4l0.1,0.6l-0.2,0.4l0,1.2
		l-0.2,0.8l-0.5,0.9l-1.8,2.2l-0.5,0.6l-1.9,1.1l-0.3,0.8l0.6,4.1l-0.1,2.4l0.1,1.1l-0.5,2l-0.2,2.2l-0.7,1.9l-0.1,2.2l-0.2,0.9
		l0,1.3l0.8,4.3l0.1,2.4l0.5,4.2l-0.1,1.1l-0.2,0.6l0,1.8l0.1,0.7l0.4,0.5l1.2,1.1L718.6-71.3z"/>
	<path id="US-WA" class="st0" d="M12.7-132l-3.8-0.9l-4-1l-4-1l-4-1l-4-1l-4-1l-4-1l-4-1l-0.3-0.1l-0.6,0.3l-2.1,0.3l-3.9-0.8
		l-8.2,0.1l-3.8,0.7l-3.2,0l-5.7-0.8l-5.3-0.3l-2.1-0.7l-0.6-1.2l-2.2-1.2l-3.9-1.3l-3.5-0.3l-3.6,1l-1-0.1l0,0l-0.8-0.2l-5.2-2.3
		l-1.3-0.4l-0.8-1.3l0.2-1.7l0-5.3l-0.6-3.4l-1.2-1.4l-1-0.8l-1.6,0.1l-0.4-0.4l-0.7-0.3l-1.2-1.6l-0.6-1.3l-2.8-0.8l-0.4-0.9
		l-3.3-0.3l-0.7-1l-1.8-0.1l1-1.9l0.7-2.5l0.9-2.4l-0.2,1.9l0.4,2.2l1.2-2l1.2-2.6l-0.7-1.4l-1.4-1.3l0.2-2.7l4.6-0.9l-2-1.1
		l-0.5-1.2l-1-0.4l-0.3,0.7l-0.6,0.9l0.1-1.4l0.4-1.6l0.4-2.7l-0.3-4.7l0.8-5.8l-0.3-3.1l-1.5-3.3l-0.1-1.7l0.7-4l1.2-2.8l0.2-2.2
		l1.1,0.5l2.4,2.5l3.2,2.4l0.8,1.3l1.5,1.2l9.5,4.1l0.7,0.1l1.5-0.3l0.5,0.2l1,1.9l0.7,0.4l1,0.2l0.8-0.1l1.5-0.7l0,0.4l-0.3,0.9
		l0,1.5l0.3,2v1.2l-2.7,2.5l-0.4,0l0.3-1.1l-0.2-0.3l-4.9,4.2l-1.9,2.1l-0.5,1.1l-0.2,0.7l0.4,0.3l1.1,0.1l1.9-0.5l0.1-0.2l-1.6-0.1
		l-0.7-0.2l0.5-1.1l0.3-0.5l1.5-1.4l1.3-0.7l1.8-0.7l1.1-0.7l1-1.1l2.1-1.1l0.4-0.3l0.3-1.3l0.2-0.2l0.7,0.4l-0.4,2.3l-0.5,0.9
		l-1.7,0.8l-0.3,0.4l-0.3,1.7l-0.3,0.1l-0.5-0.4l-0.2,0.1l0.8,2.2l0,1.5l-0.3,1.3l-1.1,2.3l-0.5,0.3l-0.6-0.3l-0.6-1l-0.3,0.2
		l-1.2,1.7l-0.2-0.2l0.2-2.4l-0.2-0.2l-1.6,0.6l-0.8,0.8l-0.9,1.4l-0.8,0.5l1.6,0.7l1.6,0.1l1,1.1l0.4,0.1l1.3-0.4l0.5-0.4l1.6-2.1
		l0.6-0.3l0.7,0.2l0.8-0.2l1.4-1l0.2-0.5l0.5-3l0.6-1.6l0-0.6l-0.3-0.7l0.2-0.5l0.6-0.8l0.2-0.8l-0.1-0.8l0.4-0.7l1.4-1.4l0.4-0.7
		l1.6-1.3l-0.1-0.8l-0.6-1.1l-0.3-0.9l-0.2-1.3l-0.3-0.5l-0.2,0.1v2l-0.2,0.1l-1.1-1.4l-0.1-0.7l0.1-0.9l0.3-0.6l1-0.4l1,0l0.1-0.6
		l-0.6-2.1l-0.5-1l-0.5-0.6l-0.8-0.3l-0.2-0.4l0-0.4l0.3-0.5l0.5,0l1.2,0.6l0.8-0.2l0.1-0.7l-0.1-0.4l0.8-2.5l0.1-2.2l-0.1-0.4
		l-0.2-0.1l-0.3,0.2l-0.8-0.2l-0.3-0.8l-0.1-1.4l0-3.3l1.5,0.4l6.1,1.8l6.1,1.8l6.1,1.8l6.1,1.7l6.1,1.7l6.1,1.7l6.1,1.6l6.1,1.6
		l6.1,1.6l6.1,1.6l6.2,1.5l6.2,1.5l6.2,1.5l1.5,0.4l-0.8,3.5l-0.8,3.5l-0.8,3.5l-0.8,3.5l-0.8,3.5l-0.8,3.5l-0.8,3.5l-0.8,3.5
		l-0.8,3.5l-0.8,3.5l-0.8,3.5l-0.8,3.5l-0.8,3.5l-0.8,3.5l-0.8,3.5l-0.8,3.5l-0.2,0.2l-0.2,0.5l0.1,1.6l0.5,2.4l0,1.6l-0.6,0.8
		l-0.1,1.6L12.7-132z M-60.9-221.6l0.5,0.2l-0.3,0.3l-0.2-0.1L-60.9-221.6z M-58.7-213.3l0,0.5l-0.7,0.3l-0.4-0.1l-0.4-0.9l-0.3-0.2
		l-0.1,1.2l-0.2,0.4l-1.1-1.1l-0.1-0.6l0.5-0.5l1-0.3l0.3,0L-58.7-213.3z M-63.1-210.6l0.2,0.8l-1.4-0.9l-0.5-0.6l-0.1-0.5l0.2-1.4
		l0.2-0.4l0.7,0.1l0.8,2L-63.1-210.6z M-60.8-208.3l-0.3,0.1l-0.7-0.5l-0.3-0.6l0-0.6l0.6-1.1l0.5-0.2l0.2,0.1l-0.2,1l0.4,1.3
		L-60.8-208.3z M-59-201.3l-0.1,3.1l0.7-1.1l1.4,2.6l-0.3,1l-0.3,0.3h-0.4l-0.3-0.4l-0.1-0.8l-0.3-0.5l-0.9-0.5l-0.2-0.9l0-0.6
		l0.4-1.6l-0.1-0.6l-0.5-0.3l-0.4-0.5l-0.4-1.3l0-0.3l0.6-0.8l1.3-1.3l0.8-0.5l0.3,0.2l0.3,0.6l0.3,1l-0.3,0.6l-2.5,0.5l-0.1,0.2
		l1,0.6l0.3,0.4L-59-201.3z M-61.6-188.8l-0.2,0.4l-0.7-0.7l-0.1-0.5l0.3-1l0.4-0.6l0.2-0.1l0.4,0.4l0.1,0.2L-61.6-188.8z
		 M-61.4-184.1l-0.2,0.5l-0.7,0.2l-0.3-0.2l0.1-0.6l-0.1-0.1l-0.8,0.5l0.5-1.4l0.7-1.4l0.3,0l0.1,1.1L-61.4-184.1z M-69.3-182
		l-0.3,0.4l-0.2-0.1l-0.2-1l0.1-0.6l0.5-0.3l0.1,1.4L-69.3-182z"/>
	<path id="US-WI" class="st0" d="M421.9-120.2l-0.5,0.4l-0.2-0.2l0.1-0.7l0.2-0.4l0.4-0.1l0.2,0.2l0,0.4L421.9-120.2z M417.7-117.8
		l-0.2,0.2l-0.6-0.3l-0.1-0.3l0.1-0.3l0.3,0.1l0.4,0.4L417.7-117.8z M422.8-110.5l-0.1,0.2l0.4,0.8l0.8-0.3l0.4,0.5l0.5,0.2l0.9,0.3
		l0.5,0.9l0.5,0.9l0.5,0.9l0.5,0.9l2,0.4l2,0.4l2,0.4l2,0.4l2,0.4l2,0.4l2,0.4l2,0.4l1.1,0.6l1.1,0.6l1.1,0.5l1.2,0.5l1.7,0l1.5,0.3
		l2.1-0.2l2.2,0.3l3.2,0.8l0.8,0.8l0.2,0.6l-0.2,1.4l3.1,1l1.4,0.8l0.5,0.7l0,0.6l0.4,1.3l-0.2,0.8l0.1,1.3l-0.6,1.4l-0.2,0.8l0,0.6
		l0.2,0.4l0.4,0.1l1.1-0.2l1.1-0.5l0.5,0.2l0.1,0.2l0,0.4l-0.7,2.4l0.1,0.9l0.5,0.9l0.7,0.8l0.8,0.2l0,0.6l-0.2,1.1l-0.8,1l-2.2,1.3
		l-0.3,0.8l0,0.6l-1.3,2.7l-0.6,1.6l-0.3,1.7l0.2,1l0.8,0.4L465-68l0.4-0.8l0.7-0.8l1-0.7l0.7-1l0.8-2.3l1-1.4l0.6-0.1l0.2,0
		l1.1-0.7l1,0.1l0.7,0.8l0.7,0.5l0.2,0.5l-0.2,1.3l-0.4,1.4l-0.7,1.4l-0.5,2.1l-0.4,2.8l0,2.1l0.5,1.4l-0.2,1.3l-1,1.2l-0.8,1.6
		l-0.5,1.9l-0.2,1.6l0,1.3l0.2,0.9l0.5,1.2l0,0.6l-1,2.9l-0.3,1.4l0,1.1l-0.2,1.1l-0.7,2.2l-0.2,1.2l0,1.1l0.4,1.8l-0.1,0.6l0.1,0.4
		l0.3,0.3l0,0.6l-0.2,0.8l0.2,0.6l0.5,0.4l0.3,0.8l0.2,1.3l0.4,1l0.6,0.8l0.2,1.2l-0.2,1.6l0.1,3.1l0.1,1l-2.1,0.2l-7.4,0.6
		l-7.4,0.6l-7.4,0.5l-7.4,0.5l-7.4,0.4l-7.6,0.4l-0.1-0.2l-0.6-2l-1.7-1.4l-2.9-0.8l-1.9-1.4l-0.9-2l-0.6-2.3l-0.3-2.6l0.1-2.2
		l0.6-1.8l-0.2-1.2l-1-0.6l-0.7-0.8l-0.4-1l-0.2-1.4l-0.9-6.6l-0.8-3.1l-1.1-1.2l-2.2-1.3l-3.3-1.5l-2.1-1.4l-1.2-2.1l-2.4-2.4
		l-1.5-0.9l-1.5-0.3l-1.2-0.8l-0.9-1.2l-1.2-0.7l-1.5-0.3l-1.7-0.9l-2.1-1.7l0-0.1l-0.5-1.3l0.2-0.7l0.2-2.5l-0.1-0.8l-0.5-2.3
		l0.5-0.9l-0.2-2.8l0.2-0.9l1-2.3l0-1.2l-0.4-1.3l-0.8-1.1l-2.2-1.1l-0.1-1.4l0.3-1.1l1.3-2.1l0.7-1.8l0.7-0.8l4.1-2.8l0.9-0.2
		l0.6-0.8l0.5-0.4l-0.1-3.2l-0.1-3.2l-0.1-3.2l-0.1-3.2l1-0.3l0.4-0.8l1-1.3h0.3v0l0.5,0.6l1.4,0.8l1,0.1l1.3-0.2l5.1-1.7l2.1-1.1
		l2.1-1.8l0.2-0.1l0.9,0.3l0.3,0.1l2.7-2.1l0.9-0.3l0.7,0l0.9,0.7l0.2,0.4l-0.2,0.9l-0.7,1.4l-0.3,1.1l0.1,0.9l-0.3,1l-0.8,1.4
		l0.3,0.3l2.3-1.1l0.3-0.4l0-0.2l-0.2-0.3l0.3-0.1l1.9,1.2l1.3,0.6l1.1,0.3L422.8-110.5z M420.2-117.7l-0.5,0.2l-1.1-0.1v-0.3
		l1.1-0.5l0.5-0.2l0.1,0.2L420.2-117.7z M417.8-114.5l-0.9,0.4l-0.4,0l0.1-0.4l0.4-0.5l2-1.4h0.4l0.1,0.3l-1,0.7l-0.3,0.3l0,0.3
		L417.8-114.5z M480.3-87.3l-0.5,0.3l-0.9,0l-0.4-0.5l0.3-1.3l0.2,0.2l0.8-0.1l0.3,0.1l0.1,0.3L480.3-87.3z M478.5-84.6l-0.3,0.3
		l-0.5-0.1l-0.2,0.4l0.2,1l-0.1,0.5l-0.4,0v0.2l0.4,0.4l0.1,0.5l-0.2,0.6l-0.3,0.3l-0.3,0l-0.4,0.7l-0.5,1.3l-0.1,0.8l0.2,0.2
		l-0.1,0.4l-1.3,2.1l-0.5,0.2l-0.6-0.2l-0.5-0.5l-0.3-0.8l-0.1-0.7l0.1-0.5l1.1-1.8l0.5-1.2l0.2-1.3l0.5-0.9l0.8-0.4l0.6-0.9
		l0.4-1.3l0.6-0.6l0.7,0.1l0.3,0.4L478.5-84.6z"/>
	<path id="US-WV" class="st0" d="M618.3,19.7l0.5,2.8l0.5,2.8l0.5,2.8l0.5,2.8l1.9-2l1-0.8l3-4.3l0.5-0.1L628,24l2.2-3.1l0.1-1
		l0.2-0.4l0.3,0l0.2,0.2l0,0.5l0.2,0.2l1.2,0.4l1.6,0l0.2,0l1.3-0.3l0.5-0.6l0.1-1.1l0.5-0.7l1.3-0.5l2.2-1.5l1.4-0.1l1.4,0.8
		l1.3,0.2l1.2-0.3l0.5,0.1l-0.2,0.6l0.4,0.5l1.1,0.5l0.4,0.6l-0.2,0.6l0.2,0.4l0.5,0.2l0.4,0.6l0.3,1l0.2,0.1l-0.6,2.8l-0.4,1.9
		l-2.2-1.2l-3.3-1.8l-1.5-0.8l-2.5-1.4l-0.3,1l0.1,1.7l-0.3,1.7l-0.1,2.3l-1.8,4l-1.6,2l-0.6,0.1l-0.4,0.4l-0.6,1.2l-0.9,1.1
		l-2.1,0.4l-0.7,0.8l-0.4,1.1l-0.2,1.6l-0.6,1.4l-0.5,2.2l-0.4,1.2l-1,0.8l-1.6,0.2l-2-0.5l-0.5-0.9l-0.6-0.5l-0.8-0.3l-0.7,0.2
		l-0.4,0.7l-0.2,3.2l-0.9,1.7l-0.2,1.6l-1.2,2.2l-0.7,3.2l-2.9,5.5l-0.7,1.8l-0.4,1.7l0.6,0.6l0.3,0.5l-0.6,1.3l-0.2,1.3l-0.8,1
		l-1.5,1.2l-0.6-0.6l-0.3-0.1l-3.4,2.1l-0.9,0.1l-1-0.3l-0.4,0.1l-0.3,0.2l-0.1,0.4l0.2,1.3l-0.6,0.8l-0.5,0.3l-2,0.5l-2,1l-0.9,0.1
		l-2.4-1.2l-1,1.3l-1.1,0.7l-1.2,1.3l-0.4,0.1l-1.3-0.1l-1.8-0.8l-1.5-0.4l-0.9-0.6l-0.8-0.8l-0.7-1.3l-0.7-0.8l0.1-0.8l-0.2-0.7
		l-2.5-0.3l-3.5-2.1l-2.4-2.8l-0.9-1.4l-0.9-0.9l-0.3-1l-2.2-2.3l-0.7-1l-0.1-0.7l0.4-1.4l0-0.7l-0.7-3.2l-0.5-0.6l2.1,0.4l1.9-0.7
		l1-1.2l0.2-1.7l0.5-1l0.8-0.4l0.3-0.8l-0.4-1.7l-0.5-1.1l0.4-1.8l1.2-2.8l1.1-1.2l0.9,0.3l0.7,0.7l0.4,1.1l0.2,0.1l0.2-0.1l0.5-1
		l0.5-0.4l0.2,0l0.3-0.1l0-0.6l-0.7-1.5l-0.1-0.9l0.5-0.4l0.4-1.1l0.3-1.9l0.6-1l0.9-0.2l0.8-0.9l0.8-1.6l0.8-0.6l0.9,0.5l1-0.1
		l1.1-0.7l1.8-1.9l2.6-3l1.2-2.3l-0.2-1.6l0.5-4l1.2-6.4l0.4-4.1l-0.3-1.8L596,5.8l-0.8-1l0.2-0.9l1.8-1.3l0.4,2.5l0.4,2.5l0.4,2.5
		l0.4,2.5l0.4,2.5l0.4,2.5l0.4,2.5l0.4,2.5l2.2-0.4l2.2-0.4l2.2-0.4l2.2-0.4l2.2-0.4l2.2-0.4l2.2-0.4L618.3,19.7z"/>
	<path id="US-WY" class="st0" d="M205.1-33.4l-0.5,5.6l-0.5,5.5l-0.5,5.6l-0.5,5.6l-0.5,5.5l-0.5,5.6l-0.5,5.5l-0.5,5.5l-5.3-0.5
		l-5.3-0.5l-5.3-0.5L180.2,9l-5.3-0.5l-5.3-0.6l-5.3-0.6l-5.3-0.6l-5.3-0.6l-5.2-0.6l-5.2-0.7l-5.2-0.7l-5.2-0.7l-5.2-0.7L122.4,2
		l-5.2-0.8L113,0.6L108.8,0l-4.2-0.6l-4.2-0.6l-4.2-0.7l-4.2-0.7L88-3.3L83.8-4l0.5-2.7l0.5-2.7l0.5-2.8l0.5-2.7l0.5-2.7l0.5-2.8
		l0.5-2.7l0.4-2.7l0.6-3.4l0.6-3.4l0.6-3.4l0.6-3.4l0.6-3.4l0.6-3.4l0.6-3.4l0.6-3.4l0.6-3.4l0.6-3.4l0.6-3.4l0.6-3.4l0.6-3.4
		l0.6-3.4l0.6-3.4l0.6-3.4l0.5-2.8l0.5-2.8l0.5-2.8l0.5-2.8l3.4,0.6l3.4,0.6l3.4,0.6l3.4,0.5l3.4,0.5l3.4,0.5l3.4,0.5l3.4,0.5
		l3.4,0.5l3.4,0.5l3.5,0.5l3.4,0.5l3.5,0.5l3.4,0.5l3.4,0.5l3.5,0.4l3.5,0.4l3.5,0.4l3.4,0.4l3.5,0.4l3.5,0.4l3.5,0.4l3.5,0.4
		l3.5,0.4l3.5,0.4l3.5,0.4l3.5,0.4l3.5,0.3l3.5,0.3l3.5,0.3l3.5,0.3l3.5,0.3l-0.5,5.6l-0.5,5.6l-0.5,5.6l-0.5,5.6l-0.5,5.6l-0.5,5.6
		l-0.5,5.6L205.1-33.4z"/>
</g>
<path class="st1" d="M659.1-74.7c-4.6,0-8.4,3.8-8.4,8.4c0,6.2,8.4,15.7,8.4,15.7s8.4-9.5,8.4-15.7
	C667.5-70.9,663.7-74.7,659.1-74.7z M659.1-62.8c-2,0-3.5-1.6-3.5-3.5c0-2,1.6-3.5,3.5-3.5c2,0,3.5,1.6,3.5,3.5
	C662.6-64.4,661-62.8,659.1-62.8z"/>
<path class="st2" d="M635.3-82.9c-4.6,0-8.4,3.8-8.4,8.4c0,6.2,8.4,15.7,8.4,15.7s8.4-9.5,8.4-15.7
	C643.7-79.1,639.9-82.9,635.3-82.9z M635.3-71c-2,0-3.5-1.6-3.5-3.5s1.6-3.5,3.5-3.5s3.5,1.6,3.5,3.5C638.8-72.5,637.2-71,635.3-71z
	"/>
<path class="st3" d="M635.3-82.1c-4.6,0-8.4,3.8-8.4,8.4c0,6.2,8.4,15.7,8.4,15.7s8.4-9.5,8.4-15.7
	C643.7-78.4,639.9-82.1,635.3-82.1z M635.3-70.2c-2,0-3.5-1.6-3.5-3.5s1.6-3.5,3.5-3.5s3.5,1.6,3.5,3.5
	C638.8-71.8,637.2-70.2,635.3-70.2z"/>
<path class="st1" d="M618.5-74.7c-4.6,0-8.4,3.8-8.4,8.4c0,6.2,8.4,15.7,8.4,15.7s8.4-9.5,8.4-15.7
	C626.9-70.9,623.2-74.7,618.5-74.7z M618.5-62.8c-2,0-3.5-1.6-3.5-3.5c0-2,1.6-3.5,3.5-3.5s3.5,1.6,3.5,3.5
	C622.1-64.4,620.5-62.8,618.5-62.8z"/>
<path class="st1" d="M668.5-68.5c-4.6,0-8.4,3.8-8.4,8.4c0,6.2,8.4,15.7,8.4,15.7s8.4-9.5,8.4-15.7
	C676.8-64.8,673.1-68.5,668.5-68.5z M668.5-56.6c-2,0-3.5-1.6-3.5-3.5c0-2,1.6-3.5,3.5-3.5c2,0,3.5,1.6,3.5,3.5
	C672-58.2,670.4-56.6,668.5-56.6z"/>
<path class="st1" d="M740-92.5c-4.6,0-8.4,3.8-8.4,8.4c0,6.2,8.4,15.7,8.4,15.7s8.4-9.5,8.4-15.7C748.4-88.7,744.6-92.5,740-92.5z
	 M740-80.6c-2,0-3.5-1.6-3.5-3.5s1.6-3.5,3.5-3.5s3.5,1.6,3.5,3.5C743.5-82.1,741.9-80.6,740-80.6z"/>
<path class="st3" d="M699.6-90.1c-4.6,0-8.4,3.8-8.4,8.4c0,6.2,8.4,15.7,8.4,15.7s8.4-9.5,8.4-15.7C708-86.3,704.3-90.1,699.6-90.1z
	 M699.6-78.2c-2,0-3.5-1.6-3.5-3.5s1.6-3.5,3.5-3.5c2,0,3.5,1.6,3.5,3.5S701.6-78.2,699.6-78.2z"/>
<path class="st3" d="M701.2-91.2c-4.6,0-8.4,3.8-8.4,8.4c0,6.2,8.4,15.7,8.4,15.7s8.4-9.5,8.4-15.7
	C709.6-87.5,705.9-91.2,701.2-91.2z M701.2-79.3c-2,0-3.5-1.6-3.5-3.5s1.6-3.5,3.5-3.5c2,0,3.5,1.6,3.5,3.5
	C704.8-80.9,703.2-79.3,701.2-79.3z"/>
<path class="st3" d="M705.7-46.7c-4.6,0-8.4,3.8-8.4,8.4c0,6.2,8.4,15.7,8.4,15.7s8.4-9.5,8.4-15.7C714.1-43,710.4-46.7,705.7-46.7z
	 M705.7-34.8c-2,0-3.5-1.6-3.5-3.5s1.6-3.5,3.5-3.5c2,0,3.5,1.6,3.5,3.5S707.7-34.8,705.7-34.8z"/>
<path class="st3" d="M727.3-76.8c-4.6,0-8.4,3.8-8.4,8.4c0,6.2,8.4,15.7,8.4,15.7s8.4-9.5,8.4-15.7
	C735.7-73.1,731.9-76.8,727.3-76.8z M727.3-64.9c-2,0-3.5-1.6-3.5-3.5c0-2,1.6-3.5,3.5-3.5s3.5,1.6,3.5,3.5
	C730.8-66.5,729.3-64.9,727.3-64.9z"/>
<path class="st3" d="M717.7-88.8c-4.6,0-8.4,3.8-8.4,8.4c0,6.2,8.4,15.7,8.4,15.7s8.4-9.5,8.4-15.7C726-85,722.3-88.8,717.7-88.8z
	 M717.7-76.9c-2,0-3.5-1.6-3.5-3.5s1.6-3.5,3.5-3.5s3.5,1.6,3.5,3.5S719.6-76.9,717.7-76.9z"/>
<path class="st3" d="M706.3-48c-4.6,0-8.4,3.8-8.4,8.4c0,6.2,8.4,15.7,8.4,15.7s8.4-9.5,8.4-15.7C714.7-44.2,710.9-48,706.3-48z
	 M706.3-36.1c-2,0-3.5-1.6-3.5-3.5c0-2,1.6-3.5,3.5-3.5c2,0,3.5,1.6,3.5,3.5C709.8-37.7,708.3-36.1,706.3-36.1z"/>
<path class="st3" d="M712.9-48c-4.6,0-8.4,3.8-8.4,8.4c0,6.2,8.4,15.7,8.4,15.7s8.4-9.5,8.4-15.7C721.3-44.2,717.5-48,712.9-48z
	 M712.9-36.1c-2,0-3.5-1.6-3.5-3.5c0-2,1.6-3.5,3.5-3.5s3.5,1.6,3.5,3.5C716.4-37.7,714.9-36.1,712.9-36.1z"/>
<path class="st3" d="M723.8-52.9c-4.6,0-8.4,3.8-8.4,8.4c0,6.2,8.4,15.7,8.4,15.7s8.4-9.5,8.4-15.7
	C732.1-49.1,728.4-52.9,723.8-52.9z M723.8-41c-2,0-3.5-1.6-3.5-3.5c0-2,1.6-3.5,3.5-3.5s3.5,1.6,3.5,3.5
	C727.3-42.5,725.7-41,723.8-41z"/>
<path class="st3" d="M699.6-37.7c-4.6,0-8.4,3.8-8.4,8.4c0,6.2,8.4,15.7,8.4,15.7s8.4-9.5,8.4-15.7C708-33.9,704.3-37.7,699.6-37.7z
	 M699.6-25.8c-2,0-3.5-1.6-3.5-3.5s1.6-3.5,3.5-3.5c2,0,3.5,1.6,3.5,3.5S701.6-25.8,699.6-25.8z"/>
<path class="st3" d="M607.1-13.7c-4.6,0-8.4,3.8-8.4,8.4c0,6.2,8.4,15.7,8.4,15.7s8.4-9.5,8.4-15.7C615.5-10,611.7-13.7,607.1-13.7z
	 M607.1-1.8c-2,0-3.5-1.6-3.5-3.5s1.6-3.5,3.5-3.5s3.5,1.6,3.5,3.5S609-1.8,607.1-1.8z"/>
<path class="st3" d="M631.8-30.7c-4.6,0-8.4,3.8-8.4,8.4c0,6.2,8.4,15.7,8.4,15.7s8.4-9.5,8.4-15.7
	C640.1-26.9,636.4-30.7,631.8-30.7z M631.8-18.8c-2,0-3.5-1.6-3.5-3.5s1.6-3.5,3.5-3.5c2,0,3.5,1.6,3.5,3.5S633.7-18.8,631.8-18.8z"
	/>
<path class="st3" d="M560.1,0.7c-4.6,0-8.4,3.8-8.4,8.4c0,6.2,8.4,15.7,8.4,15.7s8.4-9.5,8.4-15.7C568.5,4.5,564.8,0.7,560.1,0.7z
	 M560.1,12.6c-2,0-3.5-1.6-3.5-3.5s1.6-3.5,3.5-3.5c2,0,3.5,1.6,3.5,3.5S562.1,12.6,560.1,12.6z"/>
<path class="st3" d="M664.5,3.7c-4.6,0-8.4,3.8-8.4,8.4c0,6.2,8.4,15.7,8.4,15.7s8.4-9.5,8.4-15.7C672.9,7.5,669.1,3.7,664.5,3.7z
	 M664.5,15.6c-2,0-3.5-1.6-3.5-3.5s1.6-3.5,3.5-3.5c2,0,3.5,1.6,3.5,3.5S666.4,15.6,664.5,15.6z"/>
<path class="st3" d="M665.2,1.6c-4.6,0-8.4,3.8-8.4,8.4c0,6.2,8.4,15.7,8.4,15.7s8.4-9.5,8.4-15.7C673.6,5.3,669.8,1.6,665.2,1.6z
	 M665.2,13.5c-2,0-3.5-1.6-3.5-3.5s1.6-3.5,3.5-3.5c2,0,3.5,1.6,3.5,3.5S667.2,13.5,665.2,13.5z"/>
<path class="st3" d="M656.8,5.3c-4.6,0-8.4,3.8-8.4,8.4c0,6.2,8.4,15.7,8.4,15.7s8.4-9.5,8.4-15.7C665.2,9,661.5,5.3,656.8,5.3z
	 M656.8,17.2c-2,0-3.5-1.6-3.5-3.5s1.6-3.5,3.5-3.5c2,0,3.5,1.6,3.5,3.5S658.8,17.2,656.8,17.2z"/>
<path class="st3" d="M609.6,266c-4.6,0-8.4,3.8-8.4,8.4c0,6.2,8.4,15.7,8.4,15.7s8.4-9.5,8.4-15.7C618,269.7,614.2,266,609.6,266z
	 M609.6,277.9c-2,0-3.5-1.6-3.5-3.5c0-2,1.6-3.5,3.5-3.5s3.5,1.6,3.5,3.5C613.1,276.3,611.6,277.9,609.6,277.9z"/>
<path class="st3" d="M633.8,248.1c-4.6,0-8.4,3.8-8.4,8.4c0,6.2,8.4,15.7,8.4,15.7s8.4-9.5,8.4-15.7
	C642.2,251.8,638.4,248.1,633.8,248.1z M633.8,260c-2,0-3.5-1.6-3.5-3.5c0-2,1.6-3.5,3.5-3.5s3.5,1.6,3.5,3.5
	C637.4,258.4,635.8,260,633.8,260z"/>
<path class="st3" d="M602.5,224.2c-4.6,0-8.4,3.8-8.4,8.4c0,6.2,8.4,15.7,8.4,15.7s8.4-9.5,8.4-15.7
	C610.9,228,607.2,224.2,602.5,224.2z M602.5,236.1c-2,0-3.5-1.6-3.5-3.5s1.6-3.5,3.5-3.5s3.5,1.6,3.5,3.5S604.5,236.1,602.5,236.1z"
	/>
<path class="st3" d="M380.4-98.1c-4.6,0-8.4,3.8-8.4,8.4c0,6.2,8.4,15.7,8.4,15.7s8.4-9.5,8.4-15.7C388.8-94.3,385-98.1,380.4-98.1z
	 M380.4-86.2c-2,0-3.5-1.6-3.5-3.5s1.6-3.5,3.5-3.5c2,0,3.5,1.6,3.5,3.5S382.3-86.2,380.4-86.2z"/>
<path class="st3" d="M188.4,13.6c-4.6,0-8.4,3.8-8.4,8.4c0,6.2,8.4,15.7,8.4,15.7s8.4-9.5,8.4-15.7C196.7,17.4,193,13.6,188.4,13.6z
	 M188.4,25.5c-2,0-3.5-1.6-3.5-3.5s1.6-3.5,3.5-3.5s3.5,1.6,3.5,3.5S190.3,25.5,188.4,25.5z"/>
<path class="st3" d="M-117.6-3.2c-4.6,0-8.4,3.8-8.4,8.4c0,6.2,8.4,15.7,8.4,15.7s8.4-9.5,8.4-15.7C-109.2,0.5-113-3.2-117.6-3.2z
	 M-117.6,8.7c-2,0-3.5-1.6-3.5-3.5s1.6-3.5,3.5-3.5c2,0,3.5,1.6,3.5,3.5S-115.6,8.7-117.6,8.7z"/>
<path class="st3" d="M-51.7,97.7c-4.6,0-8.4,3.8-8.4,8.4c0,6.2,8.4,15.7,8.4,15.7s8.4-9.5,8.4-15.7C-43.4,101.4-47.1,97.7-51.7,97.7
	z M-51.7,109.6c-2,0-3.5-1.6-3.5-3.5s1.6-3.5,3.5-3.5s3.5,1.6,3.5,3.5S-49.8,109.6-51.7,109.6z"/>
</svg>
